<?xml version="1.0" encoding="UTF-8"?>
<svg width="552px" height="594px" viewBox="0 0 552 594" version="1.1" xmlns="http://www.w3.org/2000/svg" xmlns:xlink="http://www.w3.org/1999/xlink">
    <!-- Generator: sketchtool 53 (72520) - https://sketchapp.com -->
    <title>AA9236D3-FD30-416B-B9C2-4763D583C8E7</title>
    <desc>Created with sketchtool.</desc>
    <g id="NewContent" stroke="none" stroke-width="1" fill="none" fill-rule="evenodd" fill-opacity="0.04">
        <g id="banner-1" transform="translate(0.000000, -125.000000)" fill="#000000">
            <g id="Fill-2-Copy" transform="translate(0.000000, 125.000000)">
                <g id="Fill-2" transform="translate(0.000000, 0.140234)">
                    <path d="M247.500511,211.716194 L16,7.77963272 L247.500511,30.437905 L479,7.77963272 L247.500511,211.716194 Z M-56,-14 L-56,208.09329 C-56,253.106221 -56.0020409,366.050285 -36.6435527,408.37004 C15.2399711,521.798916 115.710025,626.887211 248,726.507513 C380.289975,626.887211 480.760029,521.798916 532.644573,408.37004 C552.002041,366.050285 552,253.106221 552,208.09329 L552,-14 L501.840995,32.5963812 L501.898139,32.5963812 L501.898139,208.09329 C501.898139,244.812005 502.616518,353.825161 486.986664,387.991808 C437.675632,495.796462 342.432197,589.095057 248,663.7299 C236.502868,654.645471 224.994512,645.27983 213.559626,635.646081 C296.078358,561.566604 394.541235,469.908912 441.328755,367.616601 C453.234057,341.592981 451.798318,236.159975 451.798318,208.09329 L451.798318,82.0834918 L448.569693,82.0834918 L395.302472,131.569594 L401.697477,131.569594 L401.697477,208.09329 C401.697477,226.472806 403.509753,330.109689 395.673907,347.243409 C363.707044,417.129917 306.778538,480.582839 248,533.70352 C189.221462,480.582839 132.292956,417.129917 100.325073,347.243409 C92.4892268,330.109689 94.3025225,226.472806 94.3025225,208.09329 L94.3025225,131.569594 L100.697528,131.569594 L47.4292869,82.0834918 L44.2006613,82.0834918 L44.2006613,208.09329 C44.2006613,236.159975 42.7659433,341.592981 54.6712452,367.616601 C89.0126378,442.697956 148.56976,510.609938 212.46471,568.647278 C192.891932,587.454154 173.233439,605.407318 153.021875,623.465305 L169.70787,596.916556 C103.949623,535.848385 44.5506671,465.686713 9.01333602,387.991808 C-6.61753856,353.825161 -5.89813873,244.812005 -5.89813873,208.09329 L-5.89813873,32.5963812 L-5.84099491,32.5963812 L-56,-14 Z"></path>
                </g>
            </g>
        </g>
    </g>
</svg>