<?xml version="1.0" encoding="UTF-8"?>
<svg width="197px" height="404px" viewBox="0 0 197 404" version="1.1" xmlns="http://www.w3.org/2000/svg" xmlns:xlink="http://www.w3.org/1999/xlink">
    <!-- Generator: Sketch 53 (72520) - https://sketchapp.com -->
    <title>brasao-slider</title>
    <desc>Created with Sketch.</desc>
    <g id="NewContent" stroke="none" stroke-width="1" fill="none" fill-rule="evenodd" fill-opacity="0.04">
        <g id="LandingPage-Mobile-ExpandedPanel" transform="translate(0.000000, -168.000000)" fill="#000000">
            <g id="Fill-2-Copy" transform="translate(0.000000, 158.000000)">
                <g id="Fill-2" transform="translate(0.000000, 0.140234)">
                    <path d="M31.0002781,132.859766 L-95,21.8597663 L31.0002781,34.1923672 L157,21.8597663 L31.0002781,132.859766 Z M-134,9.85976628 L-134,131.027597 C-134,155.585382 -134.001111,217.204476 -123.462197,240.29294 C-95.2163973,302.176533 -40.519707,359.509741 31.5,413.859766 C103.519707,359.509741 158.216397,302.176533 186.462753,240.29294 C197.001111,217.204476 197,155.585382 197,131.027597 L197,9.85976628 L169.693042,35.2814368 L169.724151,35.2814368 L169.724151,131.027597 C169.724151,151.060292 170.115243,210.534793 161.606227,229.175152 C134.760912,287.990328 82.9096336,338.891408 31.5,379.610073 C25.2408707,374.653864 18.9756306,369.544235 12.7503885,364.288334 C57.6742376,323.872662 111.278205,273.866811 136.7497,218.059014 C143.231041,203.861261 142.449413,146.339988 142.449413,131.027597 L142.449413,62.2802077 L140.691724,62.2802077 L111.692629,89.2784287 L115.17412,89.2784287 L115.17412,131.027597 C115.17412,141.054942 116.160737,197.596301 111.894841,206.943975 C94.4918282,245.072082 63.4994999,279.690205 31.5,308.671349 C-0.499499857,279.690205 -31.4918282,245.072082 -48.8953963,206.943975 C-53.1612927,197.596301 -52.1741201,141.054942 -52.1741201,131.027597 L-52.1741201,89.2784287 L-48.6926288,89.2784287 L-77.6922797,62.2802077 L-79.449969,62.2802077 L-79.449969,131.027597 C-79.449969,146.339988 -80.2310407,203.861261 -73.7497004,218.059014 C-55.0539751,259.021282 -22.6306077,296.072143 12.1543074,327.735678 C1.49873286,337.996178 -9.20350603,347.790918 -20.2068409,357.642846 L-11.1228538,343.158598 C-46.9221624,309.841527 -79.259423,271.563299 -98.6062266,229.175152 C-107.115798,210.534793 -106.724151,151.060292 -106.724151,131.027597 L-106.724151,35.2814368 L-106.693042,35.2814368 L-134,9.85976628 Z" id="brasao-slider"></path>
                </g>
            </g>
        </g>
    </g>
</svg>