<?xml version="1.0" encoding="UTF-8"?>
<svg width="608px" height="741px" viewBox="0 0 608 741" version="1.1" xmlns="http://www.w3.org/2000/svg" xmlns:xlink="http://www.w3.org/1999/xlink">
    <!-- Generator: Sketch 53 (72520) - https://sketchapp.com -->
    <title>Fill 2</title>
    <desc>Created with Sketch.</desc>
    <g id="NewContent" stroke="none" stroke-width="1" fill="none" fill-rule="evenodd" fill-opacity="0.04">
        <path d="M303.500511,225.716194 L72,21.7796327 L303.500511,44.437905 L535,21.7796327 L303.500511,225.716194 Z M0,-4.54747351e-13 L9.06917166e-11,222.09329 C9.06917166e-11,267.106221 -0.00204085049,380.050285 19.3564473,422.37004 C71.2399711,535.798916 171.710025,640.887211 304,740.507513 C436.289975,640.887211 536.760029,535.798916 588.644573,422.37004 C608.002041,380.050285 608,267.106221 608,222.09329 L608,-4.54747351e-13 L557.840995,46.5963812 L557.898139,46.5963812 L557.898139,222.09329 C557.898139,258.812005 558.616518,367.825161 542.986664,401.991808 C493.675632,509.796462 398.432197,603.095057 304,677.7299 C292.502868,668.645471 280.994512,659.27983 269.559626,649.646081 C352.078358,575.566604 450.541235,483.908912 497.328755,381.616601 C509.234057,355.592981 507.798318,250.159975 507.798318,222.09329 L507.798318,96.0834918 L504.569693,96.0834918 L451.302472,145.569594 L457.697477,145.569594 L457.697477,222.09329 C457.697477,240.472806 459.509753,344.109689 451.673907,361.243409 C419.707044,431.129917 362.778538,494.582839 304,547.70352 C245.221462,494.582839 188.292956,431.129917 156.325073,361.243409 C148.489227,344.109689 150.302523,240.472806 150.302523,222.09329 L150.302523,145.569594 L156.697528,145.569594 L103.429287,96.0834918 L100.200661,96.0834918 L100.200661,222.09329 C100.200661,250.159975 98.7659433,355.592981 110.671245,381.616601 C145.012638,456.697956 204.56976,524.609938 268.46471,582.647278 C248.891932,601.454154 229.233439,619.407318 209.021875,637.465305 L225.70787,610.916556 C159.949623,549.848385 100.550667,479.686713 65.013336,401.991808 C49.3824614,367.825161 50.1018613,258.812005 50.1018613,222.09329 L50.1018613,46.5963812 L50.1590051,46.5963812 L0,-4.54747351e-13 Z" id="Fill-2" fill="#000000"></path>
    </g>
</svg>