<?xml version="1.0" encoding="UTF-8"?>
<svg width="50px" height="50px" viewBox="0 0 50 50" version="1.1" xmlns="http://www.w3.org/2000/svg" xmlns:xlink="http://www.w3.org/1999/xlink">
    <!-- Generator: sketchtool 53 (72520) - https://sketchapp.com -->
    <title>400F0B16-008F-4A07-8409-2C372156F248</title>
    <desc>Created with sketchtool.</desc>
    <g id="NewContent" stroke="none" stroke-width="1" fill="none" fill-rule="evenodd">
        <g id="LandingPage-MA&amp;C-Atuação-Tab1" transform="translate(-182.000000, -1866.000000)" fill="#9A3F4B" fill-rule="nonzero">
            <g id="Group-6-Copy-5" transform="translate(168.000000, 1852.000000)">
                <g id="002-balance" transform="translate(14.000000, 14.000000)">
                    <path d="M49.9166667,30.4885247 L49.9241667,30.4860247 L41.7150018,12.5745337 L43.7058347,11.5837101 L42.9608349,10.0920581 L41.020002,11.0587153 L40.757502,10.4862209 C40.5656271,10.0678916 40.0710439,9.88424761 39.6527106,10.0760166 C39.4712523,10.1592449 39.3257315,10.3047643 39.2425024,10.4862209 L39.0083358,10.9978825 C37.5958361,10.3418473 36.0573989,10.001434 34.5000034,10.0003923 L27.500005,10.0003923 L27.500005,8.33374198 L29.1666713,8.33374198 L29.1666713,6.66709166 L27.7341716,6.66709166 L28.3333381,4.26961517 C28.793338,2.42869573 27.6739633,0.563401524 25.8330262,0.10330187 C23.9920891,-0.356693619 22.126777,0.762670403 21.6666729,2.60358985 C21.5300063,3.15045948 21.5300063,3.72264137 21.6666729,4.26951101 L22.2658395,6.6669875 L20.8333398,6.6669875 L20.8333398,8.33363782 L22.5000061,8.33363782 L22.5000061,10.0002881 L15.5041743,10.0002881 C13.9452163,10.0015381 12.4052167,10.3427848 10.9916753,11.0002783 L10.7575087,10.4886167 C10.5657379,10.0702875 10.0710505,9.88664342 9.65271727,10.0784124 C9.47125898,10.1616407 9.32573818,10.3071601 9.24250903,10.4886167 L8.98000909,11.0611111 L7.03917618,10.0902873 L6.29417635,11.5836059 L8.28500924,12.5785962 L0.0758443921,30.4860247 C0.0252194033,30.5948778 -0.000613924282,30.7135225 1.10755798e-05,30.8335213 C0.00365690811,34.0535939 2.61323966,36.6631516 5.83334312,36.6667974 L14.1666746,36.6667974 C17.3867781,36.6631516 19.9963608,34.0535939 20.0000066,30.8335213 C19.9979233,30.713835 19.9694858,30.5960236 19.9166733,30.4885247 L11.6850085,12.5095344 C12.8815707,11.9541231 14.1850079,11.666626 15.5041743,11.6670426 L22.5000061,11.6670426 L22.5000061,42.1550769 L19.6550067,45.000049 L16.6666741,45.000049 C14.3666746,45.0027573 12.5027166,46.8666974 12.5000083,49.1666748 C12.5000083,49.6268787 12.8731332,50 13.3333415,50 L36.6666696,50 C37.1268779,50 37.5000028,49.6268787 37.5000028,49.1666748 C37.4972944,46.8666974 35.6333365,45.0027573 33.333337,45.000049 L30.3450044,45.000049 L27.500005,42.1550769 L27.500005,11.6670426 L34.5000034,11.6670426 C35.8191698,11.666626 37.122607,11.9541231 38.3191693,12.5095344 L30.0758377,30.4860247 C30.0252128,30.5948778 29.9993794,30.7135225 30.0000044,30.8335213 C30.0036503,34.0535939 32.613233,36.6631516 35.8333365,36.6667974 L44.166668,36.6667974 C47.3867714,36.6631516 49.9963542,34.0535939 50,30.8335213 C49.9980208,30.713835 49.9695833,30.5960236 49.9166667,30.4885247 Z M14.1666746,35.0001471 L5.83334312,35.0001471 C3.85396856,34.9979596 2.1484481,33.6056816 1.75001069,31.6668465 L18.250007,31.6668465 C17.8516738,33.6056816 16.1460492,34.9979596 14.1666746,35.0001471 Z M17.8683405,30.0001962 L2.13167727,30.0001962 L9.78667557,13.2995266 C9.92646721,13.3370262 10.0735505,13.3370262 10.2133421,13.2995266 L17.8683405,30.0001962 Z M23.6058392,2.34713403 C24.2547974,1.57714158 25.4051096,1.47912171 26.1751094,2.12807368 C26.2541719,2.19473969 26.3275052,2.26807231 26.3941719,2.34713403 C26.7312552,2.77587982 26.8503176,3.33670766 26.7166718,3.86545247 L26.0158386,6.66709166 L23.9841724,6.66709166 L23.2833393,3.86545247 C23.1496934,3.33670766 23.2688601,2.77587982 23.6058392,2.34713403 Z M24.1666724,10.0003923 L24.1666724,8.33374198 L25.8333387,8.33374198 L25.8333387,10.0003923 L24.1666724,10.0003923 Z M25.8333387,11.6670426 L25.8333387,41.6667484 L24.1666724,41.6667484 L24.1666724,11.6670426 L25.8333387,11.6670426 Z M33.333337,46.6666994 C34.3925035,46.6679493 35.3363574,47.3352345 35.6908365,48.3333497 L14.3091746,48.3333497 C14.6636537,47.3352345 15.6075076,46.6679493 16.6666741,46.6666994 L33.333337,46.6666994 Z M27.9883382,45.000049 L22.0116729,45.000049 L23.6783392,43.3333987 L26.3216719,43.3333987 L27.9883382,45.000049 Z M39.7850023,13.3020266 C39.9226064,13.3504636 40.0735439,13.3442137 40.2066688,13.2845268 L47.8683338,30.0001962 L32.1316706,30.0001962 L39.7850023,13.3020266 Z M44.166668,35.0001471 L35.8333365,35.0001471 C33.8539619,34.9979596 32.1484415,33.6056816 31.750004,31.6668465 L48.2500004,31.6668465 C47.8516671,33.6056816 46.1460425,34.9979596 44.166668,35.0001471 Z" id="Shape"></path>
                </g>
            </g>
        </g>
    </g>
</svg>