<?xml version="1.0" encoding="UTF-8"?>
<svg width="51px" height="50px" viewBox="0 0 51 50" version="1.1" xmlns="http://www.w3.org/2000/svg" xmlns:xlink="http://www.w3.org/1999/xlink">
    <!-- Generator: sketchtool 53 (72520) - https://sketchapp.com -->
    <title>157644AC-3CFD-417B-B04E-0F24AED2CAFD</title>
    <desc>Created with sketchtool.</desc>
    <g id="NewContent" stroke="none" stroke-width="1" fill="none" fill-rule="evenodd">
        <g id="LandingPage-MA&amp;C-Atuação-Tab2" transform="translate(-183.000000, -1867.000000)" fill="#9A3F4B" fill-rule="nonzero">
            <g id="Group-6-Copy-5" transform="translate(168.000000, 1852.000000)">
                <g id="business-and-finance" transform="translate(15.000000, 15.000000)">
                    <path d="M50.7391344,39.7330992 L44.4191847,33.9501165 L44.4191847,0.806451613 C44.4191847,0.361485685 44.0516757,0 43.5966072,0 L10.6935074,0 C10.2384389,0 9.87092993,0.361485685 9.87092993,0.806451613 L9.87092993,3.22580645 L7.40319745,3.22580645 C6.94812897,3.22580645 6.58061995,3.58729214 6.58061995,4.03225806 L6.58061995,38.6281659 L4.42858367,41.266066 L0.517324127,42.7994266 C0.204841127,42.9226783 0,43.2187973 0,43.5483871 L0,47.5806452 C0,48.0267924 0.367509014,48.3870968 0.822577494,48.3870968 L3.44173169,48.3870968 C3.78233018,49.3234942 4.68724583,50 5.75804246,50 C6.82883909,50 7.73375474,49.3234942 8.07435323,48.3870968 L14.95862,48.3870968 C15.2992185,49.3234942 16.204134,50 17.2749306,50 C18.346129,50 19.2506429,49.3234942 19.5912414,48.3870968 L21.3870149,48.3870968 C21.8420833,48.3870968 22.2095923,48.0267924 22.2095923,47.5806452 L22.2095923,46.7741935 L27.9676348,46.7741935 L27.9676348,47.5806452 C27.9676348,48.9147555 29.0749815,50 30.4353673,50 L45.2417622,50 C46.6021479,50 47.7094947,48.9147555 47.7094947,47.5806452 L47.7094947,41.1290323 L50.1772271,41.1290323 C50.5154157,41.1290323 50.8178576,40.9266319 50.9431721,40.6186996 C51.0664785,40.3095861 50.9849437,39.9591261 50.7391344,39.7330992 Z M11.5160849,1.61290323 L42.7740297,1.61290323 L42.7740297,32.4443202 L41.1288747,30.9389175 L41.1288747,10.483871 C41.1288747,10.270051 41.0425201,10.0645004 40.8878852,9.91368448 L34.3080685,3.46285907 C34.1590567,3.3163748 33.9534124,3.22580645 33.7256773,3.22580645 L11.5160849,3.22580645 L11.5160849,1.61290323 Z M34.5482548,5.97908266 L38.3205437,9.67741935 L34.5482548,9.67741935 L34.5482548,5.97908266 Z M5.75804246,48.3870968 C5.30417895,48.3870968 4.93546497,48.0260049 4.93546497,47.5806452 C4.93546497,47.1356792 5.30417895,46.7741935 5.75804246,46.7741935 C6.21190597,46.7741935 6.58061995,47.1356792 6.58061995,47.5806452 C6.58061995,48.0260049 6.21190597,48.3870968 5.75804246,48.3870968 Z M17.2741274,48.3870968 C16.8202639,48.3870968 16.4515499,48.0260049 16.4515499,47.5806452 C16.4515499,47.1356792 16.8202639,46.7741935 17.2741274,46.7741935 C17.7279909,46.7741935 18.0967049,47.1356792 18.0967049,47.5806452 C18.0967049,48.0260049 17.7279909,48.3870968 17.2741274,48.3870968 Z M20.5644374,46.7741935 L19.5904382,46.7741935 C19.2498397,45.8377962 18.344924,45.1612903 17.2741274,45.1612903 C16.2033308,45.1612903 15.2984151,45.8377962 14.9578166,46.7741935 L8.07354988,46.7741935 C7.73375474,45.8377962 6.82883909,45.1612903 5.75804246,45.1612903 C4.68724583,45.1612903 3.78233018,45.8377962 3.44173169,46.7741935 L1.64515499,46.7741935 L1.64515499,44.0945533 L5.24071833,42.6848381 C5.37326251,42.6332535 5.48893747,42.5485918 5.57770201,42.4395161 L8.6205961,38.7096774 L10.6935074,38.7096774 L10.6935074,41.1290323 L9.04835244,41.1290323 L9.04835244,42.7419355 L13.9838174,42.7419355 L13.9838174,41.1290323 L12.3386624,41.1290323 L12.3386624,38.7096774 L14.3408835,38.7096774 L16.5692331,42.3509167 C16.6885229,42.5450479 16.8857326,42.6824754 17.1130661,42.7265782 L20.5644374,43.4022965 L20.5644374,46.7741935 Z M22.2095923,45.1612903 L22.2095923,42.7419355 C22.2095923,42.3572171 21.9324545,42.0268397 21.5480761,41.9516286 L17.7922548,41.2152691 L15.5120925,37.4889743 C15.3630806,37.246015 15.0959839,37.0967742 14.8063949,37.0967742 L8.22577494,37.0967742 L8.22577494,4.83870968 L32.9030998,4.83870968 L32.9030998,10.483871 C32.9030998,10.9292307 33.2706088,11.2903226 33.7256773,11.2903226 L39.4837197,11.2903226 L39.4837197,29.4339088 L38.4004719,28.441989 C38.0835707,28.1541393 37.594362,28.1541393 37.2774609,28.441989 L24.9387985,39.7323116 C24.6921858,39.9579448 24.6114544,40.3095861 24.7347607,40.6186996 C24.8592719,40.9266319 25.1617138,41.1290323 25.4999023,41.1290323 L27.9676348,41.1290323 L27.9676348,45.1612903 L22.2095923,45.1612903 Z M40.3062972,48.3870968 L35.3708323,48.3870968 L35.3708323,45.1612903 L40.3062972,45.1612903 L40.3062972,48.3870968 Z M46.0643397,47.5806452 C46.0643397,48.0260049 45.6956257,48.3870968 45.2417622,48.3870968 L41.9514522,48.3870968 L41.9514522,44.3548387 C41.9514522,43.9090852 41.5839432,43.5483871 41.1288747,43.5483871 L34.5482548,43.5483871 C34.0931863,43.5483871 33.7256773,43.9090852 33.7256773,44.3548387 L33.7256773,48.3870968 L30.4353673,48.3870968 C29.9815038,48.3870968 29.6127898,48.0260049 29.6127898,47.5806452 L29.6127898,41.1290323 L46.0643397,41.1290323 L46.0643397,47.5806452 Z M27.5868714,39.516129 L37.8385647,30.1356161 L48.0902581,39.516129 L27.5868714,39.516129 Z" id="Shape"></path>
                    <path d="M10.8076923,11 L30.1923077,11 C30.6391414,11 31,10.6268718 31,10.1666667 L31,6.83333333 C31,6.37353521 30.6391414,6 30.1923077,6 L10.8076923,6 C10.3608586,6 10,6.37353521 10,6.83333333 L10,10.1666667 C10,10.6268718 10.3608586,11 10.8076923,11 Z M11.6153846,7.66666667 L29.3846154,7.66666667 L29.3846154,9.33333333 L11.6153846,9.33333333 L11.6153846,7.66666667 Z" id="Shape"></path>
                    <path d="M18.7499587,23 L17.2500413,23 L17.2500413,24.6666667 L15.7501238,24.6666667 C15.447284,24.6666667 15.172641,24.8701172 15.0572908,25.1809896 C14.9408422,25.4926758 15.0052918,25.8507488 15.2198795,26.0891927 L18.4394289,29.6666667 L15.0001651,29.6666667 L15.0001651,31.3333333 L17.2500413,31.3333333 L17.2500413,33 L18.7499587,33 L18.7499587,31.3333333 L20.2498762,31.3333333 C20.552716,31.3333333 20.827359,31.1311035 20.9427092,30.8194173 C21.0591578,30.5077311 20.9947082,30.1492512 20.7801205,29.9108073 L17.5605711,26.3333333 L20.9998349,26.3333333 L20.9998349,24.6666667 L18.7499587,24.6666667 L18.7499587,23 Z" id="Path"></path>
                    <path d="M18.5,20 C13.8129639,20 10,23.5890625 10,28 C10,32.4113281 13.8129639,36 18.5,36 C23.1870361,36 27,32.4113281 27,28 C27,23.5890625 23.1870361,20 18.5,20 Z M18.5,34.4 C14.7505372,34.4 11.7,31.5289062 11.7,28 C11.7,24.4710938 14.7505372,21.6 18.5,21.6 C22.2494628,21.6 25.3,24.4710938 25.3,28 C25.3,31.5289062 22.2494628,34.4 18.5,34.4 Z" id="Shape"></path>
                    <polygon id="Path" points="10 12 38 12 38 14 10 14"></polygon>
                    <polygon id="Path" points="10 16 38 16 38 18 10 18"></polygon>
                    <polygon id="Path" points="28 19 38 19 38 21 28 21"></polygon>
                    <polygon id="Path" points="28 22 38 22 38 24 28 24"></polygon>
                    <polygon id="Path" points="28 26 38 26 38 28 28 28"></polygon>
                </g>
            </g>
        </g>
    </g>
</svg>