<?xml version="1.0" encoding="UTF-8"?>
<svg width="50px" height="50px" viewBox="0 0 50 50" version="1.1" xmlns="http://www.w3.org/2000/svg" xmlns:xlink="http://www.w3.org/1999/xlink">
    <!-- Generator: sketchtool 53 (72520) - https://sketchapp.com -->
    <title>1473A49A-DA1C-4595-AB06-4E6849E6AE3F</title>
    <desc>Created with sketchtool.</desc>
    <g id="NewContent" stroke="none" stroke-width="1" fill="none" fill-rule="evenodd">
        <g id="LandingPage-MA&amp;C-Atuação-Tab3" transform="translate(-693.000000, -1646.000000)" fill="#8B2938" fill-rule="nonzero">
            <g id="Group-6-Copy" transform="translate(678.000000, 1630.000000)">
                <g id="buy-sell-contract-icon" transform="translate(15.000000, 16.000000)">
                    <g id="001-contract">
                        <path d="M49.02343,42.1875192 L42.1878218,42.1875192 L42.1878218,21.3062992 L47.2141053,16.279685 C47.5955779,15.8985976 47.5955779,15.2802367 47.2141053,14.898768 L44.1066293,11.7913233 C43.9235224,11.6082182 43.6751837,11.5052216 43.4161637,11.5052216 C43.1571438,11.5052216 42.9088051,11.6082182 42.7256982,11.7913233 L42.1878218,12.3291942 L42.1878218,4.88292345 C42.1878218,3.57295968 41.6735967,2.34119689 40.7405147,1.41460922 C39.8127733,0.493362075 38.5867202,-0.00903229514 37.2931464,0.000122955785 L16.6013077,0.000122955785 C16.0622868,0.000122955785 15.6247378,0.437286139 15.6247378,0.976683054 C15.6247378,1.51607997 16.0622868,1.95324315 16.6013077,1.95324315 L37.300013,1.95324315 L37.3206124,1.95324315 C38.0881354,1.95324315 38.8136964,2.25384056 39.3641614,2.80048531 C39.9253076,3.35781118 40.2346819,4.09747919 40.2346819,4.88292345 L40.2346819,14.2823144 L34.0090485,20.507885 L22.8727179,20.507885 C22.3333155,20.507885 21.8961479,20.9450482 21.8961479,21.4840637 C21.8961479,22.0234605 22.3333155,22.4606238 22.8727179,22.4606238 L32.0559086,22.4606238 L29.1261988,25.3903041 L14.2369403,25.3903041 C13.697538,25.3903041 13.2603703,25.8278487 13.2603703,26.3668642 C13.2603703,26.906261 13.697538,27.3434243 14.2369403,27.3434243 L27.1734403,27.3434243 L24.2437305,30.2731046 L14.2369403,30.2731046 C13.697538,30.2731046 13.2603703,30.7102677 13.2603703,31.2496647 C13.2603703,31.7890615 13.697538,32.2262248 14.2369403,32.2262248 L22.9898299,32.2262248 L22.1395274,35.1559051 L14.2369403,35.1559051 C13.697538,35.1559051 13.2603703,35.5930682 13.2603703,36.1324652 C13.2603703,36.671862 13.697538,37.1090253 14.2369403,37.1090253 L22.8727179,37.1090253 L22.8730993,37.1090253 C22.9150613,37.1090253 22.9562603,37.1055921 22.9966964,37.1002514 C23.0066148,37.099107 23.0161516,37.0975811 23.0260698,37.0960553 C23.0626912,37.0903333 23.0985497,37.0827038 23.1336451,37.0727857 C23.1374598,37.0716413 23.1412746,37.0712598 23.1450893,37.0704968 L23.1595853,37.0663008 C23.1611112,37.0655378 23.1630185,37.0651563 23.1649258,37.0647749 L27.5236322,35.7990614 C27.6815619,35.7532851 27.8257586,35.6682177 27.9421077,35.5518696 L31.2674046,32.2262248 L37.3045906,32.2262248 C37.8439929,32.2262248 38.2811606,31.7890615 38.2811606,31.2496647 C38.2811606,30.7102677 37.8439929,30.2731046 37.3045906,30.2731046 L33.2205445,30.2731046 L40.2346819,23.2594194 L40.2346819,42.1875192 L39.2577305,42.1875192 C38.7187096,42.1875192 38.2811606,42.6250639 38.2811606,43.1640793 C38.2811606,43.7034762 38.7187096,44.1406394 39.2577305,44.1406394 L48.0468601,44.1406394 L48.0468601,45.1171995 C48.0468601,46.7327199 46.7326868,48.0468798 45.1171502,48.0468798 L16.5990188,48.0468798 C17.2131898,47.2305366 17.5778777,46.2154482 17.5778777,45.1171995 L17.5778777,44.1406394 L31.4451709,44.1406394 C31.9845732,44.1406394 32.4217409,43.7034762 32.4217409,43.1640793 C32.4217409,42.6250639 31.9845732,42.1875192 31.4451709,42.1875192 L16.6013077,42.1875192 C16.0622868,42.1875192 15.6247378,42.6250639 15.6247378,43.1640793 L15.6247378,45.1171995 C15.6247378,46.7327199 14.3105644,48.0468798 12.6950279,48.0468798 C11.0798727,48.0468798 9.7656995,46.7327199 9.7656995,45.1171995 L9.7656995,4.88330489 C9.7656995,3.78467478 9.40101166,2.7699678 8.78645922,1.9536246 L8.78912955,1.9536246 C9.32815036,1.9536246 9.7656995,1.51607997 9.7656995,0.977064499 C9.7656995,0.437667681 9.32815036,0.000504424573 8.78912955,0.000504424573 L4.88284975,0.000504424573 C2.19041593,0.000504424573 0,2.19089823 0,4.88330489 L0,6.83604365 C0,7.37544056 0.437167593,7.81260374 0.97656995,7.81260374 L7.8125596,7.81260374 L7.8125596,45.1171995 C7.8125596,47.8096062 10.0029755,50 12.6950279,50 L45.1171502,50 C47.8095841,50 50,47.8096062 50,45.1171995 L50,43.1640793 C50,42.6246824 49.5628323,42.1875192 49.02343,42.1875192 L49.02343,42.1875192 Z M43.4161637,13.8626987 L45.1427088,15.5892264 L40.5207865,20.2107208 C40.5207865,20.2111024 40.5204049,20.2111024 40.5204049,20.2114838 L30.1721968,30.5592061 L28.6325731,32.0988141 L26.9064095,30.3726679 L43.4161637,13.8626987 Z M24.3059105,34.6992868 L25.0120164,32.2670418 L25.5250971,31.7535849 L27.2516423,33.4801127 L26.7381801,33.9931882 L24.3059105,34.6992868 Z M7.8125596,5.85948355 L1.9531399,5.85948355 L1.9531399,4.88292345 C1.9531399,3.2674031 3.26731311,1.95324315 4.88284975,1.95324315 C6.49838639,1.95324315 7.8125596,3.2674031 7.8125596,4.88292345 L7.8125596,5.85948355 Z" id="Shape"></path>
                        <path d="M12.962963,1.85185185 C13.4743924,1.85185185 13.8888889,1.43735537 13.8888889,0.925925926 C13.8888889,0.414496481 13.4743924,0 12.962963,0 L12.9626013,0 C12.4511719,0 12.037037,0.414496481 12.037037,0.925925926 C12.037037,1.43735537 12.4518953,1.85185185 12.962963,1.85185185 Z" id="Path"></path>
                        <path d="M36.1111111,43.5185185 C36.1111111,43.0070891 35.6966956,42.5925926 35.185366,42.5925926 L35.1846428,42.5925926 C34.6736748,42.5925926 34.2592593,43.0070891 34.2592593,43.5185185 C34.2592593,44.029948 34.6743981,44.4444444 35.185366,44.4444444 C35.6966956,44.4444444 36.1111111,44.029948 36.1111111,43.5185185 Z" id="Path"></path>
                        <path d="M14.5951401,17.5925926 L23.3678228,17.5925926 C23.9157764,17.5925926 24.3598746,17.1431628 24.3598746,16.5895062 L24.3598746,11.8040787 C24.5338711,11.9290726 24.7342191,11.9898064 24.933017,11.9898064 C25.2376079,11.9898064 25.5383235,11.8483555 25.7328587,11.581127 C26.0576006,11.134832 25.9630457,10.5071193 25.5216601,10.1787652 L19.5693496,5.75068721 C19.2198064,5.49051167 18.7431565,5.49051167 18.3936133,5.75068721 L12.4413028,10.1787652 C11.9999173,10.5071193 11.9053623,11.134832 12.2301042,11.581127 C12.5513586,12.0227201 13.1624779,12.1202859 13.6030884,11.8040787 L13.6030884,16.5895062 C13.6030884,17.1431628 14.0471866,17.5925926 14.5951401,17.5925926 Z M18.9814815,7.80387972 L22.3757711,10.3292282 L22.3757711,15.5864198 L15.5871919,15.5864198 L15.5871919,10.3292282 L18.9814815,7.80387972 Z" id="Shape"></path>
                        <path d="M27.8439499,8.33333333 L36.9708649,8.33333333 C37.518844,8.33333333 37.962963,7.91883685 37.962963,7.40740741 C37.962963,6.89597796 37.518844,6.48148148 36.9708649,6.48148148 L27.8439499,6.48148148 C27.2959707,6.48148148 26.8518519,6.89597796 26.8518519,7.40740741 C26.8518519,7.91883685 27.2959707,8.33333333 27.8439499,8.33333333 Z" id="Path"></path>
                        <path d="M27.8439499,12.962963 L36.9708649,12.962963 C37.518844,12.962963 37.962963,12.5484665 37.962963,12.037037 C37.962963,11.5256076 37.518844,11.1111111 36.9708649,11.1111111 L27.8439499,11.1111111 C27.2959707,11.1111111 26.8518519,11.5256076 26.8518519,12.037037 C26.8518519,12.5484665 27.2959707,12.962963 27.8439499,12.962963 Z" id="Path"></path>
                        <path d="M27.8338945,17.5925926 L32.3512907,17.5925926 C32.8933322,17.5925926 33.3333333,17.1777344 33.3333333,16.6666667 C33.3333333,16.1552372 32.8933322,15.7407407 32.3512907,15.7407407 L27.8338945,15.7407407 C27.2914693,15.7407407 26.8518519,16.1552372 26.8518519,16.6666667 C26.8518519,17.1777344 27.2914693,17.5925926 27.8338945,17.5925926 Z" id="Path"></path>
                    </g>
                </g>
            </g>
        </g>
    </g>
</svg>