<?xml version="1.0" encoding="UTF-8"?>
<svg width="36px" height="36px" viewBox="0 0 36 36" version="1.1" xmlns="http://www.w3.org/2000/svg" xmlns:xlink="http://www.w3.org/1999/xlink">
    <!-- Generator: sketchtool 53 (72520) - https://sketchapp.com -->
    <title>6CF244B3-F851-4F16-8A6F-29F196C9F2C0</title>
    <desc>Created with sketchtool.</desc>
    <g id="NewContent" stroke="none" stroke-width="1" fill="none" fill-rule="evenodd">
        <g id="LandingPage-MA&amp;C-Atuação-Tab1" transform="translate(-414.000000, -1488.000000)" fill="#9A3F4B" fill-rule="nonzero">
            <g id="Tab" transform="translate(328.000000, 1478.000000)">
                <g id="tab1-active" transform="translate(66.000000, 10.000000)">
                    <g id="company-icon-active" transform="translate(20.000000, 0.000000)">
                        <path d="M6.66666667,9 L9.33333333,9 C9.70130207,9 10,8.67084103 10,8.26470588 L10,4.73529412 C10,4.32915897 9.70130207,4 9.33333333,4 L6.66666667,4 C6.29843753,4 6,4.32915897 6,4.73529412 L6,8.26470588 C6,8.67084103 6.29843753,9 6.66666667,9 Z M7.33333333,5.47058824 L8.66666667,5.47058824 L8.66666667,7.52941176 L7.33333333,7.52941176 L7.33333333,5.47058824 Z" id="Shape"></path>
                        <path d="M12.6666667,9 L15.3333333,9 C15.7013021,9 16,8.67084103 16,8.26470588 L16,4.73529412 C16,4.32915897 15.7013021,4 15.3333333,4 L12.6666667,4 C12.2984375,4 12,4.32915897 12,4.73529412 L12,8.26470588 C12,8.67084103 12.2984375,9 12.6666667,9 Z M13.3333333,5.47058824 L14.6666667,5.47058824 L14.6666667,7.52941176 L13.3333333,7.52941176 L13.3333333,5.47058824 Z" id="Shape"></path>
                        <path d="M17.6666667,9 L20.3333333,9 C20.7013021,9 21,8.67084103 21,8.26470588 L21,4.73529412 C21,4.32915897 20.7013021,4 20.3333333,4 L17.6666667,4 C17.2984375,4 17,4.32915897 17,4.73529412 L17,8.26470588 C17,8.67084103 17.2984375,9 17.6666667,9 Z M18.3333333,5.47058824 L19.6666667,5.47058824 L19.6666667,7.52941176 L18.3333333,7.52941176 L18.3333333,5.47058824 Z" id="Shape"></path>
                        <path d="M6,14.2647059 C6,14.670841 6.29843753,15 6.66666667,15 L9.33333333,15 C9.70130207,15 10,14.670841 10,14.2647059 L10,10.7352941 C10,10.329159 9.70130207,10 9.33333333,10 L6.66666667,10 C6.29843753,10 6,10.329159 6,10.7352941 L6,14.2647059 Z M7.33333333,11.4705882 L8.66666667,11.4705882 L8.66666667,13.5294118 L7.33333333,13.5294118 L7.33333333,11.4705882 Z" id="Shape"></path>
                        <path d="M12,14.2647059 C12,14.670841 12.2984375,15 12.6666667,15 L15.3333333,15 C15.7013021,15 16,14.670841 16,14.2647059 L16,10.7352941 C16,10.329159 15.7013021,10 15.3333333,10 L12.6666667,10 C12.2984375,10 12,10.329159 12,10.7352941 L12,14.2647059 Z M13.3333333,11.4705882 L14.6666667,11.4705882 L14.6666667,13.5294118 L13.3333333,13.5294118 L13.3333333,11.4705882 Z" id="Shape"></path>
                        <path d="M6,20.2647059 C6,20.670841 6.29843753,21 6.66666667,21 L9.33333333,21 C9.70130207,21 10,20.670841 10,20.2647059 L10,16.7352941 C10,16.329159 9.70130207,16 9.33333333,16 L6.66666667,16 C6.29843753,16 6,16.329159 6,16.7352941 L6,20.2647059 Z M7.33333333,17.4705882 L8.66666667,17.4705882 L8.66666667,19.5294118 L7.33333333,19.5294118 L7.33333333,17.4705882 Z" id="Shape"></path>
                        <path d="M12,20.2647059 C12,20.670841 12.2984375,21 12.6666667,21 L15.3333333,21 C15.7013021,21 16,20.670841 16,20.2647059 L16,16.7352941 C16,16.329159 15.7013021,16 15.3333333,16 L12.6666667,16 C12.2984375,16 12,16.329159 12,16.7352941 L12,20.2647059 Z M13.3333333,17.4705882 L14.6666667,17.4705882 L14.6666667,19.5294118 L13.3333333,19.5294118 L13.3333333,17.4705882 Z" id="Shape"></path>
                        <path d="M31.5,31.78125 C31.1072387,31.78125 30.7169494,31.8474426 30.3478088,31.9751587 C29.6029358,31.1888123 28.6295471,30.6856384 27.5625,30.5315551 L27.5625,27.4691162 C28.4680481,28.1651001 29.5905762,28.5641785 30.7592468,28.5641785 C33.6489258,28.5641785 36,26.2131043 36,23.3234253 C36,21.4889832 35.0238648,19.7830811 33.4739685,18.8407287 C33.5083008,18.5652465 33.5256043,18.2867432 33.5256043,18.0087891 C33.5256043,14.3330383 30.5351257,11.3425598 26.859375,11.3425598 C26.2114563,11.3425598 25.5852356,11.4356689 24.9925232,11.6089783 L24.9925232,0.703125 C24.9925232,0.314758266 24.6777649,0 24.2893982,0 L3.47689821,0 C3.08880619,0 2.77377321,0.314758266 2.77377321,0.703125 L2.77377321,13.5 C2.77377321,13.8883667 3.08880619,14.203125 3.47689821,14.203125 C3.86526487,14.203125 4.18002321,13.8883667 4.18002321,13.5 L4.18002321,1.40625 L23.5862732,1.40625 L23.5862732,12.203064 C22.8606262,12.6139527 22.2190246,13.1566773 21.6944275,13.7991028 L21.6944275,10.6875 C21.6944275,10.2991333 21.3796692,9.984375 20.9913025,9.984375 L18.1788025,9.984375 C17.7907105,9.984375 17.4756775,10.2991333 17.4756775,10.6875 L17.4756775,14.0625 C17.4756775,14.4508667 17.7907105,14.765625 18.1788025,14.765625 L20.9913025,14.765625 C21.0072326,14.765625 21.0228882,14.7642517 21.0382691,14.7631531 C20.7913513,15.2045288 20.5927734,15.6763916 20.4505005,16.171875 L18.1788025,16.171875 C17.7907105,16.171875 17.4756775,16.4866333 17.4756775,16.875 L17.4756775,20.25 C17.4756775,20.6383667 17.7907105,20.953125 18.1788025,20.953125 L18.2905883,20.953125 C17.9401245,21.6416931 17.7390747,22.4088135 17.7206726,23.203125 L8.15625,23.203125 C7.76788327,23.203125 7.453125,23.5178833 7.453125,23.90625 L7.453125,31.21875 L4.18029785,31.21875 L4.18029785,19.125 C4.18029785,18.7366333 3.86526487,18.421875 3.47717285,18.421875 C3.08880619,18.421875 2.77404785,18.7366333 2.77404785,19.125 L2.77404785,31.21875 L0.703125,31.21875 C0.314758266,31.21875 0,31.5335083 0,31.921875 L0,35.296875 C0,35.6852417 0.314758266,36 0.703125,36 L34.3125,36 C34.700592,36 35.015625,35.6852417 35.015625,35.296875 C35.015625,33.3583374 33.4385376,31.78125 31.5,31.78125 L31.5,31.78125 Z M20.2884521,13.359375 L18.8822021,13.359375 L18.8822021,11.390625 L20.2884521,11.390625 L20.2884521,13.359375 Z M18.703125,26.3751526 L18.703125,31.21875 L14.484375,31.21875 L14.484375,24.609375 L17.8788757,24.609375 C18.0420227,25.2537231 18.3257446,25.8502808 18.703125,26.3751526 Z M20.109375,27.7179566 C20.9303284,28.2521668 21.9089355,28.5641785 22.9595032,28.5641785 C23.1704407,28.5641785 23.3794555,28.5498963 23.5865479,28.5243531 L23.5865479,31.21875 L20.109375,31.21875 L20.109375,27.7179566 Z M24.9927979,28.1477966 C25.4075317,27.9720154 25.798645,27.7440491 26.15625,27.4691162 L26.15625,30.5321045 C25.7497559,30.59198 25.3597412,30.7021179 24.9927979,30.8570252 L24.9927979,28.1477966 Z M26.859375,12.7488098 C29.7597656,12.7488098 32.1193543,15.1083984 32.1193543,18.0087891 C32.1193543,18.3685913 32.0828247,18.7283936 32.0105896,19.0785828 C31.9446716,19.3963623 32.105072,19.7174377 32.3981324,19.8564148 C33.7318726,20.4881287 34.59375,21.8490601 34.59375,23.3234253 C34.59375,25.4377441 32.8735657,27.1579285 30.7592468,27.1579285 C29.477417,27.1579285 28.2694702,26.5036926 27.5625,25.4393921 L27.5625,23.56073 L30.1530762,20.9701538 C30.4277344,20.6954956 30.4277344,20.2502746 30.1530762,19.9756164 C29.878418,19.7012329 29.4334717,19.7012329 29.1588135,19.9756164 L27.5625,21.5719299 L27.5625,18.3375549 C27.5625,17.9491882 27.2477417,17.6344299 26.859375,17.6344299 C26.471283,17.6344299 26.15625,17.9491882 26.15625,18.3375549 L26.15625,20.0473023 L24.956543,18.8475952 C24.6818848,18.572937 24.2369385,18.572937 23.9622803,18.8475952 C23.6876221,19.1222535 23.6876221,19.5674744 23.9622803,19.8421326 L26.15625,22.0361023 L26.15625,23.269043 L26.15625,23.269867 L26.15625,25.4393921 C25.4492797,26.5036926 24.241333,27.1579285 22.9595032,27.1579285 C20.8451843,27.1579285 19.125,25.4377441 19.125,23.3234253 C19.125,21.8490601 19.9868774,20.4881287 21.3206176,19.8564148 C21.613678,19.7174377 21.7738037,19.3963623 21.7084351,19.0785828 C21.6362,18.7286682 21.5993957,18.3685913 21.5993957,18.0087891 C21.5993957,15.1083984 23.9589844,12.7488098 26.859375,12.7488098 L26.859375,12.7488098 Z M18.8822021,17.578125 L20.207428,17.578125 C20.1983643,17.7206726 20.1931457,17.8640442 20.1931457,18.0087891 C20.1931457,18.2870178 20.2104492,18.5652465 20.2447815,18.8407287 C19.9121704,19.0428772 19.6062012,19.2804566 19.3304443,19.546875 L18.8822021,19.546875 L18.8822021,17.578125 Z M8.859375,24.609375 L13.078125,24.609375 L13.078125,31.21875 L8.859375,31.21875 L8.859375,24.609375 Z M1.40625,32.625 L22.854309,32.625 C22.4659424,33.2050781 22.2006226,33.8735962 22.0948791,34.59375 L1.40625,34.59375 L1.40625,32.625 Z M26.859375,34.59375 L23.5220032,34.59375 C23.8471985,33.0496215 25.2199402,31.8867187 26.859375,31.8867187 C27.9420777,31.8867187 28.936615,32.3841248 29.5878296,33.2512207 C29.7979431,33.5308227 30.1816406,33.6137695 30.4881592,33.4456787 C30.7963257,33.2767639 31.1462402,33.1875 31.5,33.1875 C32.4165344,33.1875 33.198761,33.7752686 33.4888,34.59375 L26.859375,34.59375 Z" id="Shape"></path>
                        <path d="M3.5,16 C3.6314453,16 3.76054685,15.9464844 3.8535156,15.8535156 C3.94648435,15.7605469 4,15.6314453 4,15.5 C4,15.3685547 3.94648435,15.2394531 3.8535156,15.1464844 C3.76054685,15.0535156 3.6314453,15 3.5,15 C3.36855465,15 3.2394531,15.0535156 3.14648435,15.1464844 C3.0535156,15.2394531 3,15.3685547 3,15.5 C3,15.6314453 3.0535156,15.7605469 3.14648435,15.8535156 C3.23964845,15.9464844 3.36855465,16 3.5,16 Z" id="Path"></path>
                    </g>
                </g>
            </g>
        </g>
    </g>
</svg>