<?xml version="1.0" encoding="UTF-8"?>
<svg width="49px" height="49px" viewBox="0 0 49 49" version="1.1" xmlns="http://www.w3.org/2000/svg" xmlns:xlink="http://www.w3.org/1999/xlink">
    <!-- Generator: sketchtool 53 (72520) - https://sketchapp.com -->
    <title>AF6D3957-0198-44F2-A483-DE0D21CE6D0E</title>
    <desc>Created with sketchtool.</desc>
    <g id="NewContent" stroke="none" stroke-width="1" fill="none" fill-rule="evenodd">
        <g id="LandingPage-MA&amp;C-Atuação-Tab1" transform="translate(-183.000000, -1757.000000)" fill="#8B2938" fill-rule="nonzero">
            <g id="Group-6-Copy-3" transform="translate(168.000000, 1741.000000)">
                <g id="contract" transform="translate(15.000000, 16.000000)">
                    <path d="M20.5,24 C15.2613932,24 11,28.2613932 11,33.5 C11,38.7386068 15.2613932,43 20.5,43 C25.7386068,43 30,38.7386068 30,33.5 C30,28.2613932 25.7386068,24 20.5,24 Z M20.5,41.4166667 C16.1346232,41.4166667 12.5833333,37.8653768 12.5833333,33.5 C12.5833333,29.1346232 16.1346232,25.5833333 20.5,25.5833333 C24.8653768,25.5833333 28.4166667,29.1346232 28.4166667,33.5 C28.4166667,37.8653768 24.8653768,41.4166667 20.5,41.4166667 Z" id="Shape"></path>
                    <path d="M45.0483871,29.2419355 L39.516129,29.2419355 L39.516129,8.36630544 L31.1498236,0 L0,0 L0,49 L39.516129,49 L39.516129,37.1451613 L45.0483871,37.1451613 C47.2271768,37.1451613 49,35.3723381 49,33.1935484 C49,31.0147586 47.2271768,29.2419355 45.0483871,29.2419355 Z M31.6129032,2.69821069 L36.8179183,7.90322581 L31.6129032,7.90322581 L31.6129032,2.69821069 Z M37.9354839,47.4193548 L1.58064516,47.4193548 L1.58064516,1.58064516 L30.0322581,1.58064516 L30.0322581,9.48387097 L37.9354839,9.48387097 L37.9354839,29.2419355 L36.3548387,29.2419355 L36.3548387,27.6612903 L34.7741935,27.6612903 L34.7741935,29.2419355 L32.552569,29.2419355 C30.8881835,24.2005418 26.1400737,20.5483871 20.5483871,20.5483871 C13.5763372,20.5483871 7.90322581,26.2214985 7.90322581,33.1935484 C7.90322581,40.1655982 13.5763372,45.8387097 20.5483871,45.8387097 C26.1400737,45.8387097 30.8881835,42.1865549 32.552569,37.1451613 L34.7741935,37.1451613 L34.7741935,38.7258065 L36.3548387,38.7258065 L36.3548387,37.1451613 L37.9354839,37.1451613 L37.9354839,47.4193548 Z M32.9627803,30.8225806 L34.7741935,30.8225806 L34.7741935,35.5645161 L32.9627803,35.5645161 C33.1098082,34.7954181 33.1935484,34.0043236 33.1935484,33.1935484 C33.1935484,32.3827731 33.1098082,31.5916787 32.9627803,30.8225806 Z M31.6129032,33.1935484 C31.6129032,39.2950085 26.6498472,44.2580645 20.5483871,44.2580645 C14.446927,44.2580645 9.48387097,39.2950085 9.48387097,33.1935484 C9.48387097,27.0920882 14.446927,22.1290323 20.5483871,22.1290323 C26.6498472,22.1290323 31.6129032,27.0920882 31.6129032,33.1935484 Z M45.0483871,35.5645161 L36.3548387,35.5645161 L36.3548387,30.8225806 L45.0483871,30.8225806 C46.3554294,30.8225806 47.4193548,31.8865061 47.4193548,33.1935484 C47.4193548,34.5005907 46.3554294,35.5645161 45.0483871,35.5645161 Z" id="Shape"></path>
                    <polygon id="Path" points="19 33 21 33 21 35 19 35"></polygon>
                    <polygon id="Path" points="22 33 24 33 24 35 22 35"></polygon>
                    <polygon id="Path" points="17 33 19 33 19 35 17 35"></polygon>
                    <path d="M5.67524194,17.4081226 L5.67524194,19 L21.3247581,19 L21.3247581,17.4081226 L19.7598064,17.4081226 L19.7598064,7.69285135 L23.344371,9.375671 L24,7.92992298 L13.5,3 L3,7.92992298 L3.65562904,9.375671 L7.24019355,7.69285135 L7.24019355,17.4081226 L5.67524194,17.4081226 Z M15.0649516,17.4081226 L11.9350484,17.4081226 L11.9350484,12.6324905 L15.0649516,12.6324905 L15.0649516,17.4081226 Z M8.80514516,6.95831813 L13.5,4.75432967 L18.1948548,6.95831813 L18.1948548,17.4081226 L16.6299032,17.4081226 L16.6299032,11.0406131 L10.3700968,11.0406131 L10.3700968,17.4081226 L8.80514516,17.4081226 L8.80514516,6.95831813 Z" id="Shape"></path>
                    <polygon id="Path" points="26 11 37 11 37 13 26 13"></polygon>
                    <polygon id="Path" points="26 14 37 14 37 16 26 16"></polygon>
                    <polygon id="Path" points="26 17 33 17 33 19 26 19"></polygon>
                    <polygon id="Path" points="35 17 37 17 37 19 35 19"></polygon>
                </g>
            </g>
        </g>
    </g>
</svg>