<?xml version="1.0" encoding="UTF-8"?>
<svg width="37px" height="49px" viewBox="0 0 37 49" version="1.1" xmlns="http://www.w3.org/2000/svg" xmlns:xlink="http://www.w3.org/1999/xlink">
    <!-- Generator: sketchtool 53 (72520) - https://sketchapp.com -->
    <title>643AE722-4648-46EC-BE43-A434923C66E5</title>
    <desc>Created with sketchtool.</desc>
    <g id="NewContent" stroke="none" stroke-width="1" fill="none" fill-rule="evenodd">
        <g id="LandingPage-MA&amp;C-Atuação-Tab1" transform="translate(-699.000000, -1646.000000)" fill="#8B2938" fill-rule="nonzero">
            <g id="Group-6-Copy" transform="translate(678.000000, 1630.000000)">
                <g id="contract-(1)-2" transform="translate(21.000000, 16.000000)">
                    <g id="contract-(1)">
                        <path d="M36.2291667,0 L0.770833333,0 C0.345333333,0 0,0.353274194 0,0.790322581 L0,48.2096774 C0,48.6467258 0.345333333,49 0.770833333,49 L36.2291667,49 C36.6546667,49 37,48.6467258 37,48.2096774 L37,0.790322581 C37,0.353274194 36.6546667,0 36.2291667,0 Z M35.4583333,47.4193548 L1.54166667,47.4193548 L1.54166667,1.58064516 L35.4583333,1.58064516 L35.4583333,47.4193548 Z" id="Shape"></path>
                        <path d="M9.84042553,34.8264463 C12.0108298,34.8264463 13.7765957,33.0098017 13.7765957,30.7768595 C13.7765957,28.5439174 12.0108298,26.7272727 9.84042553,26.7272727 C7.67002128,26.7272727 5.90425532,28.5439174 5.90425532,30.7768595 C5.90425532,33.0098017 7.67002128,34.8264463 9.84042553,34.8264463 Z M9.84042553,28.3471074 C11.1425106,28.3471074 12.2021277,29.4372562 12.2021277,30.7768595 C12.2021277,32.1164628 11.1425106,33.2066116 9.84042553,33.2066116 C8.53834043,33.2066116 7.4787234,32.1164628 7.4787234,30.7768595 C7.4787234,29.4372562 8.53834043,28.3471074 9.84042553,28.3471074 Z" id="Shape"></path>
                        <path d="M4.67966903,44.9647309 C4.67966903,45.2860923 4.86641844,45.5772267 5.15190012,45.6997259 C5.43814716,45.8230205 5.76648936,45.7546119 5.98614953,45.5271134 L10.037234,41.316801 L14.0883186,45.5271134 C14.2345035,45.6790442 14.4304374,45.76018 14.6294326,45.76018 C14.7281649,45.76018 14.8276625,45.7410893 14.922568,45.6997259 C15.2080496,45.5772267 15.3947991,45.2860923 15.3947991,44.9647309 L15.3947991,35.1361609 C16.3499764,33.907192 16.9255319,32.3457253 16.9255319,30.6466458 C16.9255319,26.6988316 13.8349823,23.4876033 10.037234,23.4876033 C6.23948582,23.4876033 3.14893617,26.6988316 3.14893617,30.6466458 C3.14893617,32.3465207 3.72449173,33.907192 4.67966903,35.1361609 L4.67966903,44.9647309 Z M10.5783481,39.6296533 C10.2790898,39.3186327 9.79537825,39.3186327 9.49611998,39.6296533 L6.21040189,43.0445166 L6.21040189,36.5950147 C7.30564125,37.3586459 8.62207151,37.8056883 10.037234,37.8056883 C11.4523966,37.8056883 12.7688268,37.3586459 13.8640662,36.5950147 L13.8640662,43.0445166 L10.5783481,39.6296533 Z M10.037234,25.0785016 C12.9915485,25.0785016 15.3947991,27.5770075 15.3947991,30.6466458 C15.3947991,33.7162842 12.9915485,36.21479 10.037234,36.21479 C7.08291962,36.21479 4.67966903,33.7162842 4.67966903,30.6466458 C4.67966903,27.5770075 7.08291962,25.0785016 10.037234,25.0785016 Z" id="Shape"></path>
                        <polygon id="Path" points="18.5 33.2066116 33.8510638 33.2066116 33.8510638 34.8264463 18.5 34.8264463"></polygon>
                        <polygon id="Path" points="18.5 36.446281 33.8510638 36.446281 33.8510638 38.0661157 18.5 38.0661157"></polygon>
                        <polygon id="Path" points="18.5 29.9669421 33.8510638 29.9669421 33.8510638 31.5867769 18.5 31.5867769"></polygon>
                        <polygon id="Path" points="18.5 26.7272727 33.8510638 26.7272727 33.8510638 28.3471074 18.5 28.3471074"></polygon>
                        <polygon id="Path" points="18.5 23.892562 33.8510638 23.892562 33.8510638 25.5123967 18.5 25.5123967"></polygon>
                        <path d="M3.91648936,22.2727273 L33.0835106,22.2727273 C33.5072,22.2727273 33.8510638,21.9106942 33.8510638,21.4628099 L33.8510638,18.2231405 C33.8510638,17.7752562 33.5072,17.4132231 33.0835106,17.4132231 L3.91648936,17.4132231 C3.4928,17.4132231 3.14893617,17.7752562 3.14893617,18.2231405 L3.14893617,21.4628099 C3.14893617,21.9106942 3.4928,22.2727273 3.91648936,22.2727273 Z M4.68404255,19.0330579 L32.3159574,19.0330579 L32.3159574,20.6528926 L4.68404255,20.6528926 L4.68404255,19.0330579 Z" id="Shape"></path>
                        <g id="close" transform="translate(12.595745, 3.644628)">
                            <path d="M9.86019478,0 L1.16108181,0 C0.519786626,0 2.89213098e-14,0.556260103 2.89213098e-14,1.23719919 L2.89213098e-14,10.5066025 C2.89213098e-14,11.1899392 0.522036784,11.7438017 1.16108181,11.7438017 L9.86019478,11.7438017 C10.50149,11.7438017 11.0212766,11.1875416 11.0212766,10.5066025 L11.0212766,1.23719919 C11.0212766,0.556260103 10.4992398,0 9.86019478,0 Z M9.5106383,9.3800678 C9.5106383,9.65048522 9.28922269,9.87190083 9.01880527,9.87190083 L2.00247133,9.87190083 C1.73205391,9.87190083 1.5106383,9.65048522 1.5106383,9.3800678 L1.5106383,2.36373386 C1.5106383,2.09331643 1.73205391,1.87190083 2.00247133,1.87190083 L9.01880527,1.87190083 C9.28922269,1.87190083 9.5106383,2.09331643 9.5106383,2.36373386 L9.5106383,9.3800678 Z" id="Shape"></path>
                            <path d="M7.41295192,3.76208558 C7.28955861,3.63853346 7.09161516,3.63853346 6.96822185,3.76208558 L5.5080676,5.22411904 L4.04791336,3.76208558 C3.92452005,3.63853346 3.7265766,3.63853346 3.60318329,3.76208558 C3.47978997,3.8856377 3.47978997,4.0838359 3.60318329,4.20738803 L5.06333753,5.66942149 L3.60318329,7.13145495 C3.47978997,7.25500707 3.47978997,7.45320527 3.60318329,7.57675739 C3.66487994,7.63853346 3.74457146,7.66942149 3.82683367,7.66942149 C3.90909588,7.66942149 3.9887874,7.63853346 4.05048406,7.57675739 L5.5106383,6.11472393 L6.97079254,7.57675739 C7.0324892,7.63853346 7.11218071,7.66942149 7.19444293,7.66942149 C7.27670514,7.66942149 7.35639665,7.63853346 7.41809331,7.57675739 C7.54148663,7.45320527 7.54148663,7.25500707 7.41809331,7.13145495 L5.95279768,5.66942149 L7.41295192,4.20738803 C7.53634524,4.0838359 7.53634524,3.8856377 7.41295192,3.76208558 Z" id="Path" stroke="#8B2938"></path>
                        </g>
                        <path d="M33.0835106,39.2809917 L19.2675532,39.2809917 C18.8438638,39.2809917 18.5,39.6430248 18.5,40.0909091 L18.5,44.9504132 C18.5,45.3982975 18.8438638,45.7603306 19.2675532,45.7603306 L33.0835106,45.7603306 C33.5072,45.7603306 33.8510638,45.3982975 33.8510638,44.9504132 L33.8510638,40.0909091 C33.8510638,39.6430248 33.5072,39.2809917 33.0835106,39.2809917 Z M32.3159574,44.1404959 L20.0351064,44.1404959 L20.0351064,40.9008264 L32.3159574,40.9008264 L32.3159574,44.1404959 Z" id="Shape"></path>
                    </g>
                </g>
            </g>
        </g>
    </g>
</svg>