<?xml version="1.0" encoding="UTF-8"?>
<svg width="37px" height="49px" viewBox="0 0 37 49" version="1.1" xmlns="http://www.w3.org/2000/svg" xmlns:xlink="http://www.w3.org/1999/xlink">
    <!-- Generator: sketchtool 53 (72520) - https://sketchapp.com -->
    <title>70B40515-C323-4EEC-92DD-01A6DB161CC2</title>
    <desc>Created with sketchtool.</desc>
    <g id="NewContent" stroke="none" stroke-width="1" fill="none" fill-rule="evenodd">
        <g id="LandingPage-MA&amp;C-Atuação-Tab1" transform="translate(-693.000000, -1868.000000)" fill="#9A3F4B" fill-rule="nonzero">
            <g id="Group-6-Copy-6" transform="translate(678.000000, 1852.000000)">
                <g id="icon-contract" transform="translate(15.000000, 16.000000)">
                    <path d="M25.5174043,0 L0,0 L0,49 L37,49 L37,11.9119 L25.5174043,0 Z M25.9787234,2.7881 L34.312383,11.4333333 L25.9787234,11.4333333 L25.9787234,2.7881 Z M1.57446809,47.3666667 L1.57446809,1.63333333 L24.4042553,1.63333333 L24.4042553,13.0666667 L35.4255319,13.0666667 L35.4255319,47.3666667 L1.57446809,47.3666667 Z" id="Shape"></path>
                    <path d="M8.81818182,14 L16.1818182,14 C16.6342727,14 17,13.3295 17,12.5 C17,11.6705 16.6342727,11 16.1818182,11 L8.81818182,11 C8.36572727,11 8,11.6705 8,12.5 C8,13.3295 8.36572727,14 8.81818182,14 Z" id="Path"></path>
                    <path d="M8.71428571,21 L12.2857143,21 C12.6807143,21 13,20.3295 13,19.5 C13,18.6705 12.6807143,18 12.2857143,18 L8.71428571,18 C8.31928571,18 8,18.6705 8,19.5 C8,20.3295 8.31928571,21 8.71428571,21 Z" id="Path"></path>
                    <path d="M18.8888889,21 L25.1111111,21 C25.6026667,21 26,20.3295 26,19.5 C26,18.6705 25.6026667,18 25.1111111,18 L18.8888889,18 C18.3973333,18 18,18.6705 18,19.5 C18,20.3295 18.3973333,21 18.8888889,21 Z" id="Path"></path>
                    <path d="M14.29,18.4323635 C14.1,18.7042309 14,19.0954179 14,19.4896256 C14,19.882323 14.1,20.2750203 14.29,20.5619914 C14.479,20.8338588 14.74,21 15,21 C15.26,21 15.52,20.8474522 15.71,20.5468877 C15.89,20.2735099 16,19.882323 16,19.4896256 C16,19.0954179 15.89,18.7027206 15.71,18.4172598 C15.33,17.8584213 14.66,17.8584213 14.29,18.4323635 Z" id="Path"></path>
                    <path d="M29,21 C29.26,21 29.52,20.8339623 29.71,20.5622642 C29.89,20.2754717 30,19.8830189 30,19.490566 C30,19.0966038 29.89,18.7041509 29.71,18.4188679 C29.33,17.8603774 28.67,17.8603774 28.29,18.4188679 C28.109,18.7041509 28,19.0966038 28,19.490566 C28,19.8830189 28.109,20.2754717 28.29,20.5622642 C28.479,20.8339623 28.74,21 29,21 Z" id="Path"></path>
                    <path d="M18.1111111,23 L11.8888889,23 C11.3973333,23 11,23.6705 11,24.5 C11,25.3295 11.3973333,26 11.8888889,26 L18.1111111,26 C18.6026667,26 19,25.3295 19,24.5 C19,23.6705 18.6026667,23 18.1111111,23 Z" id="Path"></path>
                    <path d="M8,26 C8.26,26 8.52,25.8339623 8.71,25.5622642 C8.899,25.2754717 9,24.8830189 9,24.490566 C9,24.0966038 8.899,23.7041509 8.71,23.4188679 C8.33,22.8603774 7.67,22.8603774 7.29,23.4188679 C7.1,23.7041509 7,24.0815094 7,24.490566 C7,24.8830189 7.109,25.2754717 7.29,25.5622642 C7.479,25.8339623 7.74,26 8,26 Z" id="Path"></path>
                    <path d="M10.0185724,32.1127496 C8.5959762,33.1616928 8.11723036,35.1684868 7.94249138,37.2488909 C7.67356224,36.9296073 7.4046331,36.6112438 7.13570396,36.2919602 C6.49910841,35.5365371 5.57539528,36.8311538 6.21718752,37.593938 C6.82455165,38.3143963 7.43256535,39.0357748 8.03992948,39.7571533 C8.46735792,40.2641425 9.12928737,39.9439388 9.14877499,39.1066245 C9.19619486,37.1136324 9.26245276,34.7433888 10.674006,33.7027267 C11.4158346,33.1552519 10.7597515,31.566195 10.0185724,32.1127496 Z" id="Path"></path>
                    <path d="M16.3733098,36.4638017 C15.0849049,36.8330803 13.618821,38.8600861 12.7118211,36.5857442 C12.1825053,35.2581819 10.576883,36.4223873 11.1052685,37.7464983 C11.586211,38.9532685 12.500653,39.7988129 13.5881226,39.9690722 C14.1406948,40.0553522 14.6402424,39.9587186 15.1583952,39.7090817 C15.53887,39.526168 16.9603016,38.2043577 17.2672861,38.8842445 C17.8514871,40.1772947 19.4589699,39.0176909 18.8738387,37.7234903 C18.3742911,36.616805 17.3631025,36.1796528 16.3733098,36.4638017 Z" id="Path"></path>
                    <path d="M31.635,28.2720138 C31.4537778,28.2048286 31.3736667,28.0623636 31.3417778,27.9830365 C31.3106667,27.9037094 31.2694444,27.7434363 31.3526667,27.5621173 C31.7298889,26.734849 31.572,25.7821145 30.9497778,25.1337369 C30.3267778,24.4869783 29.4105556,24.3218484 28.6172222,24.7144365 C28.4414444,24.8010488 28.2874444,24.7581474 28.212,24.725769 C28.135,24.6925811 27.9988889,24.6092067 27.9343333,24.4206025 C27.6395556,23.5569086 26.8804444,23 26,23 C25.1195556,23 24.3604444,23.5569086 24.0656667,24.4206025 C24.0011111,24.6092067 23.8642222,24.6925811 23.788,24.725769 C23.7125556,24.7581474 23.5577778,24.8018582 23.3835556,24.7144365 C22.5894444,24.3234673 21.674,24.4861688 21.0502222,25.1337369 C20.428,25.7821145 20.2701111,26.734849 20.6473333,27.5613078 C20.7297778,27.7434363 20.6893333,27.9037094 20.6582222,27.9830365 C20.6263333,28.0631731 20.5462222,28.2048286 20.365,28.2720138 C19.5351111,28.5787992 19,29.3688323 19,30.2851411 C19,31.20145 19.5351111,31.9914831 20.365,32.2982685 C20.5462222,32.3654536 20.6263333,32.5079186 20.6582222,32.5872457 C20.6893333,32.6665728 20.7305556,32.8268459 20.6473333,33.008165 C20.2701111,33.8354332 20.428,34.7881678 21.0502222,35.4365454 C21.3512222,35.748997 21.7206667,35.9465052 22.1111111,36.0258323 L22.1111111,46 L26,41.9526994 L29.8888889,46 L29.8888889,36.0250229 C30.2793333,35.9465052 30.6495556,35.7498064 30.9497778,35.4365454 C31.572,34.7881678 31.7298889,33.8354332 31.3526667,33.0089744 C31.2702222,32.8268459 31.3106667,32.6665728 31.3417778,32.5872457 C31.3736667,32.5071092 31.4537778,32.3654536 31.635,32.2982685 C32.4648889,31.9914831 33,31.20145 33,30.2851411 C33,29.3688323 32.4648889,28.5787992 31.635,28.2720138 Z M26,39.6635461 L23.6666667,42.0919265 L23.6666667,35.8121349 C23.6736667,35.8129443 23.6806667,35.8137538 23.6868889,35.8153727 C23.7257778,35.8234673 23.7631111,35.8331808 23.788,35.8445133 C23.8261111,35.8615119 23.8797778,35.8906525 23.9311111,35.9384106 C23.9832222,35.9869783 24.0337778,36.0549729 24.0656667,36.1496797 C24.3604444,37.0133737 25.1195556,37.5702823 26,37.5702823 C26.8804444,37.5702823 27.6395556,37.0133737 27.9343333,36.1496797 C27.9662222,36.0549729 28.0167778,35.9869783 28.0688889,35.9384106 C28.121,35.889843 28.1738889,35.8607025 28.212,35.8445133 C28.2368889,35.8339903 28.2734444,35.8234673 28.3123333,35.8153727 C28.3185556,35.8145632 28.3255556,35.8129443 28.3325556,35.8121349 L28.3325556,42.0911171 L26,39.6635461 Z M31.1138889,30.7732456 C30.5678889,30.9748012 30.1268889,31.4102907 29.9052222,31.9680087 C29.6827778,32.5257268 29.6975556,33.1587246 29.9472222,33.7051102 C30.0833333,34.002182 29.9246667,34.21507 29.8492222,34.2927782 C29.7877778,34.3583445 29.6306667,34.4740973 29.4128889,34.4303864 L29.2417778,34.3745337 C29.171,34.3413458 29.0963333,34.3235377 29.0232222,34.3000633 C28.9687778,34.2822552 28.9158889,34.2579714 28.8606667,34.2442106 C28.7844444,34.2264025 28.7058889,34.2215457 28.6281111,34.2126417 C28.5651111,34.2053565 28.5036667,34.1915957 28.4406667,34.1899768 C28.3652222,34.1883579 28.2905556,34.2013092 28.2158889,34.2077849 C28.1513333,34.2142606 28.086,34.2126417 28.0214444,34.225593 C27.8837778,34.2523052 27.7484444,34.2935877 27.617,34.3502499 C27.617,34.3502499 27.6162222,34.3502499 27.6154444,34.3510593 L27.6154444,34.3510593 C27.5812222,34.3656296 27.5524444,34.389104 27.519,34.4052932 C27.4225556,34.4538608 27.3253333,34.5016189 27.2374444,34.5647568 C27.1324444,34.6400366 27.0367778,34.7290772 26.9473333,34.8229746 C26.9372222,34.8334976 26.924,34.8415922 26.9138889,34.8529246 C26.7178889,35.0674315 26.5646667,35.3248399 26.4674444,35.6089604 C26.3632222,35.9181741 26.1057778,35.951362 26,35.951362 C25.8942222,35.951362 25.6367778,35.9181741 25.531,35.6073415 C25.4337778,35.3224115 25.2805556,35.0658126 25.0845556,34.8513057 C25.0767778,34.8424016 25.0666667,34.8367354 25.0581111,34.8278314 C24.9663333,34.7306961 24.8683333,34.6408461 24.7602222,34.5631379 C24.6762222,34.5024284 24.5821111,34.4570986 24.4895556,34.4101499 C24.453,34.3915323 24.4203333,34.3656296 24.3822222,34.3494404 L24.3822222,34.3494404 C24.3814444,34.3494404 24.3814444,34.348631 24.3814444,34.348631 C24.3651111,34.3413458 24.348,34.3397269 24.3316667,34.3332512 C24.2181111,34.2879214 24.103,34.2498768 23.9855556,34.2264025 C23.8906667,34.2069754 23.7965556,34.2029281 23.7016667,34.1972619 C23.6666667,34.195643 23.6316667,34.1867389 23.5966667,34.1867389 C23.5943333,34.1867389 23.5927778,34.1875484 23.5904444,34.1875484 C23.2995556,34.1867389 23.0172222,34.2458295 22.7761111,34.368058 L22.5995556,34.4255297 C22.3763333,34.4781446 22.2137778,34.3583445 22.15,34.2911593 C22.0745556,34.2134511 21.9158889,34.0013726 22.052,33.7026818 C22.3008889,33.1571057 22.3164444,32.5249173 22.094,31.9663898 C21.8723333,31.4094812 21.4313333,30.9731822 20.8853333,30.7716267 C20.5874444,30.663159 20.5555556,30.3952277 20.5555556,30.2851411 C20.5555556,30.1750546 20.5874444,29.9071232 20.8861111,29.7970367 C21.4321111,29.5954811 21.8731111,29.1599916 22.0947778,28.6022735 C22.3172222,28.0445555 22.3024444,27.4115577 22.0527778,26.8651721 C21.9166667,26.5681002 22.0753333,26.3552122 22.1507778,26.277504 C22.2254444,26.1989864 22.4284444,26.0354755 22.7162222,26.1755121 C23.2396667,26.4345393 23.8478889,26.4523474 24.3845556,26.2192229 C24.9196667,25.9885268 25.3388889,25.5295629 25.5325556,24.9613219 C25.6367778,24.6521081 25.8942222,24.6189203 26,24.6189203 C26.1057778,24.6189203 26.3632222,24.6521081 26.469,24.9629408 C26.6634444,25.5311818 27.0811111,25.9901457 27.617,26.2208418 C28.1521111,26.4539664 28.7611111,26.4369677 29.2861111,26.177131 C29.5707778,26.0338565 29.7768889,26.2006053 29.8507778,26.279123 C29.9262222,26.3568311 30.0848889,26.5689097 29.9487778,26.8676005 C29.6998889,27.4131766 29.6843333,28.045365 29.9067778,28.6038924 C30.1284444,29.160801 30.5694444,29.5971 31.1154444,29.7986556 C31.4125556,29.9071232 31.4444444,30.1750546 31.4444444,30.2851411 C31.4444444,30.3952277 31.4125556,30.663159 31.1138889,30.7732456 Z" id="Shape"></path>
                </g>
            </g>
        </g>
    </g>
</svg>