<?xml version="1.0" encoding="UTF-8"?>
<svg width="54px" height="43px" viewBox="0 0 54 43" version="1.1" xmlns="http://www.w3.org/2000/svg" xmlns:xlink="http://www.w3.org/1999/xlink">
    <!-- Generator: sketchtool 53 (72520) - https://sketchapp.com -->
    <title>7B90E794-A223-4A7F-8FB3-958CA5B9FADC</title>
    <desc>Created with sketchtool.</desc>
    <g id="NewContent" stroke="none" stroke-width="1" fill="none" fill-rule="evenodd">
        <g id="LandingPage-MA&amp;C-Atuação-Tab3" transform="translate(-183.000000, -1760.000000)" fill="#8B2938" fill-rule="nonzero">
            <g id="Group-6-Copy-3" transform="translate(168.000000, 1741.000000)">
                <g id="exit-door" transform="translate(15.000000, 19.000000)">
                    <polygon id="Path" points="24 6 26 6 26 13 24 13"></polygon>
                    <polygon id="Path" points="24 15 26 15 26 17 24 17"></polygon>
                    <polygon id="Path" points="33 20 35 20 35 27 33 27"></polygon>
                    <path d="M16,21.5 L8.30599983,14 L8.30599983,18.3625797 L0,18.3625797 L0,24.7386274 L8.30599983,24.7386274 L8.30599983,29 L16,21.5 Z M1.55737497,23.2205208 L1.55737497,19.8806863 L9.8633748,19.8806863 L9.8633748,17.6648042 L13.7977744,21.5 L9.8633748,25.3351958 L9.8633748,23.2205208 L1.55737497,23.2205208 Z" id="Shape"></path>
                    <path d="M48.015,41.4457831 L48.015,0 L17.88,0 L17.88,41.4457831 L12,41.4457831 L12,43 L54,43 L54,41.4457831 L48.015,41.4457831 Z M19.455,1.55421687 L46.44,1.55421687 L46.44,41.4457831 L44.655,41.4457831 L44.655,3.31566265 L21.24,3.31566265 L21.24,31.3951807 L22.815,31.3951807 L22.815,4.86987952 L40.3700976,4.86987952 L30.48,9.34837159 L30.48,36.8636766 L40.3700976,41.4457831 L22.815,41.4457831 L22.815,33.053012 L21.24,33.053012 L21.24,41.4457831 L19.455,41.4457831 L19.455,1.55421687 Z M43.08,40.9507812 L32.055,35.8736728 L32.055,10.3383754 L43.08,5.26126697 L43.08,40.9507812 Z" id="Shape"></path>
                </g>
            </g>
        </g>
    </g>
</svg>