<?xml version="1.0" encoding="UTF-8"?>
<svg width="21px" height="21px" viewBox="0 0 21 21" version="1.1" xmlns="http://www.w3.org/2000/svg" xmlns:xlink="http://www.w3.org/1999/xlink">
    <!-- Generator: Sketch 53 (72520) - https://sketchapp.com -->
    <title>facebook_icon</title>
    <desc>Created with Sketch.</desc>
    <g id="Page-1" stroke="none" stroke-width="1" fill="none" fill-rule="evenodd">
        <g id="facebook_icon" fill="#CEB983" fill-rule="nonzero">
            <path d="M19.753082,0.000344262295 L1.15396721,0.000344262295 C0.517081967,0.000344262295 0,0.516393443 0,1.15431148 L0,19.7534262 C0,20.3913443 0.517081967,20.908082 1.15396721,20.908082 L11.1671803,20.908082 L11.1671803,12.811377 L8.44268852,12.811377 L8.44268852,9.65552459 L11.1671803,9.65552459 L11.1671803,7.32831148 C11.1671803,4.6282623 12.8158525,3.15722951 15.225,3.15722951 C16.38,3.15722951 17.3704426,3.24363934 17.6592787,3.28116393 L17.6592787,6.10342623 L15.9882295,6.10411475 C14.6783115,6.10411475 14.425623,6.72688525 14.425623,7.64021311 L14.425623,9.6544918 L17.5508361,9.6544918 L17.1421967,12.81 L14.4252787,12.81 L14.4252787,20.9070492 L19.7527377,20.9070492 C20.3903115,20.9070492 20.9077377,20.389623 20.9077377,19.7534262 L20.9077377,1.15362295 C20.9073934,0.516393443 20.3906557,0.000344262295 19.753082,0.000344262295 Z" id="Path"></path>
        </g>
    </g>
</svg>