<?xml version="1.0" encoding="UTF-8"?>
<svg width="51px" height="51px" viewBox="0 0 51 51" version="1.1" xmlns="http://www.w3.org/2000/svg" xmlns:xlink="http://www.w3.org/1999/xlink">
    <!-- Generator: sketchtool 53 (72520) - https://sketchapp.com -->
    <title>3F11D631-2A1E-418C-907A-DBD9B32D6EA0</title>
    <desc>Created with sketchtool.</desc>
    <g id="NewContent" stroke="none" stroke-width="1" fill="none" fill-rule="evenodd">
        <g id="LandingPage-MA&amp;C-Atuação-Tab2" transform="translate(-693.000000, -1756.000000)" fill="#9A3F4B" fill-rule="nonzero">
            <g id="Group-6-Copy-4" transform="translate(678.000000, 1741.000000)">
                <g id="006-family" transform="translate(15.000000, 15.000000)">
                    <path d="M29.215739,41.5125 C29.8264974,40.80625 30.1625977,39.9179688 30.1666667,39 C30.1666667,36.790625 28.3010254,35 26,35 C23.6985677,35 21.8333333,36.790625 21.8333333,39 C21.8374024,39.9179688 22.1735026,40.80625 22.784261,41.5125 C21.7287598,41.8136719 21.0040691,42.7429688 21,43.8 L21,50.2 C21,50.6417969 21.3731283,51 21.8333333,51 C22.2935384,51 22.6666667,50.6417969 22.6666667,50.2 L22.6666667,43.8 C22.6666667,43.3582032 23.039795,43 23.5,43 L28.5,43 C28.9602051,43 29.3333333,43.3582032 29.3333333,43.8 L29.3333333,50.2 C29.3333333,50.6417969 29.7064617,51 30.1666667,51 C30.6268718,51 31,50.6417969 31,50.2 L31,43.8 C30.995931,42.7429688 30.2708333,41.8136719 29.215739,41.5125 Z M26,36.6 C27.3806152,36.6 28.5,37.6742188 28.5,39 C28.5,40.3253907 27.3806152,41.4 26,41.4 C24.6193848,41.4 23.5,40.3253907 23.5,39 C23.5,37.6742188 24.6193848,36.6 26,36.6 L26,36.6 Z" id="Shape"></path>
                    <path d="M47.7148881,30.2039474 C49.7132014,29.2343751 50.9916105,27.1681744 51,24.8947368 L51,23.2105263 C50.9972035,20.886102 49.167081,19.0024672 46.9090909,19 L34.6363636,19 C33.7326883,19 33,19.7537007 33,20.6842105 L33,24.8947368 C33.0083896,27.1681744 34.2867987,29.2343751 36.2851119,30.2039474 C36.3462358,31.698602 36.9594727,33.1126645 37.998979,34.1578947 L37.0909091,34.1578947 C34.8325196,34.1603619 33.0027965,36.0439967 33,38.3684211 L33,50.1578947 C33,50.6229441 33.3663442,51 33.8181818,51 C34.2700196,51 34.6363636,50.6229441 34.6363636,50.1578947 L34.6363636,43.4210526 L36.2727273,43.4210526 L36.2727273,50.1578947 C36.2727273,50.6229441 36.6390715,51 37.0909091,51 C37.5427468,51 37.9090909,50.6229441 37.9090909,50.1578947 L37.9090909,42.5789474 C37.9090909,42.1138981 37.5427468,41.7368421 37.0909091,41.7368421 L34.6363636,41.7368421 L34.6363636,38.3684211 C34.6363636,36.9728619 35.735396,35.8421053 37.0909091,35.8421053 L38.7272727,35.8421053 C38.7272727,37.7023027 40.1922497,39.2105263 42,39.2105263 C43.8073509,39.2105263 45.2727273,37.7023027 45.2727273,35.8421053 L46.9090909,35.8421053 C48.264604,35.8421053 49.3636364,36.9728619 49.3636364,38.3684211 L49.3636364,41.7368421 L46.9090909,41.7368421 C46.4572533,41.7368421 46.0909091,42.1138981 46.0909091,42.5789474 L46.0909091,50.1578947 C46.0909091,50.6229441 46.4572533,51 46.9090909,51 C47.3609286,51 47.7272727,50.6229441 47.7272727,50.1578947 L47.7272727,43.4210526 L49.3636364,43.4210526 L49.3636364,50.1578947 C49.3636364,50.6229441 49.7299805,51 50.1818182,51 C50.6336559,51 51,50.6229441 51,50.1578947 L51,38.3684211 C50.9972035,36.0439967 49.167081,34.1603619 46.9090909,34.1578947 L45.9998224,34.1578947 C47.0401278,33.1126645 47.6533647,31.698602 47.7148881,30.2039474 L47.7148881,30.2039474 Z M37.9090909,29.9473684 L37.9090909,25.7368421 L42,25.7368421 C42.4518377,25.7368421 42.8181818,25.3597862 42.8181818,24.8947368 C42.8181818,24.4296876 42.4518377,24.0526316 42,24.0526316 L37.0909091,24.0526316 C36.6390715,24.0526316 36.2727273,24.4296876 36.2727273,24.8947368 L36.2727273,28.2578125 C35.2440074,27.4638158 34.6379616,26.2179277 34.6363636,24.8947368 L34.6363636,20.6842105 L46.9090909,20.6842105 C48.264604,20.6842105 49.3636364,21.8149672 49.3636364,23.2105263 L49.3636364,24.8947368 C49.3620384,26.2179277 48.7559926,27.4638158 47.7272727,28.2578125 L47.7272727,24.8947368 C47.7272727,24.4296876 47.3609286,24.0526316 46.9090909,24.0526316 L45.2727273,24.0526316 C44.8208896,24.0526316 44.4545455,24.4296876 44.4545455,24.8947368 C44.4545455,25.3597862 44.8208896,25.7368421 45.2727273,25.7368421 L46.0909091,25.7368421 L46.0909091,29.9473684 C46.0909091,32.2726152 44.2591886,34.1578947 42,34.1578947 C39.7404119,34.1578947 37.9090909,32.2726152 37.9090909,29.9473684 L37.9090909,29.9473684 Z M42,37.5263158 C41.0963246,37.5263158 40.3636364,36.772204 40.3636364,35.8421053 L43.6363636,35.8421053 C43.6363636,36.772204 42.9036755,37.5263158 42,37.5263158 Z" id="Shape"></path>
                    <path d="M13.9090909,34.125 L12.9998224,34.125 C14.1048473,33.0167542 14.7276722,31.4952851 14.7272727,29.90625 L14.7272727,24.84375 C14.7272727,24.3777924 14.3609286,24 13.9090909,24 L12.2727273,24 C11.8208896,24 11.4545454,24.3777924 11.4545454,24.84375 C11.4545454,25.3097077 11.8208896,25.6875 12.2727273,25.6875 L13.0909091,25.6875 L13.0909091,29.90625 C13.0909091,32.2360382 11.2591886,34.125 8.99999999,34.125 C6.74041192,34.125 4.90909089,32.2360382 4.90909089,29.90625 L4.90909089,25.6875 L8.99999999,25.6875 C9.45183773,25.6875 9.81818181,25.3097077 9.81818181,24.84375 C9.81818181,24.3777924 9.45183773,24 8.99999999,24 L4.09090907,24 C3.63907143,24 3.27272725,24.3777924 3.27272725,24.84375 L3.27272725,29.90625 C3.27232777,31.494873 3.89475325,33.0167542 4.998979,34.125 L4.09090907,34.125 C1.83251953,34.127472 0.00279651989,36.0147858 0,38.34375 L0,50.15625 C0,50.6222077 0.366344157,51 0.818181794,51 C1.27001953,51 1.63636361,50.6222077 1.63636361,50.15625 L1.63636361,43.40625 L3.27272725,43.40625 L3.27272725,50.15625 C3.27272725,50.6222077 3.63907143,51 4.09090907,51 C4.54274681,51 4.90909089,50.6222077 4.90909089,50.15625 L4.90909089,42.5625 C4.90909089,42.0965424 4.54274681,41.71875 4.09090907,41.71875 L1.63636361,41.71875 L1.63636361,38.34375 C1.63636361,36.9454651 2.73539596,35.8125 4.09090907,35.8125 L5.72727271,35.8125 L5.72727271,37.5 C5.72687323,37.7237091 5.81316585,37.9387666 5.96697441,38.0973816 L8.18181817,40.3814393 L8.18181817,44.25 C8.18181817,44.7159577 8.54816235,45.09375 8.99999999,45.09375 C9.45183773,45.09375 9.81818181,44.7159577 9.81818181,44.25 L9.81818181,40.3814393 L12.0330256,38.0973816 C12.1864347,37.9387666 12.2727273,37.7237091 12.2727273,37.5 L12.2727273,35.8125 L13.9090909,35.8125 C15.264604,35.8125 16.3636364,36.9454651 16.3636364,38.34375 L16.3636364,41.71875 L13.9090909,41.71875 C13.4572533,41.71875 13.0909091,42.0965424 13.0909091,42.5625 L13.0909091,50.15625 C13.0909091,50.6222077 13.4572533,51 13.9090909,51 C14.3609286,51 14.7272727,50.6222077 14.7272727,50.15625 L14.7272727,43.40625 L16.3636364,43.40625 L16.3636364,50.15625 C16.3636364,50.6222077 16.7299805,51 17.1818182,51 C17.6336559,51 18,50.6222077 18,50.15625 L18,38.34375 C17.9972035,36.0147858 16.167081,34.127472 13.9090909,34.125 Z M10.6363636,37.1506348 L8.99999999,38.8381348 L7.36363635,37.1506348 L7.36363635,35.8125 L10.6363636,35.8125 L10.6363636,37.1506348 Z" id="Shape"></path>
                    <path d="M8.99999999,17 C4.03178265,17.0057566 0.00559304489,21.1496712 0,26.2631579 L0,32.1578947 C0,32.6229441 0.366344157,33 0.818181794,33 C1.27001953,33 1.63636361,32.6229441 1.63636361,32.1578947 L1.63636361,26.2631579 C1.63636361,22.0773027 4.93306106,18.6842105 8.99999999,18.6842105 C13.0669389,18.6842105 16.3636364,22.0773027 16.3636364,26.2631579 L16.3636364,32.1578947 C16.3636364,32.6229441 16.7299805,33 17.1818182,33 C17.6336559,33 18,32.6229441 18,32.1578947 L18,26.2631579 C17.9940074,21.1496712 13.9682173,17.0057566 8.99999999,17 Z" id="Path"></path>
                    <path d="M4.58016261,14.8808142 L5.35400621,14.5202242 L5.35400621,15.157938 C5.35400621,15.6229635 5.72986147,16 6.19342977,16 C6.65699818,16 7.03285334,15.6229635 7.03285334,15.157938 L7.03285334,13.7381919 L24.4271196,5.63663462 C25.1075118,5.31921673 25.8928319,5.31921673 26.5728141,5.63663462 L43.9674902,13.7381919 L43.9674902,15.157938 C43.9674902,15.6229635 44.3433455,16 44.8069138,16 C45.2704822,16 45.6463374,15.6229635 45.6463374,15.157938 L45.6463374,14.5202242 L46.420181,14.8808142 C47.6817756,15.4683662 49.1794581,14.9186412 49.7651691,13.6530813 C50.3508802,12.3875212 49.8032875,10.8851313 48.541283,10.2975793 L27.2798482,0.394716556 C26.1514629,-0.131572185 24.8488808,-0.131572185 23.7204955,0.394716556 L2.4586507,10.2975793 C1.19705616,10.8851313 0.649053486,12.3875212 1.23476464,13.6530813 C1.82047568,14.9186412 3.31815811,15.4683662 4.58016261,14.8808142 Z M2.73326686,12.2999435 C2.80950352,12.0898392 2.96607574,11.9192065 3.16814399,11.8250501 L24.4271196,1.92300969 C25.1075118,1.6055918 25.8928319,1.6055918 26.5728141,1.92300969 L47.8346589,11.8250501 C48.2551905,12.0207638 48.4379946,12.5219716 48.2424843,12.9438249 C48.0473839,13.3660894 47.5477465,13.549468 47.1268051,13.3533433 L27.2798482,4.10834148 C26.1514629,3.58205274 24.8488808,3.58205274 23.7204955,4.10834148 L3.87312862,13.3533433 C3.67106038,13.4474996 3.439891,13.4573675 3.2308548,13.3804801 C3.02140887,13.3040037 2.8513108,13.1469395 2.7574494,12.9438249 C2.6627684,12.7415326 2.65334125,12.5096366 2.73080756,12.2999435 L2.73326686,12.2999435 Z" id="Shape"></path>
                    <path d="M30.1666667,11 L21.8333333,11 C21.3731283,11 21,11.3582032 21,11.8 L21,18.2 C21,18.6417969 21.3731283,19 21.8333333,19 C22.2935384,19 22.6666667,18.6417969 22.6666667,18.2 L22.6666667,15.8 L25.1666667,15.8 L25.1666667,18.2 C25.1666667,18.6417969 25.539795,19 26,19 C26.4602051,19 26.8333333,18.6417969 26.8333333,18.2 L26.8333333,15.8 L29.3333333,15.8 L29.3333333,18.2 C29.3333333,18.6417969 29.7064617,19 30.1666667,19 C30.6268718,19 31,18.6417969 31,18.2 L31,11.8 C31,11.3582032 30.6268718,11 30.1666667,11 Z M22.6666667,14.2 L22.6666667,12.6 L25.1666667,12.6 L25.1666667,14.2 L22.6666667,14.2 Z M26.8333333,14.2 L26.8333333,12.6 L29.3333333,12.6 L29.3333333,14.2 L26.8333333,14.2 Z" id="Shape"></path>
                </g>
            </g>
        </g>
    </g>
</svg>