<?xml version="1.0" encoding="UTF-8"?>
<svg width="44px" height="34px" viewBox="0 0 44 34" version="1.1" xmlns="http://www.w3.org/2000/svg" xmlns:xlink="http://www.w3.org/1999/xlink">
    <!-- Generator: sketchtool 53 (72520) - https://sketchapp.com -->
    <title>1E5E42F5-0F6C-4A60-A138-8A488A6D883C</title>
    <desc>Created with sketchtool.</desc>
    <g id="NewContent" stroke="none" stroke-width="1" fill="none" fill-rule="evenodd">
        <g id="LandingPage-MA&amp;C-Atuação-Tab1" transform="translate(-619.000000, -1490.000000)" fill="#B9B9B9" fill-rule="nonzero">
            <g id="Tab" transform="translate(328.000000, 1478.000000)">
                <g id="tab2" transform="translate(280.000000, 12.000000)">
                    <g id="family-icon" transform="translate(11.000000, 0.000000)">
                        <path d="M40.3953247,24.2162226 L35.5284424,22.2847714 L35.5284424,21.1697171 L39.9606018,21.1697171 C40.3201294,21.1697171 40.6115112,20.8807152 40.6115112,20.5244573 L40.6115112,14.5869346 C40.822998,14.330562 40.9502259,14.0032707 40.9502259,13.6470127 L40.9502259,12.3028879 C40.9502259,11.9462969 40.822998,11.6193386 40.6115112,11.362966 L40.6115112,8.43332646 C40.6115112,4.28042344 37.2048951,0.901632442 33.0177917,0.901632442 L32.3316345,0.901632442 C30.7391052,0.901632442 29.214386,1.38574376 27.9223022,2.30102728 C27.6299134,2.50812302 27.5621032,2.9113272 27.7709046,3.20132791 C27.9800415,3.49166155 28.3862305,3.55891769 28.6789551,3.35148894 C29.7488098,2.59335858 31.012024,2.192818 32.3316345,2.192818 L33.0177917,2.192818 C36.4871826,2.192818 39.3096924,4.99227353 39.3096924,8.43332646 L39.3096924,10.8169257 L34.0302429,10.8169257 C32.7227173,10.8169257 31.4588318,10.2712183 30.6303406,9.25771418 C30.5108337,9.11121555 30.4235534,8.94407398 30.3077393,8.79690941 C30.1580201,8.60612827 29.9096069,8.511903 29.6645508,8.56117981 C29.3929749,8.61578384 29.1885376,8.83553178 29.15094,9.10622134 C29.0307617,9.94326117 28.560791,10.8169257 27.5916443,10.8169257 L26.0397338,10.8169257 L26.0397338,8.43332646 C26.0397338,7.3851954 26.3066101,6.34838472 26.8114929,5.43609783 C26.984375,5.12345643 26.8692322,4.73090669 26.5540162,4.55943677 C26.2384643,4.38796677 25.8433532,4.50216904 25.6704712,4.81481044 C25.0601807,5.91721261 24.737915,7.168444 24.737915,8.43332646 L24.737915,11.362966 C24.5375061,11.6073524 24.4173279,11.911337 24.4008789,12.2289726 C23.8909607,12.0042305 23.3273315,11.8783748 22.7341614,11.8783748 L21.1718445,11.8783748 C20.6159363,11.8783748 20.0855408,11.9889147 19.6011353,12.1876867 L19.6011353,11.4009224 C19.6011353,11.0446645 19.4739075,10.7173732 19.262085,10.4613336 L19.262085,7.53169402 C19.262085,3.378791 15.8558044,0 11.6683655,0 L10.9825439,0 C6.7954407,0 3.38882448,3.378791 3.38882448,7.53169402 L3.38882448,10.4613336 C3.17733763,10.7173732 3.04977415,11.0446645 3.04977415,11.4009224 L3.04977415,12.7453803 C3.04977415,13.5647737 3.7218323,14.2313425 4.54797363,14.2313425 L5.61950684,14.2313425 C5.80514524,16.1001988 6.90689089,17.7050246 8.47189329,18.5996651 L8.47189329,21.383139 L3.60433958,23.3145901 C1.41494753,24.1832604 2.59514632e-15,26.2558829 2.59514632e-15,28.5945337 L2.59514632e-15,29.2730887 C2.59514632e-15,29.6296797 0.291381836,29.9186816 0.650909445,29.9186816 C1.01043697,29.9186816 1.30181889,29.6296797 1.30181889,29.2730887 L1.30181889,28.5945337 C1.30181889,26.7869405 2.39550781,25.1847782 4.08807369,24.5132152 L6.3190918,23.6278974 C7.06365963,24.9004378 8.41046147,25.6309331 8.47558594,25.6655601 C8.5726013,25.7175005 8.67834473,25.7428048 8.78408816,25.7428048 C8.92440794,25.7428048 9.06405638,25.6975234 9.17987056,25.6096242 L10.6747132,24.4729281 L10.6747132,27.4498468 C10.6747132,27.8064378 10.966095,28.0954396 11.3256225,28.0954396 C11.6851501,28.0954396 11.976532,27.8064378 11.976532,27.4498468 L11.976532,24.4729281 L13.4713745,25.6096242 C13.5871887,25.6978564 13.7268372,25.7428048 13.867157,25.7428048 C13.9729004,25.7428048 14.0789795,25.7171676 14.1756592,25.6655601 C14.2407837,25.6309331 15.5875854,24.9004378 16.3321533,23.6278974 L18.5628357,24.5128823 C19.0281067,24.6973374 19.4517517,24.9557077 19.8270569,25.2806682 L19.8270569,25.4374884 L18.6658936,25.6076266 C17.3858948,25.7957441 16.2321167,26.3807397 15.3297729,27.2986869 C15.0786744,27.5540605 15.0840455,27.9629249 15.3415222,28.2116396 C15.4680787,28.3341657 15.631897,28.3950959 15.7957154,28.3950959 C15.9649048,28.3950959 16.1340943,28.3298374 16.2616577,28.1999863 C16.9635925,27.4858055 17.8609009,27.0309938 18.8562317,26.8848282 L19.9579773,26.7236797 C20.2577514,27.5284233 21.0389099,28.1037633 21.9533386,28.1037633 C22.8674316,28.1037633 23.6489258,27.5284233 23.9486999,26.7236797 L25.0497741,26.8848282 C27.2673645,27.2107877 28.9394531,29.1329162 28.9394531,31.3556999 L28.9394531,32.7088144 L26.9434205,32.7088144 L26.9434205,32.2766435 C26.9434205,31.9200526 26.6520385,31.6310506 26.292511,31.6310506 C25.9329834,31.6310506 25.6416016,31.9200526 25.6416016,32.2766435 L25.6416016,32.7088144 L18.26474,32.7088144 L18.26474,32.2766435 C18.26474,31.9200526 17.9733581,31.6310506 17.6141663,31.6310506 C17.2546387,31.6310506 16.9632568,31.9200526 16.9632568,32.2766435 L16.9632568,32.7088144 L14.9668884,32.7088144 L14.9668884,31.3556999 C14.9668884,31.0800161 14.9924011,30.8036664 15.0424194,30.5343087 C15.1075439,30.183378 14.8735657,29.847097 14.5200806,29.7821714 C14.1669311,29.7175789 13.8272095,29.949646 13.762085,30.3002438 C13.6979675,30.6465133 13.6654053,31.0017725 13.6654053,31.3556999 L13.6654053,32.7088144 L5.70712278,32.7088144 L5.70712278,31.6740014 C5.70712278,31.3174104 5.41574095,31.0284086 5.05654909,31.0284086 C4.69702148,31.0284086 4.40563965,31.3174104 4.40563965,31.6740014 L4.40563965,32.7088144 L1.30181889,32.7088144 L1.30181889,32.2839684 C1.30181889,31.9273774 1.01043697,31.6383756 0.650909445,31.6383756 C0.291381836,31.6383756 0,31.9273774 0,32.2839684 L0,33.3544072 C0,33.7109982 0.291381836,34 0.650909445,34 L43.3490906,34 C43.7086182,34 44,33.7109982 44,33.3544072 L44,29.4964992 C44,27.1571824 42.5850525,25.0845599 40.3953247,24.2162226 L40.3953247,24.2162226 Z M37.1498413,24.3187716 C36.7204895,25.5853188 34.6200561,26.166985 32.6747132,26.166985 C30.7293701,26.166985 28.6289368,25.5853188 28.199585,24.3187716 L30.7135925,23.3215821 C30.9609986,23.2233615 31.1228027,22.9859671 31.1228027,22.7219366 L31.1228027,20.0453401 C31.6169434,20.1831821 32.1369324,20.258429 32.6747132,20.258429 C33.2124939,20.258429 33.732483,20.1831821 34.2262878,20.0453401 L34.2262878,22.7219366 C34.2262878,22.9859671 34.3884277,23.2233615 34.635498,23.3215821 L37.1498413,24.3187716 Z M24.9541016,24.2162226 C24.6476135,24.3374169 24.3565674,24.4842485 24.0792846,24.6530548 L24.0792846,24.4376353 C25.3945312,23.8073582 26.3834838,22.6107309 26.7252197,21.1697171 L29.8213196,21.1697171 L29.8213196,22.2851044 L24.9541016,24.2162226 Z M14.1790162,21.383139 L14.1790162,18.5993322 C15.7440186,17.7046917 16.8457642,16.0998659 17.0314026,14.2310096 L17.4409485,14.2310096 C17.1905212,14.7584046 17.0498658,15.3467297 17.0498658,15.9670182 L17.0498658,20.0556617 C17.0498658,21.1114506 17.3919372,22.088996 17.9706726,22.8874135 L14.1790162,21.383139 Z M18.1029358,11.2061459 C18.2113647,11.2061459 18.2993164,11.2937121 18.2993164,11.4009224 L18.2993164,12.7453803 C18.2993164,12.8525906 18.2113647,12.9401569 18.1029358,12.9401569 L17.0596009,12.9401569 L17.0596009,11.2061459 L18.1029358,11.2061459 Z M18.3516846,20.0556617 L18.3516846,18.4202043 L21.0419311,18.4202043 C21.2319336,18.4202043 21.4125366,18.3379653 21.5360717,18.1947962 L21.9530029,17.7123496 L22.3702698,18.1947962 C22.493805,18.3379653 22.6744079,18.4202043 22.8644104,18.4202043 L25.554657,18.4202043 L25.554657,20.0556617 C25.554657,22.0254022 23.9389648,23.6278974 21.9530029,23.6278974 C19.9673767,23.6278974 18.3516846,22.0254022 18.3516846,20.0556617 L18.3516846,20.0556617 Z M29.8213196,19.8785315 L26.8564759,19.8785315 L26.8564759,15.9670182 C26.8564759,15.6813459 26.8265991,15.4023326 26.7698669,15.132975 L26.9689331,15.132975 C27.1545716,17.0018312 28.2563171,18.6066571 29.8213196,19.5012976 L29.8213196,19.8785315 Z M25.7795716,12.1470666 C25.8141479,12.1214294 25.8537598,12.1081113 25.8973999,12.1081113 L26.9407349,12.1081113 L26.9407349,13.8417893 L26.2545776,13.8417893 C26.0961303,13.5850837 25.9098206,13.3476894 25.7003479,13.1322698 L25.7003479,12.3028879 C25.7003479,12.2153216 25.756073,12.1643801 25.7795716,12.1470666 Z M35.5284424,19.8788644 L35.5284424,19.5009645 C37.0931091,18.6066571 38.1948548,17.0018312 38.3804932,15.132975 L39.3096924,15.132975 L39.3096924,19.8788644 L35.5284424,19.8788644 Z M39.648407,12.3028879 L39.648407,13.6470127 C39.648407,13.7545561 39.5604553,13.8417893 39.4520264,13.8417893 L38.4086914,13.8417893 L38.4086914,12.1081113 L39.4520264,12.1081113 C39.5604553,12.1081113 39.648407,12.1953446 39.648407,12.3028879 Z M34.0302429,12.1081113 L37.1068725,12.1081113 L37.1068725,14.5712859 C37.1068725,16.9955051 35.1185608,18.9675764 32.6747132,18.9675764 C30.2308655,18.9675764 28.2425537,16.9955051 28.2425537,14.5712859 L28.2425537,12.0371926 C29.15094,11.8310958 29.7239685,11.2028164 30.0579834,10.5425737 C30.810608,11.2690738 32.0979919,12.1081113 34.0302429,12.1081113 L34.0302429,12.1081113 Z M22.7341614,13.1695604 C24.2894287,13.1695604 25.554657,14.4244543 25.554657,15.9670182 L25.554657,17.1290187 L23.1635131,17.1290187 L22.4471436,16.2999697 C22.3236084,16.1571335 22.1430053,16.0745616 21.9530029,16.0745616 C21.7630005,16.0745616 21.5823975,16.1571335 21.4588623,16.2999697 L20.7424927,17.1290187 L18.3516846,17.1290187 L18.3516846,15.9670182 C18.3516846,14.4244543 19.6169128,13.1695604 21.1721802,13.1695604 L22.7341614,13.1695604 Z M10.9825439,1.29118564 L11.6687012,1.29118564 C15.1380921,1.29118564 17.9606018,4.09064117 17.9606018,7.53169402 L17.9606018,9.91496032 L16.755127,9.91496032 L16.2723999,9.20477496 C16.2509155,9.17281163 16.2478943,9.13185858 16.2640075,9.09756456 C16.4711303,8.66139825 16.4389038,8.1579757 16.1787415,7.75110903 C15.9182434,7.34424235 15.4727783,7.10118786 14.98703,7.10118786 L7.66421511,7.10118786 C7.1784668,7.10118786 6.73266602,7.34424235 6.47250364,7.75110903 C6.21200559,8.1579757 6.1801147,8.66139825 6.38690181,9.09723163 C6.40335085,9.13185858 6.40032955,9.17314456 6.37884517,9.20477496 L5.89611816,9.91496032 L4.69064329,9.91496032 L4.69064329,7.53169402 C4.69064329,4.09064117 7.51315305,1.29118564 10.9825439,1.29118564 Z M4.35192871,12.7453803 L4.35192871,11.4009224 C4.35192871,11.2937121 4.43988033,11.2061459 4.54797363,11.2061459 L5.59164427,11.2061459 L5.59164427,12.9401569 L4.54797363,12.9401569 C4.43988033,12.9401569 4.35192871,12.8525906 4.35192871,12.7453803 Z M6.89346316,13.6696534 L6.89346316,10.7579933 L7.45843502,9.92594769 C7.73471067,9.51941403 7.77532955,8.99135304 7.56484988,8.54752882 C7.54806516,8.51157007 7.55007937,8.47627717 7.57156374,8.44298212 C7.59304812,8.40935396 7.62426758,8.3923735 7.66421511,8.3923735 L14.98703,8.3923735 C15.0269775,8.3923735 15.058197,8.40935396 15.0796814,8.44298212 C15.1011658,8.47627717 15.10318,8.51157007 15.0863952,8.54752882 C14.8759155,8.99135304 14.9165344,9.51941403 15.19281,9.92594769 L15.757782,10.7579933 L15.757782,13.6696534 C15.757782,16.0935398 13.7694702,18.065611 11.3256225,18.065611 C8.88177486,18.065611 6.89346316,16.0935398 6.89346316,13.6696534 Z M11.3256225,19.3567966 C11.8634033,19.3567966 12.3833923,19.2815496 12.8775329,19.1433748 L12.8775329,21.4593848 L11.3256225,22.4066316 L9.77371218,21.4593848 L9.77371218,19.1433748 C10.2678528,19.2815496 10.7878418,19.3567966 11.3256225,19.3567966 L11.3256225,19.3567966 Z M8.74783327,24.3114466 C8.41180416,24.0797125 7.90188601,23.6741777 7.54470827,23.1417883 L9.06069948,22.5401451 L10.1792298,23.2230285 L8.74783327,24.3114466 Z M13.9034118,24.3114466 L12.4720154,23.2230285 L13.5905456,22.5401451 L15.1062012,23.1417883 C14.7493591,23.6741777 14.2391052,24.0800455 13.9034118,24.3114466 Z M21.9530029,26.8125777 C21.4984741,26.8125777 21.12854,26.4456653 21.12854,25.994849 L21.12854,24.8488303 C21.3967591,24.8941117 21.6720276,24.919083 21.9530029,24.919083 C22.2343139,24.919083 22.5092468,24.8941117 22.7778015,24.8488303 L22.7778015,25.994849 C22.7774658,26.4459982 22.4078675,26.8125777 21.9530029,26.8125777 Z M42.6981811,32.7088144 L39.594696,32.7088144 L39.594696,31.6740014 C39.594696,31.3174104 39.3033142,31.0284086 38.9437866,31.0284086 C38.5842591,31.0284086 38.2928772,31.3174104 38.2928772,31.6740014 L38.2928772,32.7088144 L30.241272,32.7088144 L30.241272,31.3556999 C30.241272,29.9626311 29.7357178,28.6145109 28.8179322,27.5597208 C27.9001465,26.5052636 26.6298828,25.8120587 25.2401123,25.6076266 L25.0672302,25.5823223 C25.1877441,25.5217251 25.310608,25.4651234 25.4371643,25.4151806 L26.9914245,24.7985546 C27.2656861,25.5410363 27.8608704,26.1753087 28.7316589,26.6317851 C29.7622376,27.1724983 31.125824,27.4581705 32.6750488,27.4581705 C34.223938,27.4581705 35.5875244,27.1724983 36.618103,26.6317851 C37.4885559,26.1753087 38.0840759,25.5410363 38.3583374,24.7985546 L39.912262,25.4151806 C41.6048279,26.0864107 42.6985169,27.68824 42.6985169,29.4964992 L42.6985169,32.7088144 L42.6981811,32.7088144 Z" id="Shape"></path>
                    </g>
                </g>
            </g>
        </g>
    </g>
</svg>