<?xml version="1.0" encoding="UTF-8"?>
<svg width="25px" height="25px" viewBox="0 0 25 25" version="1.1" xmlns="http://www.w3.org/2000/svg" xmlns:xlink="http://www.w3.org/1999/xlink">
    <!-- Generator: Sketch 53 (72520) - https://sketchapp.com -->
    <title>hours_icon 2</title>
    <desc>Created with Sketch.</desc>
    <g id="Page-1" stroke="none" stroke-width="1" fill="none" fill-rule="evenodd">
        <g id="hours_icon-2" fill="#CEB983" fill-rule="nonzero">
            <g id="hours_icon">
                <path d="M24.0021242,7.6313548 C22.6840686,4.55675011 20.444281,2.32067769 17.3457108,0.998423971 C15.797018,0.33756278 14.1745098,0 12.4794526,0 C10.7846814,0 9.17414216,0.334374755 7.62716503,0.998423971 C4.55424837,2.31716269 2.30453431,4.55180459 0.984150327,7.6313548 C0.32250817,9.17419531 0,10.7905648 0,12.486267 C0,14.1822962 0.32250817,15.8120717 0.984150327,17.3552392 C2.30453431,20.4347894 4.55453431,22.6828373 7.62716503,24.001903 C9.1744281,24.6659522 10.7846405,25 12.4794526,25 C14.1742647,25 15.797018,24.6624372 17.3454657,24.001903 C20.4440359,22.6796084 22.6838235,20.4295577 24.002165,17.3552392 C24.6658088,15.8071261 25,14.1822962 25,12.486267 C25,10.7905648 24.6660948,9.17942694 24.0021242,7.6313548 Z M22.0066993,18.011727 C21.0254493,19.6954537 19.6811683,21.0311952 17.9881127,22.0187881 C16.3053105,23.0005771 14.4614788,23.4957019 12.4797386,23.4957019 C10.989951,23.4957019 9.56838235,23.2086162 8.21503268,22.6204256 C6.86172386,22.0325211 5.6932598,21.2596295 4.71580882,20.2819277 C3.73835784,19.3039397 2.96037582,18.1234305 2.37863562,16.7670486 C1.79861111,15.4156122 1.51752451,13.9771999 1.51752451,12.4863078 C1.51752451,10.5031929 2.00449346,8.66770809 2.98022876,6.98864082 C3.95943627,5.30344274 5.30400327,3.9662707 6.98508987,2.98153888 C8.66589052,1.99684794 10.4977533,1.50433898 12.4794526,1.50433898 C14.4614788,1.50433898 16.3049837,1.99974986 17.9878268,2.98153888 C19.6808824,3.96917262 21.0222631,5.30630379 22.0064134,6.98859995 C22.9905637,8.67061001 23.4825163,10.5031929 23.4825163,12.486267 C23.4825163,14.4694228 22.9937908,16.3174145 22.0066993,18.011727 Z" id="Shape"></path>
                <path d="M12.847424,11.8366414 L12.847424,4.7936514 C12.847424,4.37219918 12.4752894,4.03225806 12.0481397,4.03225806 C11.6486622,4.03225806 11.2903226,4.37219918 11.2903226,4.7936514 L11.2903226,11.945377 C11.2903226,11.9590299 11.3179537,12.0135603 11.3179537,12.0541939 C11.2903226,12.298971 11.3594209,12.5029113 11.5246311,12.666218 L15.6447133,16.7314522 C15.9204067,17.0034944 16.4301203,17.0034944 16.7056078,16.7314522 C17.022439,16.4187762 17.0016024,15.9651015 16.7056078,15.6709545 L12.847424,11.8366414 Z" id="Path"></path>
            </g>
        </g>
    </g>
</svg>