<?xml version="1.0" encoding="UTF-8"?>
<svg width="36px" height="36px" viewBox="0 0 36 36" version="1.1" xmlns="http://www.w3.org/2000/svg" xmlns:xlink="http://www.w3.org/1999/xlink">
    <!-- Generator: sketchtool 53 (72520) - https://sketchapp.com -->
    <title>7B8DB829-02C6-4376-8C40-D5C7CD19EE55</title>
    <desc>Created with sketchtool.</desc>
    <g id="NewContent" stroke="none" stroke-width="1" fill="none" fill-rule="evenodd">
        <g id="LandingPage-MA&amp;C-Atuação-Tab3" transform="translate(-831.000000, -1489.000000)" fill="#8B2938" fill-rule="nonzero">
            <g id="Tab" transform="translate(328.000000, 1478.000000)">
                <g id="tab3" transform="translate(478.000000, 11.000000)">
                    <g id="house-2" transform="translate(25.000000, 0.000000)">
                        <g id="house">
                            <path d="M35.3480885,34.8293536 L33.6096579,34.8293536 L33.6096579,9.86161166 L35.3480885,9.86161166 C35.5750125,9.86161166 35.7809985,9.72892517 35.875503,9.52224039 C35.9697246,9.31527218 35.934922,9.07229715 35.7860915,8.90048511 L28.2528924,0.190807694 C28.1397133,0.0691784274 27.9809796,2.84217094e-14 27.8148893,2.84217094e-14 C27.648799,2.84217094e-14 27.4900654,0.0691784274 27.3768863,0.190807694 L19.8436871,8.90048511 C19.6948567,9.07229715 19.6600541,9.31527218 19.7542757,9.52224039 C19.8487802,9.72892517 20.0547661,9.86161166 20.2816901,9.86161166 L22.0201207,9.86161166 L22.0201207,14.506773 L4.63581489,14.506773 C4.42926311,14.5070565 4.23855634,14.6176286 4.13528045,14.7970955 L0.0789424225,21.7648375 C-0.0246164668,21.9443044 -0.0246164668,22.1654486 0.0783764909,22.3449156 C0.181652378,22.5243826 0.372642085,22.6352381 0.579476861,22.6358052 L4.63581489,22.6358052 L4.63581489,34.8293536 L0.579476861,34.8293536 C0.25946301,34.8293536 0,35.0893397 0,35.4099988 C0,35.7306577 0.25946301,35.9906439 0.579476861,35.9906439 L35.3480885,35.9906439 C35.6681024,35.9906439 35.9275654,35.7306577 35.9275654,35.4099988 C35.9275654,35.0893397 35.6681024,34.8293536 35.3480885,34.8293536 Z M27.8148893,1.45785034 L34.0790682,8.70032134 L21.5507105,8.70032134 L27.8148893,1.45785034 Z M32.4507042,9.86161166 L32.4507042,34.8293536 L23.1790744,34.8293536 L23.1790744,22.6358052 L26.6559356,22.6358052 C26.8627704,22.6352381 27.0537601,22.5243826 27.157036,22.3449156 C27.2600289,22.1654486 27.2600289,21.9443044 27.1564701,21.7648375 L23.1790744,14.9300655 L23.1790744,9.86161166 L32.4507042,9.86161166 Z M4.96856137,15.6680633 L22.2668511,15.6680633 L25.6469441,21.4745149 L1.58846835,21.4745149 L4.96856137,15.6680633 Z M5.79476861,22.6358052 L22.0201207,22.6358052 L22.0201207,34.8293536 L17.9637827,34.8293536 L17.9637827,29.022902 C17.9637827,28.7022429 17.7043197,28.4422568 17.3843058,28.4422568 L10.4305835,28.4422568 C10.1105696,28.4422568 9.85110664,28.7022429 9.85110664,29.022902 L9.85110664,34.8293536 L5.79476861,34.8293536 L5.79476861,22.6358052 Z M13.3279678,34.8293536 L11.0100604,34.8293536 L11.0100604,29.6035471 L13.3279678,29.6035471 L13.3279678,34.8293536 Z M14.4869215,29.6035471 L16.804829,29.6035471 L16.804829,34.8293536 L14.4869215,34.8293536 L14.4869215,29.6035471 Z" id="Shape"></path>
                            <path d="M28.3943662,27.2809665 L30.7122736,27.2809665 C31.0322875,27.2809665 31.2917505,27.0209803 31.2917505,26.7003213 L31.2917505,23.2164504 C31.2917505,22.8957913 31.0322875,22.6358052 30.7122736,22.6358052 L28.3943662,22.6358052 C28.0743523,22.6358052 27.8148893,22.8957913 27.8148893,23.2164504 L27.8148893,26.7003213 C27.8148893,27.0209803 28.0743523,27.2809665 28.3943662,27.2809665 Z M28.9738431,23.7970955 L30.1327968,23.7970955 L30.1327968,26.1196762 L28.9738431,26.1196762 L28.9738431,23.7970955 Z" id="Shape"></path>
                            <path d="M28.3943662,21.4745149 L30.7122736,21.4745149 C31.0322875,21.4745149 31.2917505,21.2145287 31.2917505,20.8938697 L31.2917505,17.4099988 C31.2917505,17.0893397 31.0322875,16.8293536 30.7122736,16.8293536 L28.3943662,16.8293536 C28.0743523,16.8293536 27.8148893,17.0893397 27.8148893,17.4099988 L27.8148893,20.8938697 C27.8148893,21.2145287 28.0743523,21.4745149 28.3943662,21.4745149 Z M28.9738431,17.9906439 L30.1327968,17.9906439 L30.1327968,20.3132246 L28.9738431,20.3132246 L28.9738431,17.9906439 Z" id="Shape"></path>
                            <path d="M28.3943662,15.6680633 L30.7122736,15.6680633 C31.0322875,15.6680633 31.2917505,15.4080771 31.2917505,15.0874181 L31.2917505,11.6035471 C31.2917505,11.2828881 31.0322875,11.022902 30.7122736,11.022902 L28.3943662,11.022902 C28.0743523,11.022902 27.8148893,11.2828881 27.8148893,11.6035471 L27.8148893,15.0874181 C27.8148893,15.4080771 28.0743523,15.6680633 28.3943662,15.6680633 Z M28.9738431,12.1841923 L30.1327968,12.1841923 L30.1327968,14.506773 L28.9738431,14.506773 L28.9738431,12.1841923 Z" id="Shape"></path>
                            <path d="M12.7484909,27.2809665 L15.0663984,27.2809665 C15.3864122,27.2809665 15.6458753,27.0209803 15.6458753,26.7003213 L15.6458753,24.3777407 C15.6458753,24.0570817 15.3864122,23.7970955 15.0663984,23.7970955 L12.7484909,23.7970955 C12.4284771,23.7970955 12.1690141,24.0570817 12.1690141,24.3777407 L12.1690141,26.7003213 C12.1690141,27.0209803 12.4284771,27.2809665 12.7484909,27.2809665 Z M13.3279678,24.9583859 L14.4869215,24.9583859 L14.4869215,26.1196762 L13.3279678,26.1196762 L13.3279678,24.9583859 Z" id="Shape"></path>
                            <path d="M10.4305835,27.2809665 C10.7505974,27.2809665 11.0100604,27.0209803 11.0100604,26.7003213 L11.0100604,24.3777407 C11.0100604,24.0570817 10.7505974,23.7970955 10.4305835,23.7970955 L8.11267606,23.7970955 C7.79266221,23.7970955 7.5331992,24.0570817 7.5331992,24.3777407 L7.5331992,26.7003213 C7.5331992,27.0209803 7.79266221,27.2809665 8.11267606,27.2809665 L10.4305835,27.2809665 Z M8.69215292,24.9583859 L9.85110664,24.9583859 L9.85110664,26.1196762 L8.69215292,26.1196762 L8.69215292,24.9583859 Z" id="Shape"></path>
                            <path d="M17.3843058,27.2809665 L19.7022133,27.2809665 C20.0222271,27.2809665 20.2816901,27.0209803 20.2816901,26.7003213 L20.2816901,24.3777407 C20.2816901,24.0570817 20.0222271,23.7970955 19.7022133,23.7970955 L17.3843058,23.7970955 C17.064292,23.7970955 16.804829,24.0570817 16.804829,24.3777407 L16.804829,26.7003213 C16.804829,27.0209803 17.064292,27.2809665 17.3843058,27.2809665 Z M17.9637827,24.9583859 L19.1227364,24.9583859 L19.1227364,26.1196762 L17.9637827,26.1196762 L17.9637827,24.9583859 Z" id="Shape"></path>
                        </g>
                    </g>
                </g>
            </g>
        </g>
    </g>
</svg>