<?xml version="1.0" encoding="UTF-8"?>
<svg width="51px" height="51px" viewBox="0 0 51 51" version="1.1" xmlns="http://www.w3.org/2000/svg" xmlns:xlink="http://www.w3.org/1999/xlink">
    <!-- Generator: sketchtool 53 (72520) - https://sketchapp.com -->
    <title>391F944B-25CE-4A3C-9F0B-9D68FAB78C6D</title>
    <desc>Created with sketchtool.</desc>
    <g id="NewContent" stroke="none" stroke-width="1" fill="none" fill-rule="evenodd">
        <g id="LandingPage-MA&amp;C-Atuação-Tab1" transform="translate(-693.000000, -1756.000000)" fill="#9A3F4B" fill-rule="nonzero">
            <g id="Group-6-Copy-4" transform="translate(678.000000, 1741.000000)">
                <g id="house" transform="translate(15.000000, 15.000000)">
                    <path d="M14.1572917,45.8484857 C13.7963542,43.7795887 11.9696875,42.2000206 9.77770833,42.2000206 C8.0275,42.2000206 6.51104167,43.2067284 5.7865625,44.6657432 C5.6434375,44.5645774 5.49052083,44.4747554 5.33322917,44.3938022 L5.33322917,29.879967 C5.33322917,29.3942475 4.935,29 4.444375,29 C3.95375,29 3.55552083,29.3942475 3.55552083,29.879967 L3.55552083,43.9599546 C1.5946875,43.9599546 0,45.5386977 0,47.4800289 C0,49.42136 1.5946875,51 3.55552083,51 L13.3333333,51 C14.8035417,51 16,49.8155044 16,48.3599959 C16,47.1887003 15.2257292,46.1934394 14.1572917,45.8484857 Z M13.3333333,49.2399629 L3.55552083,49.2399629 C2.57510417,49.2399629 1.77770833,48.4506429 1.77770833,47.4799257 C1.77770833,46.5092086 2.57510417,45.7199917 3.55552083,45.7199917 C4.38489583,45.7199917 5.12177083,46.1969456 5.38927083,46.9079936 C5.53947917,47.3066755 5.95552083,47.5415946 6.38041667,47.4659007 C6.80354167,47.3902069 7.11104167,47.0258657 7.11104167,46.5999587 C7.11104167,45.1444502 8.3075,43.9599546 9.77770833,43.9599546 C11.2479167,43.9599546 12.444375,45.1444502 12.444375,46.5999587 C12.444375,47.0856783 12.8426042,47.4799257 13.3332292,47.4799257 C13.8230208,47.4799257 14.2220833,47.8749982 14.2220833,48.3598927 C14.2220833,48.8447873 13.823125,49.2399629 13.3333333,49.2399629 Z" id="Shape"></path>
                    <path d="M50.1501311,6.6285964 L34.0000332,6.6285964 C33.5308721,6.6285964 33.1500647,6.99980246 33.1500647,7.45713453 C33.1500647,7.91446661 33.5308721,8.28567267 34.0000332,8.28567267 L49.3000631,8.28567267 L49.3000631,26.1712409 L26.1009943,3.55709201 C25.9343475,3.39464688 25.7159037,3.31434675 25.4974599,3.31434675 C25.2790162,3.31434675 25.0605724,3.39474398 24.8939256,3.55709201 L1.70003652,26.170367 L1.70003652,8.28567267 L11.050088,8.28567267 C11.5192491,8.28567267 11.9000564,7.91446661 11.9000564,7.45713453 L11.9000564,4.14288489 C11.9000564,3.68555281 11.5192491,3.31434675 11.050088,3.31434675 L10.2000199,3.31434675 L10.2000199,1.65717337 L15.3000299,1.65717337 L15.3000299,3.31434675 L14.4500614,3.31434675 C13.9809003,3.31434675 13.600093,3.68555281 13.600093,4.14288489 L13.600093,7.45713453 C13.600093,7.91446661 13.9809003,8.28567267 14.4500614,8.28567267 L17.0000664,8.28567267 C17.4692275,8.28567267 17.8500349,7.91446661 17.8500349,7.45713453 C17.8500349,6.99980246 17.4692275,6.6285964 17.0000664,6.6285964 L15.3000299,6.6285964 L15.3000299,4.97142302 L16.1499983,4.97142302 C16.6191594,4.97142302 16.9999668,4.60021696 16.9999668,4.14288489 L16.9999668,0.828538138 C16.9999668,0.371206059 16.6191594,0 16.1499983,0 L9.35005146,0 C8.88089039,0 8.500083,0.371206059 8.500083,0.828538138 L8.500083,4.14278779 C8.500083,4.60011987 8.88089039,4.97132592 9.35005146,4.97132592 L10.2000199,4.97132592 L10.2000199,6.6284993 L0.849968457,6.6284993 C0.62475122,6.6284993 0.408000797,6.7154992 0.249023924,6.87124456 C0.0892501743,7.02631024 0,7.23759572 0,7.45713453 L0.00338672536,28.1713648 C0.00338672536,28.5069358 0.210773849,28.8085225 0.528727595,28.9369833 C0.63411452,28.979221 0.743784656,29 0.853454792,29 C1.0752853,29 1.29293221,28.9155246 1.45439932,28.7572547 L25.4974599,5.31194608 L49.549087,28.7571576 C49.7114506,28.9154275 49.9289979,28.9999029 50.1500315,28.9999029 C50.2597017,28.9999029 50.3701687,28.979221 50.4755556,28.9368862 C50.7926129,28.8084254 51,28.5060619 51,28.1712677 L51,7.45713453 C51.0000996,6.99980246 50.6192922,6.6285964 50.1501311,6.6285964 Z" id="Path"></path>
                    <path d="M47.6666992,43.9600248 L47.6666992,29.8799711 C47.6666992,29.3942493 47.2933594,29 46.8333984,29 C46.3734375,29 46.0000977,29.3942493 46.0000977,29.8799711 L46.0000977,44.3938743 C45.8526367,44.474828 45.7092773,44.5645473 45.5750977,44.6658167 C44.8958984,43.206795 43.4742188,42.2000825 41.8333984,42.2000825 C39.778418,42.2000825 38.065918,43.779658 37.7275391,45.8485647 C36.7258789,46.19352 36,47.1887856 36,48.3600866 C36,48.6707011 36.0599609,48.9637841 36.1541992,49.2400578 L21.8333008,49.2400578 C21.3733398,49.2400578 21,49.6343071 21,50.1200289 C21,50.6057507 21.3733398,51 21.8333008,51 L38.5,51 L41.8333008,51 L47.6666016,51 C49.5049805,51.0001031 51,49.4213526 51,47.4801155 C51,45.5388784 49.5049805,43.9600248 47.6666992,43.9600248 Z M47.6666992,49.2400578 L41.8333984,49.2400578 L38.5,49.2400578 C38.0408203,49.2400578 37.6666992,48.8449834 37.6666992,48.3600866 C37.6666992,47.8751898 38.0408203,47.4801155 38.5,47.4801155 C38.9599609,47.4801155 39.3333008,47.0858662 39.3333008,46.6001444 C39.3333008,45.144629 40.4549805,43.9601279 41.8333008,43.9601279 C43.2116211,43.9601279 44.3333008,45.144629 44.3333008,46.6001444 C44.3333008,47.0260533 44.6216797,47.3903962 45.0182617,47.4660904 C45.4140625,47.5426096 45.8066406,47.3067613 45.9474609,46.9081807 C46.1982422,46.1971294 46.8891602,45.7201733 47.6666016,45.7201733 C48.5857422,45.7201733 49.3333008,46.5094969 49.3333008,47.4802186 C49.3333008,48.4509403 48.5858398,49.2400578 47.6666992,49.2400578 Z" id="Shape"></path>
                    <path d="M29,17.5 C29,15.5696833 27.4302142,14 25.5,14 C23.5696833,14 22,15.5697858 22,17.5 C22,19.4302142 23.5696833,21 25.5,21 C27.4303167,21 29,19.4302142 29,17.5 Z M23.7499487,17.5 C23.7499487,16.5348929 24.5347904,15.7499487 25.5,15.7499487 C26.4651071,15.7499487 27.2500513,16.5347904 27.2500513,17.5 C27.2500513,18.4651071 26.4652096,19.2500513 25.5,19.2500513 C24.5348929,19.2499487 23.7499487,18.4651071 23.7499487,17.5 Z" id="Shape"></path>
                    <path d="M41.4285571,28 L34.5713425,28 C34.0982372,28 33.7142283,28.3840088 33.7142283,28.8571142 L33.7142283,38.2857717 L32.8571142,38.2857717 C32.3840088,38.2857717 32,38.6697805 32,39.1428858 C32,39.6159912 32.3840088,40 32.8571142,40 L43.1428858,40 C43.6159912,40 44,39.6159912 44,39.1428858 C44,38.6697805 43.6159912,38.2857717 43.1428858,38.2857717 L42.2857717,38.2857717 L42.2857717,28.8571142 C42.2857717,28.3840088 41.9017628,28 41.4285571,28 Z M40.5714429,38.2857717 L35.4285571,38.2857717 L35.4285571,34.8572146 L40.5714429,34.8572146 L40.5714429,38.2857717 Z M40.5714429,33.1428858 L35.4285571,33.1428858 L35.4285571,29.7143288 L40.5714429,29.7143288 L40.5714429,33.1428858 Z" id="Shape"></path>
                    <path d="M34,46.576959 C34,46.0886891 33.6191896,45.6923715 33.1500249,45.6923715 L30.6,45.6923715 L30.6,28.8845875 C30.6,28.3963176 30.2191896,28 29.7500249,28 L21.2499751,28 C20.7808104,28 20.4,28.3963176 20.4,28.8845875 L20.4,45.6923715 L17.8499751,45.6923715 C17.3808104,45.6923715 17,46.0886891 17,46.576959 L17,50.1154125 C17,50.6036824 17.3808104,51 17.8499751,51 C18.3191398,51 18.6999502,50.6036824 18.6999502,50.1154125 L18.6999502,47.4615464 L33.1500249,47.4615464 C33.6191896,47.4616501 34,47.0653325 34,46.576959 Z M28.8999502,36.8461857 L28.0499751,36.8461857 C27.5808104,36.8461857 27.2,37.2425033 27.2,37.7307732 C27.2,38.2190431 27.5808104,38.6153607 28.0499751,38.6153607 L28.8999502,38.6153607 L28.8999502,45.6923715 L22.0998506,45.6923715 L22.0998506,29.7691749 L28.8999502,29.7691749 L28.8999502,36.8461857 L28.8999502,36.8461857 Z" id="Shape"></path>
                    <path d="M16.4285571,28 L9.57144292,28 C9.0983376,28 8.71432876,28.3840056 8.71432876,28.857107 L8.71432876,38.2856856 L7.85711416,38.2856856 C7.38400884,38.2856856 7,38.6696912 7,39.1427926 C7,39.6158939 7.38400884,40 7.85711416,40 L18.1428858,40 C18.6159912,40 19,39.6159944 19,39.142893 C19,38.6697917 18.6159912,38.285786 18.1428858,38.285786 L17.2857717,38.285786 L17.2857717,28.8572074 C17.2857717,28.3840056 16.9017628,28 16.4285571,28 Z M15.5714429,38.2856856 L10.4285571,38.2856856 L10.4285571,34.8571572 L15.5714429,34.8571572 L15.5714429,38.2856856 Z M15.5714429,33.1428428 L10.4285571,33.1428428 L10.4285571,29.7143144 L15.5714429,29.7143144 L15.5714429,33.1428428 Z" id="Shape"></path>
                </g>
            </g>
        </g>
    </g>
</svg>