<?xml version="1.0" encoding="UTF-8"?>
<svg width="21px" height="21px" viewBox="0 0 21 21" version="1.1" xmlns="http://www.w3.org/2000/svg" xmlns:xlink="http://www.w3.org/1999/xlink">
    <!-- Generator: Sketch 53 (72520) - https://sketchapp.com -->
    <title>instagram_icon</title>
    <desc>Created with Sketch.</desc>
    <g id="Page-1" stroke="none" stroke-width="1" fill="none" fill-rule="evenodd">
        <g id="instagram_icon" fill="#CEB983" fill-rule="nonzero">
            <path d="M15.3154907,0 L5.68450928,0 C2.55001831,0 0,2.55001831 0,5.68450928 L0,15.3156509 C0,18.4499817 2.55001831,21 5.68450928,21 L15.3156509,21 C18.4499817,21 21,18.4499817 21,15.3156509 L21,5.68450928 C21,2.55001831 18.4499817,1.16573418e-15 15.3154907,0 Z M19.7688904,15.3156509 C19.7688904,17.7711411 17.7711411,19.7688904 15.3154907,19.7688904 L5.68450928,19.7688904 C3.22885894,19.7688904 1.23110962,17.7711411 1.23110962,15.3156509 L1.23110962,5.68450928 C1.23110962,3.22885894 3.22885894,1.23110962 5.68450928,1.23110962 L15.3156509,1.23110962 C17.7711411,1.23110962 19.7688904,3.22885894 19.7688904,5.68450928 L19.7688904,15.3156509 Z" id="Shape"></path>
            <path d="M10.5,4.75797271 C7.33378603,4.75797271 4.75797271,7.33378603 4.75797271,10.5 C4.75797271,13.666214 7.33378603,16.2420273 10.5,16.2420273 C13.666214,16.2420273 16.2420273,13.666214 16.2420273,10.5 C16.2420273,7.33378603 13.666214,4.75797271 10.5,4.75797271 Z M10.5,15.0109177 C8.01278687,15.0109177 5.98908233,12.9873733 5.98908233,10.5 C5.98908233,8.01278687 8.01278687,5.98908233 10.5,5.98908233 C12.9873733,5.98908233 15.0109177,8.01278687 15.0109177,10.5 C15.0109177,12.9873733 12.9873733,15.0109177 10.5,15.0109177 Z" id="Shape"></path>
            <path d="M16.3793335,2.7187271 C15.4436646,2.7187271 14.6826324,3.47991943 14.6826324,4.41542817 C14.6826324,5.35109712 15.4436646,6.11228945 16.3793335,6.11228945 C17.3150024,6.11228945 18.0761948,5.35109712 18.0761948,4.41542817 C18.0761948,3.47975923 17.3150024,2.7187271 16.3793335,2.7187271 Z M16.3793335,4.88101958 C16.1226654,4.88101958 15.9137421,4.67209624 15.9137421,4.41542817 C15.9137421,4.15859985 16.1226654,3.94983672 16.3793335,3.94983672 C16.6361618,3.94983672 16.8450852,4.15859985 16.8450852,4.41542817 C16.8450852,4.67209624 16.6361618,4.88101958 16.3793335,4.88101958 Z" id="Shape"></path>
        </g>
    </g>
</svg>