<?xml version="1.0" encoding="UTF-8"?>
<svg width="51px" height="49px" viewBox="0 0 51 49" version="1.1" xmlns="http://www.w3.org/2000/svg" xmlns:xlink="http://www.w3.org/1999/xlink">
    <!-- Generator: sketchtool 53 (72520) - https://sketchapp.com -->
    <title>78D23160-5D54-4561-8324-B189ADBBFAD9</title>
    <desc>Created with sketchtool.</desc>
    <g id="NewContent" stroke="none" stroke-width="1" fill="none" fill-rule="evenodd">
        <g id="LandingPage-MA&amp;C-Atuação-Tab2" transform="translate(-693.000000, -1868.000000)" fill="#9A3F4B" fill-rule="nonzero">
            <g id="Group-6-Copy-6" transform="translate(678.000000, 1852.000000)">
                <g id="letter" transform="translate(15.000000, 16.000000)">
                    <path d="M36.2414141,28.2202153 C35.8224271,28.2202153 35.4829293,28.5534015 35.4829293,28.9643774 L35.4829293,45.9102389 C35.4829293,46.793212 34.7507387,47.5116758 33.8505689,47.5116758 L12.9442001,47.5116758 C11.9752611,47.5116758 11.1868415,46.7382433 11.1868415,45.7876009 C11.1868415,45.4036133 11.1868415,9.97971019 11.1868415,7.19743684 C11.1868415,6.64675687 11.035549,6.07672868 10.718199,5.56990467 C11.8746354,5.56990467 32.5891582,5.56990467 33.7439765,5.56990467 C34.7028024,5.56990467 35.4829293,6.33520099 35.4829293,7.27592114 L35.4829293,25.4915216 C35.4829293,25.9024975 35.8224271,26.2356837 36.2414141,26.2356837 C36.6604011,26.2356837 36.9998989,25.9024975 36.9998989,25.4915216 L36.9998989,7.27592114 C37,5.51443978 35.5393606,4.0814812 33.7439765,4.0814812 L27.330027,4.0814812 L27.330027,3.1166502 C27.330027,1.39823102 25.9050869,0 24.1534927,0 L3.17653426,0 C1.42494007,-9.92216165e-05 0,1.3981318 0,3.11655098 L0,41.802067 C0,43.5201886 1.42433329,44.9180227 3.17552294,44.918618 C3.17562408,44.918618 3.17582634,44.918618 3.17592747,44.918618 L9.66987189,44.918618 L9.66987189,45.7875017 C9.66987189,47.5589052 11.1386018,49 12.9442001,49 L33.8506701,49 C35.5872968,49 37,47.6139732 37,45.9101396 L37,28.9643774 C37,28.5534015 36.6605022,28.2202153 36.2414141,28.2202153 Z M9.66987189,43.4302938 L5.88331361,43.4302938 C6.19611273,42.9255534 6.35195607,42.3653482 6.35195607,41.8027616 L6.35195607,7.19743684 C6.35195607,6.29997732 7.09608021,5.56980544 8.01091398,5.56980544 C8.92564663,5.56980544 9.66987189,6.2998781 9.66987189,7.19743684 L9.66987189,43.4302938 L9.66987189,43.4302938 Z M8.01081285,4.0814812 C6.25962319,4.0814812 4.83488538,5.47921611 4.83488538,7.19743684 L4.83488538,41.8027616 C4.83488538,42.6995266 4.08985106,43.4300953 3.17623086,43.430393 C2.26129596,43.4300953 1.51696956,42.699725 1.51696956,41.8021663 L1.51696956,3.11655098 C1.51696956,2.21879379 2.26139709,1.48832425 3.17643313,1.48832425 L24.1533916,1.48832425 C25.0684276,1.48832425 25.8128552,2.21869457 25.8128552,3.11655098 L25.8128552,4.08138197 L8.01081285,4.08138197 L8.01081285,4.0814812 Z" id="Shape"></path>
                    <path d="M30.2499143,25 L17.7500857,25 C17.3357384,25 17,25.4477333 17,26 C17,26.5522667 17.3357384,27 17.7500857,27 L30.2499143,27 C30.6642616,27 31,26.5522667 31,26 C31,25.4477333 30.6641616,25 30.2499143,25 Z" id="Path"></path>
                    <path d="M30.2499143,28 L17.7500857,28 C17.3357384,28 17,28.4477333 17,29 C17,29.5522667 17.3357384,30 17.7500857,30 L30.2499143,30 C30.6642616,30 31,29.5522667 31,29 C31,28.4477333 30.6641616,28 30.2499143,28 Z" id="Path"></path>
                    <path d="M30.2499143,31 L17.7500857,31 C17.3357384,31 17,31.4477333 17,32 C17,32.5522667 17.3357384,33 17.7500857,33 L30.2499143,33 C30.6642616,33 31,32.5522667 31,32 C31,31.4477333 30.6641616,31 30.2499143,31 Z" id="Path"></path>
                    <path d="M30.2499143,35 L17.7500857,35 C17.3357384,35 17,35.4477333 17,36 C17,36.5522667 17.3357384,37 17.7500857,37 L30.2499143,37 C30.6642616,37 31,36.5522667 31,36 C31,35.4477333 30.6641616,35 30.2499143,35 Z" id="Path"></path>
                    <path d="M30.2499143,38 L17.7500857,38 C17.3357384,38 17,38.4477333 17,39 C17,39.5522667 17.3357384,40 17.7500857,40 L30.2499143,40 C30.6642616,40 31,39.5522667 31,39 C31,38.4477333 30.6641616,38 30.2499143,38 Z" id="Path"></path>
                    <path d="M30.2499143,41 L17.7500857,41 C17.3357384,41 17,41.4477333 17,42 C17,42.5522667 17.3357384,43 17.7500857,43 L30.2499143,43 C30.6642616,43 31,42.5522667 31,42 C31,41.4477333 30.6641616,41 30.2499143,41 Z" id="Path"></path>
                    <path d="M15.2442944,25 L14.7557056,25 C14.3382538,25 14,25.4477333 14,26 C14,26.5522667 14.3382538,27 14.7557056,27 L15.2442944,27 C15.6617462,27 16,26.5522667 16,26 C16,25.4477333 15.6616454,25 15.2442944,25 Z" id="Path"></path>
                    <path d="M15.2442944,28 L14.7557056,28 C14.3382538,28 14,28.4477333 14,29 C14,29.5522667 14.3382538,30 14.7557056,30 L15.2442944,30 C15.6617462,30 16,29.5522667 16,29 C16,28.4477333 15.6616454,28 15.2442944,28 Z" id="Path"></path>
                    <path d="M15.2442944,31 L14.7557056,31 C14.3382538,31 14,31.4477333 14,32 C14,32.5522667 14.3382538,33 14.7557056,33 L15.2442944,33 C15.6617462,33 16,32.5522667 16,32 C16,31.4477333 15.6616454,31 15.2442944,31 Z" id="Path"></path>
                    <path d="M15.2442944,35 L14.7557056,35 C14.3382538,35 14,35.4477333 14,36 C14,36.5522667 14.3382538,37 14.7557056,37 L15.2442944,37 C15.6617462,37 16,36.5522667 16,36 C16,35.4477333 15.6616454,35 15.2442944,35 Z" id="Path"></path>
                    <path d="M30.2499143,15 L17.7500857,15 C17.3357384,15 17,15.4477333 17,16 C17,16.5522667 17.3357384,17 17.7500857,17 L30.2499143,17 C30.6642616,17 31,16.5522667 31,16 C31,15.4477333 30.6641616,15 30.2499143,15 Z" id="Path"></path>
                    <path d="M30.2499143,18 L17.7500857,18 C17.3357384,18 17,18.4477333 17,19 C17,19.5522667 17.3357384,20 17.7500857,20 L30.2499143,20 C30.6642616,20 31,19.5522667 31,19 C31,18.4477333 30.6641616,18 30.2499143,18 Z" id="Path"></path>
                    <path d="M30.2499143,21 L17.7500857,21 C17.3357384,21 17,21.4477333 17,22 C17,22.5522667 17.3357384,23 17.7500857,23 L30.2499143,23 C30.6642616,23 31,22.5522667 31,22 C31,21.4477333 30.6641616,21 30.2499143,21 Z" id="Path"></path>
                    <path d="M15.2442944,15 L14.7557056,15 C14.3382538,15 14,15.4477333 14,16 C14,16.5522667 14.3382538,17 14.7557056,17 L15.2442944,17 C15.6617462,17 16,16.5522667 16,16 C16,15.4477333 15.6616454,15 15.2442944,15 Z" id="Path"></path>
                    <path d="M15.2442944,18 L14.7557056,18 C14.3382538,18 14,18.4477333 14,19 C14,19.5522667 14.3382538,20 14.7557056,20 L15.2442944,20 C15.6617462,20 16,19.5522667 16,19 C16,18.4477333 15.6616454,18 15.2442944,18 Z" id="Path"></path>
                    <path d="M15.2442944,21 L14.7557056,21 C14.3382538,21 14,21.4477333 14,22 C14,22.5522667 14.3382538,23 14.7557056,23 L15.2442944,23 C15.6617462,23 16,22.5522667 16,22 C16,21.4477333 15.6616454,21 15.2442944,21 Z" id="Path"></path>
                    <path d="M30.2499143,11 L17.7500857,11 C17.3357384,11 17,11.4477333 17,12 C17,12.5522667 17.3357384,13 17.7500857,13 L30.2499143,13 C30.6642616,13 31,12.5522667 31,12 C31,11.4477333 30.6641616,11 30.2499143,11 Z" id="Path"></path>
                    <path d="M15.2442944,11 L14.7557056,11 C14.3382538,11 14,11.4477333 14,12 C14,12.5522667 14.3382538,13 14.7557056,13 L15.2442944,13 C15.6617462,13 16,12.5522667 16,12 C16,11.4477333 15.6616454,11 15.2442944,11 Z" id="Path"></path>
                    <path d="M15.2442944,38 L14.7557056,38 C14.3382538,38 14,38.4477333 14,39 C14,39.5522667 14.3382538,40 14.7557056,40 L15.2442944,40 C15.6617462,40 16,39.5522667 16,39 C16,38.4477333 15.6616454,38 15.2442944,38 Z" id="Path"></path>
                    <path d="M15.2442944,41 L14.7557056,41 C14.3382538,41 14,41.4477333 14,42 C14,42.5522667 14.3382538,43 14.7557056,43 L15.2442944,43 C15.6617462,43 16,42.5522667 16,42 C16,41.4477333 15.6616454,41 15.2442944,41 Z" id="Path"></path>
                    <path d="M49.4518947,18.4042656 L49.2097975,18.4677181 L49.7039163,17.475498 C51.5674128,13.7337054 49.650685,9.41213361 46.0192277,8.0483064 C45.6307696,7.90228572 45.1969996,8.09844785 45.0508391,8.48656863 C44.9045783,8.87458933 45.1011632,9.30744708 45.4898219,9.45336769 C48.3037627,10.5102412 49.8163938,13.8775243 48.357395,16.8071456 L47.294373,18.9420101 C46.9428058,19.6479936 47.5895009,20.4442517 48.3555906,20.243786 L49.2791686,20.001786 C48.7808395,21.0639639 48.0005147,22.5944288 46.861806,24.4969012 C46.432447,25.2146944 47.0208984,26.1113355 47.8513468,26.0033463 L48.4064159,25.9310865 C47.8408208,26.8085117 47.0319256,28.0073025 46.0127116,29.3719304 C45.8027939,29.6532629 45.7575823,30.0147617 45.8916129,30.3389296 C46.0256435,30.6627973 46.3127517,30.8868825 46.6596073,30.9384251 L46.8608035,30.9682497 C46.3733011,31.6956509 45.6036025,32.8146758 44.7519017,33.9429083 L44.7519017,15.6947262 C44.7519017,15.2801836 44.4153717,14.9441058 44.0000472,14.9441058 C43.5847228,14.9441058 43.2481927,15.2801836 43.2481927,15.6947262 L43.2481927,33.9430084 C42.3972939,32.8157767 41.6276956,31.6967519 41.1392909,30.9683498 L41.3402867,30.9385252 C41.6875432,30.8869826 41.9747517,30.6627973 42.1085818,30.3387295 C42.2426124,30.0143614 42.1972004,29.6528626 41.9871823,29.3718303 C40.9691713,28.0084034 40.1597749,26.8092123 39.5935783,25.9310865 L40.1484469,26.0033463 C40.9787951,26.1114356 41.5676475,25.2145944 41.1381882,24.4968011 C39.999279,22.5936281 39.2189543,21.0635635 38.7209258,20.001786 L39.6445039,20.243786 C40.4079871,20.4441516 41.0582911,19.6501954 40.7057215,18.9420101 L39.6426995,16.8072457 C38.1856054,13.8810272 39.6926226,10.5117424 42.5102726,9.45346777 C42.8989312,9.30754717 43.0955161,8.87468941 42.9492554,8.48666871 C42.8030948,8.09854793 42.3691244,7.90258597 41.9808667,8.04840649 C38.3459008,9.41353477 36.4344861,13.7371082 38.2962784,17.4755981 L38.7903972,18.4678181 L38.5483,18.4043657 C37.5478323,18.1423491 36.6873097,19.1538852 37.1103532,20.0966644 C37.5340984,21.0408447 38.246255,22.5066562 39.3278228,24.3826067 L39.1890806,24.3644917 C38.165556,24.2315819 37.4478858,25.347204 37.9963386,26.2207259 C38.494367,27.0135812 39.2742907,28.205066 40.2950084,29.608626 C39.5436552,29.9010677 39.2376002,30.8213283 39.6932241,31.5086964 C40.229948,32.3183656 41.3042979,33.9003732 42.4690709,35.3975105 C42.6702672,35.6561243 42.9429398,35.836073 43.2481927,35.9236454 L43.2481927,37.3041864 C42.8648472,37.3386149 42.5644061,37.6597803 42.5644061,38.051404 C42.5644061,38.4430277 42.8648472,38.7641931 43.2481927,38.7986216 L43.2481927,39.4999012 L42.6916199,39.4999012 C41.6940593,39.4999012 40.8824574,40.3101709 40.8824574,41.3061941 C40.8824574,42.1285738 41.4363236,42.8229477 42.1908848,43.0404274 L42.1908848,44.935894 C42.1908848,45.1809966 42.2660702,45.416191 42.4081206,45.615856 L43.0407811,46.5052911 C43.2609241,46.8150471 43.6195086,47 44.0000472,47 C44.3805859,47 44.7391703,46.8150471 44.9592131,46.5055914 L45.5922746,45.6154557 C45.7341245,45.4156906 45.8091094,45.1806963 45.8091094,44.935894 L45.8091094,43.0404274 C46.5635704,42.8229477 47.1175368,42.1285738 47.1175368,41.3061941 C47.1175368,40.3102709 46.3059349,39.4999012 45.3082741,39.4999012 L44.7517013,39.4999012 L44.7517013,38.7986216 C45.1350468,38.7642932 45.4355881,38.4431277 45.4355881,38.051404 C45.4355881,37.6596802 45.1350468,37.3385148 44.7517013,37.3041864 L44.7517013,35.9193418 C45.062167,35.8282666 45.3392505,35.6441144 45.5440557,35.3804965 C46.7050193,33.8865617 47.7733544,32.3133615 48.3068704,31.5085963 C48.7630957,30.8204276 48.4552363,29.9007675 47.7049858,29.608626 C48.7264052,28.2039651 49.5060282,27.0128806 50.0035554,26.2207259 C50.2572812,25.8168922 50.2547751,25.3166787 49.9971396,24.9154471 C49.7394039,24.5140153 49.2847825,24.3032411 48.8112144,24.3645918 L48.6721714,24.3827068 C49.7533382,22.5072567 50.4657956,21.0412451 50.889641,20.0966644 C51.3127847,19.1534848 50.451761,18.1419488 49.4518947,18.4042656 Z M44.3055007,44.831808 L44.0000472,45.2611629 L43.6945938,44.8316078 L43.6945938,43.1122868 L44.3055007,43.1122868 L44.3055007,44.831808 L44.3055007,44.831808 Z M45.3084746,41.001242 C45.47689,41.001242 45.613928,41.1380551 45.613928,41.3061941 C45.613928,41.474333 45.47689,41.6111461 45.3084746,41.6111461 C44.3692579,41.6111461 43.6389566,41.6111461 42.6915196,41.6111461 C42.5231042,41.6111461 42.3860662,41.474333 42.3860662,41.3061941 C42.3860662,41.1380551 42.5231042,41.001242 42.6915196,41.001242 L45.3084746,41.001242 Z" id="Shape"></path>
                </g>
            </g>
        </g>
    </g>
</svg>