<?xml version="1.0" encoding="UTF-8"?>
<svg width="21px" height="21px" viewBox="0 0 21 21" version="1.1" xmlns="http://www.w3.org/2000/svg" xmlns:xlink="http://www.w3.org/1999/xlink">
    <!-- Generator: Sketch 53 (72520) - https://sketchapp.com -->
    <title>linkedin_icon</title>
    <desc>Created with Sketch.</desc>
    <g id="Page-1" stroke="none" stroke-width="1" fill="none" fill-rule="evenodd">
        <g id="linkedin_icon" fill="#CEB983" fill-rule="nonzero">
            <path d="M19.4094084,0 L1.54854292,0 C0.693292343,0 9.74477958e-05,0.672048724 9.74477958e-05,1.50152436 L9.74477958e-05,19.4548677 C9.74477958e-05,20.2843921 0.693535963,20.9570255 1.54854292,20.9570255 L19.4094084,20.9570255 C20.264464,20.9570255 20.9568794,20.2839536 20.9568794,19.4548677 L20.9568794,1.50152436 C20.9568794,0.672292343 20.264464,0 19.4094084,0 Z M6.35359629,17.5424548 L3.18717633,17.5424548 L3.18717633,8.08061485 L6.35359629,8.08061485 L6.35359629,17.5424548 Z M4.77070302,6.78796984 L4.74941067,6.78796984 C3.68757077,6.78796984 2.99924826,6.06178886 2.99924826,5.15264965 C2.99924826,4.22519026 3.70779118,3.51869374 4.79067981,3.51869374 C5.87366589,3.51869374 6.53981903,4.22499536 6.56086775,5.15264965 C6.56086775,6.06198376 5.87390951,6.78796984 4.77070302,6.78796984 Z M17.7676079,17.5424548 L14.6022111,17.5424548 L14.6022111,12.4800418 C14.6022111,11.208007 14.1435731,10.3400394 12.9988538,10.3400394 C12.1231392,10.3400394 11.6033039,10.9256032 11.3750325,11.4909466 C11.2904478,11.6928585 11.2694965,11.9752622 11.2694965,12.2572761 L11.2694965,17.5422599 L8.10468445,17.5422599 C8.10468445,17.5422599 8.14609977,8.96787703 8.10468445,8.08046868 L11.2699838,8.08046868 L11.2699838,9.42188631 C11.6901787,8.77731787 12.4410626,7.85784919 14.1219884,7.85784919 C16.2054223,7.85784919 17.7676079,9.20940139 17.7676079,12.117 L17.7676079,17.5424548 Z M11.2643898,9.49332877 C11.2754898,9.47512877 11.2909898,9.45322877 11.3063898,9.43192877 L11.3063898,9.49332877 L11.2643898,9.49332877 Z" id="LinkedIn__x28_alt_x29_"></path>
        </g>
    </g>
</svg>