<?xml version="1.0" encoding="UTF-8"?>
<svg width="188px" height="73px" viewBox="0 0 188 73" version="1.1" xmlns="http://www.w3.org/2000/svg" xmlns:xlink="http://www.w3.org/1999/xlink">
    <!-- Generator: sketchtool 53 (72520) - https://sketchapp.com -->
    <title>0F04BEA4-68CD-43BB-A677-9B8A26113CBE</title>
    <desc>Created with sketchtool.</desc>
    <defs>
        <polygon id="path-1" points="0.000163888265 0.288719101 58.9133028 0.288719101 58.9133028 72.9997539 0.000163888265 72.9997539"></polygon>
    </defs>
    <g id="NewContent" stroke="none" stroke-width="1" fill="none" fill-rule="evenodd">
        <g id="LandingPage-MA&amp;C-Atuação-Tab1" transform="translate(-728.000000, -2662.000000)">
            <g id="Footer" transform="translate(0.000000, 2213.000000)">
                <g id="Group-10">
                    <g transform="translate(728.000000, 449.000000)">
                        <g id="Group-3">
                            <mask id="mask-2" fill="white">
                                <use xlink:href="#path-1"></use>
                            </mask>
                            <g id="Clip-2"></g>
                            <path d="M0.000163888265,0.288473034 L0.000163888889,22.0957876 C0.000163888889,26.5159787 -0.000655555556,37.6062371 1.87587222,41.7614955 C6.90234444,52.899327 16.6381639,63.2185742 29.4559139,72.9997539 C42.2744833,63.2185742 52.0103028,52.899327 57.0375944,41.7614955 C58.9133028,37.6062371 58.9133028,26.5159787 58.9133028,22.0957876 L58.9133028,0.288473034 L54.0523583,4.86368652 L54.0580944,4.86368652 L54.0580944,22.0957876 C54.0580944,25.7014955 54.1285667,36.4054281 52.6134139,39.7609674 C47.8352333,50.3459674 38.60665,59.5070573 29.4559139,66.8357652 C28.3422889,65.9433607 27.2278444,65.0238888 26.1191361,64.0781697 C34.1144556,56.8044169 43.6560667,47.8049112 48.1892333,37.7604393 C49.3430111,35.2046191 49.2037056,24.8517427 49.2037056,22.0957876 L49.2037056,9.72269775 L48.8914972,9.72269775 L43.7289972,14.5825292 L44.3493167,14.5825292 L44.3493167,22.0957876 C44.3493167,23.9011022 44.5246778,34.0768101 43.7658722,35.7599112 C40.6683722,42.6219112 35.1518722,48.8523382 29.4559139,54.0681472 C23.760775,48.8523382 18.2450944,42.6219112 15.146775,35.7599112 C14.3887889,34.0768101 14.5633306,23.9011022 14.5633306,22.0957876 L14.5633306,14.5825292 L15.18365,14.5825292 L10.0219694,9.72269775 L9.70894167,9.72269775 L9.70894167,22.0957876 C9.70894167,24.8517427 9.56963611,35.2046191 10.7234139,37.7604393 C14.0511778,45.1317989 19.8217056,51.8010461 26.0134278,57.4991472 C24.1172333,59.3462933 22.2112056,61.1089562 20.2535528,62.882282 L21.8703167,60.2756079 C15.4983167,54.2789449 9.74335833,47.3898775 6.29923333,39.7609674 C4.7849,36.4054281 4.85455278,25.7014955 4.85455278,22.0957876 L4.85455278,4.86368652 L4.86028889,4.86368652 L0.000163888265,0.288473034 Z" id="Fill-1" fill="#852E3B" mask="url(#mask-2)"></path>
                        </g>
                        <polygon id="Fill-4" fill="#852E3B" points="29.5 22 7 2 29.5 6.21359144 52 2"></polygon>
                        <path d="M142.618087,33.1076992 C141.902694,31.8836915 141.570049,30.6365113 141.570049,29.193192 C141.570049,28.2795311 141.789348,27.3890428 142.250945,26.598693 C143.381117,24.6596465 145.565077,23.8742622 147.706327,23.8858485 C149.52643,23.8957796 151.679179,24.628198 152.858632,26.0806208 C152.892307,26.1211728 152.904627,26.1683455 152.897235,26.2204838 L152.383894,29.5987117 C152.369931,29.6856088 152.29601,29.7493334 152.208947,29.7493334 L151.912441,29.7493334 C151.814701,29.7493334 151.735852,29.6698846 151.735852,29.5714012 C151.735852,27.0348337 150.320672,25.1379943 147.700577,25.1379943 C145.418878,25.1379943 143.967559,26.9860058 143.967559,29.193192 C143.967559,29.5730564 144.006983,29.9504381 144.089939,30.3220266 C144.602459,32.6161099 146.940011,34.714054 148.608986,36.2194427 C149.349019,36.8873089 150.082482,37.5642787 150.824979,38.2296621 C151.802381,39.1060814 152.792103,39.9651212 153.796609,40.8076092 C154.440545,39.1830474 154.496396,37.2340697 153.72351,35.6492322 C153.361296,34.9052276 152.833992,34.3904658 151.971578,34.3904658 L151.507517,34.3904658 C151.409777,34.3904658 151.330928,34.311017 151.330928,34.2125336 L151.330928,33.9146007 C151.330928,33.8161174 151.409777,33.7366686 151.507517,33.7366686 L157.42696,33.7366686 C157.5247,33.7366686 157.604371,33.8161174 157.604371,33.9146007 L157.604371,34.2125336 C157.604371,34.311017 157.5247,34.3904658 157.42696,34.3904658 L156.977683,34.3904658 C156.246685,34.3904658 155.918147,34.809227 156.055312,35.5275763 C156.474198,37.7124175 156.306644,40.0586391 155.232323,42.0340997 C156.608899,43.232452 158.374793,44.7742547 160.22118,44.9157728 C160.312349,44.9223935 160.383806,45.0001871 160.383806,45.0928774 L160.383806,45.3916378 C160.383806,45.4892936 160.304136,45.56957 160.207217,45.56957 C159.261847,45.56957 158.444608,45.5935701 157.495953,45.433845 C156.148945,45.2062574 154.922675,44.6898404 153.840141,43.8548007 C149.578175,47.8727568 139.10601,46.1157803 139.10601,38.6947685 C139.10601,36.1209593 140.446447,34.2712926 142.618087,33.1076992 L142.618087,33.1076992 Z M152.556377,42.7979665 C150.670566,41.2255429 148.806931,39.6299467 147.004076,37.9606949 C145.747416,36.7971015 144.374125,35.5399902 143.329373,34.1661885 C137.08632,40.3921584 147.399965,48.3850358 152.556377,42.7979665 L152.556377,42.7979665 Z M118.137861,33.4759773 L127.658907,33.4759773 L123.001053,20.9752097 L118.137861,33.4759773 Z M128.315984,35.2329538 L117.451216,35.2329538 L114.736667,42.2310664 C114.537901,42.7905182 114.496012,43.4252807 114.872189,43.9201804 C115.158017,44.2959069 115.625363,44.5019771 116.090245,44.5019771 L116.457387,44.5019771 C116.59373,44.5019771 116.705434,44.613702 116.705434,44.7510821 L116.705434,45.1632226 C116.705434,45.3014304 116.59373,45.4131552 116.457387,45.4131552 L108.086226,45.4131552 C107.949882,45.4131552 107.838179,45.3014304 107.838179,45.1632226 L107.838179,44.7444614 C107.838179,44.6070812 107.949882,44.4945288 108.086226,44.4945288 L108.459938,44.4945288 C110.012283,44.4945288 111.261551,43.3714873 111.876739,42.0150651 L121.304151,19.4615451 C121.668008,18.6562987 122.820356,16.0237305 122.820356,15.2499326 C122.820356,15.1117248 122.93206,15 123.068403,15 L123.442937,15 C123.544784,15 123.632668,15.0579314 123.672093,15.153932 L134.784086,42.0076167 C135.405024,43.3772804 136.654292,44.4945288 138.210743,44.4945288 L138.563922,44.4945288 C138.700265,44.4945288 138.811968,44.6070812 138.811968,44.7444614 L138.811968,45.1632226 C138.811968,45.3014304 138.700265,45.4131552 138.563922,45.4131552 L129.201396,45.4131552 C129.065052,45.4131552 128.953349,45.3014304 128.953349,45.1632226 L128.953349,44.7510821 C128.953349,44.613702 129.065052,44.5019771 129.201396,44.5019771 L129.561967,44.5019771 C130.030955,44.5019771 130.504051,44.2909413 130.790701,43.9110769 C131.169341,43.4087289 131.119239,42.7690008 130.909796,42.2070663 L128.315984,35.2329538 Z M187.405277,32.6872827 L187.751885,32.6872827 C187.824164,32.6872827 187.884943,32.7137657 187.934224,32.7667315 C187.982683,32.8205249 188.00486,32.8842495 187.99911,32.9562499 L187.493982,39.5339461 C187.490697,39.5744981 187.479198,39.6092569 187.457843,39.6448434 C184.802431,44.0128706 180.582354,46.0148141 175.561464,45.9999175 C166.453555,45.9734346 160.464298,39.5728429 160.464298,30.4577516 C160.464298,21.1688661 166.580043,15 175.804582,15 C179.32323,15 182.822165,15.9111781 185.774905,17.8692593 C185.836506,17.9098113 185.873466,17.9693978 185.884144,18.0422259 L186.721917,23.9636421 C186.733416,24.0381253 186.713704,24.1068154 186.664423,24.1630916 C186.615142,24.2193678 186.551077,24.2491611 186.477156,24.2491611 L186.131369,24.2491611 C186.016381,24.2491611 185.919462,24.1738503 185.890715,24.0621255 C184.64309,19.220716 180.612743,16.7569765 175.798012,16.7569765 C173.2773,16.7569765 170.856793,17.4347738 168.839566,18.9914732 C165.352951,21.6819727 164.078222,26.1542765 164.078222,30.416372 C164.078222,34.8944689 165.489295,39.5620842 169.273237,42.2426527 C171.133586,43.5601781 173.306047,44.1891476 175.561464,44.2437686 C182.696499,44.2263892 186.386808,39.9444314 187.158873,32.9090772 C187.172836,32.7816282 187.27879,32.6872827 187.405277,32.6872827 L187.405277,32.6872827 Z M97.886748,22.8695663 L89.5361206,41.5723037 C88.9849972,42.8062424 88.3353123,44.4539768 88.1275117,45.7888817 C88.1077994,45.9113652 88.0051311,45.9999175 87.8819292,45.9999175 L87.4942538,45.9999175 C87.3948709,45.9999175 87.3102722,45.9452965 87.2692049,45.8542614 L77.0204462,23.459639 L75.2808349,42.9998988 C75.2143058,43.7530069 75.9058794,44.5160462 76.6557685,44.5160462 L77.3005253,44.5160462 C77.4368688,44.5160462 77.5477505,44.627771 77.5477505,44.7659788 L77.5477505,45.1632226 C77.5477505,45.3014304 77.4368688,45.4131552 77.3005253,45.4131552 L69.2472252,45.4131552 C69.1108817,45.4131552 69,45.3014304 69,45.1632226 L69,44.7444614 C69,44.6070812 69.1108817,44.4945288 69.2472252,44.4945288 L69.9125157,44.4945288 C71.3433009,44.4945288 72.5243968,43.5535574 72.6952368,42.0903759 L75.8270301,15.2209669 C75.8418144,15.0943454 75.9469467,15 76.073434,15 L76.4545387,15 C76.5539216,15 76.6376989,15.054621 76.6795875,15.1448285 L88.0601613,39.9262244 L99.1803684,15.1605527 C99.222257,15.0695177 99.3068557,15.0140691 99.40706,15.0140691 L99.7807725,15.0140691 C99.9072598,15.0140691 100.011571,15.1075869 100.027176,15.2333808 L103.25671,42.0895483 C103.433299,43.554385 104.61111,44.4945288 106.046002,44.4945288 L106.7039,44.4945288 C106.840244,44.4945288 106.951947,44.6070812 106.951947,44.7444614 L106.951947,45.1632226 C106.951947,45.3014304 106.840244,45.4131552 106.7039,45.4131552 L97.6666272,45.4131552 C97.5302837,45.4131552 97.419402,45.3014304 97.419402,45.1632226 L97.419402,44.7659788 C97.419402,44.627771 97.5302837,44.5160462 97.6666272,44.5160462 L98.311384,44.5160462 C99.0612732,44.5160462 99.7536681,43.7530069 99.6863177,42.9998988 L97.886748,22.8695663 Z" id="Fill-6" fill="#FFFFFE"></path>
                        <path d="M83.5535666,56.061439 L84.1631949,57.8876314 L85.1305593,57.8876314 L83.1712157,52.3605497 L82.0159578,52.3605497 L80,57.8876314 L80.9509545,57.8876314 L81.5614032,56.061439 L83.5535666,56.061439 Z M81.7968855,55.3645918 L82.5779973,53.0897332 L83.3172639,55.3645918 L81.7968855,55.3645918 Z M89.9772271,52 L89.0828868,52 L89.0828868,54.2109943 L88.7989953,53.7865804 C88.5791025,53.6184317 88.1319324,53.5214228 87.7741962,53.5214228 C86.6599632,53.5214228 85.6843938,54.2748585 85.6843938,55.829426 C85.6843938,57.0784155 86.3916611,58 87.6273275,58 C88.0662927,58 88.5134628,57.8722716 88.7579705,57.6798707 L89.0828868,57.2150364 L89.0828868,57.8876314 L89.9772271,57.8876314 L89.9772271,52 Z M87.8308104,57.3589329 C87.0579035,57.3589329 86.6279638,56.6782538 86.6279638,55.7574778 C86.6279638,54.6992724 87.1637475,54.1624899 87.8718352,54.1624899 C88.4486437,54.1624899 89.0828868,54.5472918 89.0828868,55.5804365 L89.0828868,55.8051738 C89.0828868,56.9426031 88.5060784,57.3589329 87.8308104,57.3589329 L87.8308104,57.3589329 Z M95.2390656,53.6345998 L94.2872907,53.6345998 L93.0918285,57.2392886 L91.880777,53.6345998 L90.8970027,53.6345998 L92.5470194,57.8876314 L93.5882284,57.8876314 L95.2390656,53.6345998 Z M97.906497,53.5214228 C96.4509377,53.5214228 95.7190556,54.5149555 95.7190556,55.7574778 C95.7190556,56.9991916 96.4509377,58 97.906497,58 C99.3538513,58 100.093938,56.9991916 100.093938,55.7574778 C100.093938,54.5149555 99.3538513,53.5214228 97.906497,53.5214228 L97.906497,53.5214228 Z M97.906497,57.3589329 C97.1180007,57.3589329 96.6626256,56.7178658 96.6626256,55.7574778 C96.6626256,54.7962813 97.1180007,54.1624899 97.906497,54.1624899 C98.6867883,54.1624899 99.1429839,54.7962813 99.1429839,55.7574778 C99.1429839,56.7178658 98.6867883,57.3589329 97.906497,57.3589329 L97.906497,57.3589329 Z M102.973058,53.5214228 C101.843235,53.5214228 100.883255,54.331447 100.883255,55.7809216 C100.883255,57.2950687 101.737391,58 102.867214,58 C103.883808,58 104.631279,57.4955538 104.834762,56.4785772 L103.924012,56.4785772 C103.793553,57.0549717 103.428433,57.3589329 102.916443,57.3589329 C102.3142,57.3589329 101.826825,56.8706548 101.826825,55.7170574 C101.826825,54.6515764 102.322405,54.1624899 102.948443,54.1624899 C103.476842,54.1624899 103.826373,54.4591754 103.956832,55.1083266 L104.859377,55.1083266 C104.753533,54.170574 104.062676,53.5214228 102.973058,53.5214228 L102.973058,53.5214228 Z M108.445764,57.8876314 L109.331899,57.8876314 C109.26708,57.4155214 109.25067,57.12692 109.25067,56.8067906 L109.25067,55.3088116 C109.25067,55.1083266 109.242465,54.8835893 109.226055,54.7081649 C109.153031,53.9870655 108.714066,53.5214228 107.600653,53.5214228 C106.616058,53.5214228 105.908791,54.0509297 105.852177,54.9805982 L106.746517,54.9805982 C106.794926,54.4510914 107.063228,54.1624899 107.584243,54.1624899 C108.096232,54.1624899 108.315305,54.4033953 108.33992,54.7477769 C108.35633,54.9078416 108.35633,55.0517381 108.35633,55.2126112 L108.35633,55.3168957 L108.079823,55.3168957 C106.445395,55.3168957 105.681514,55.829426 105.681514,56.7744543 C105.681514,57.567502 106.306731,58 107.071433,58 C107.478399,58 107.852545,57.9280517 108.144642,57.7275667 L108.364534,57.2716249 L108.445764,57.8876314 Z M107.39717,57.3589329 C106.925385,57.3589329 106.624263,57.1511722 106.624263,56.7016977 C106.624263,56.0533549 107.307736,55.821342 108.35633,55.9013743 L108.35633,56.2942603 C108.35633,56.9830234 107.957569,57.3589329 107.39717,57.3589329 L107.39717,57.3589329 Z M112.47932,53.5214228 C111.349498,53.5214228 110.389518,54.331447 110.389518,55.7809216 C110.389518,57.2950687 111.243654,58 112.373476,58 C113.39007,58 114.138362,57.4955538 114.341025,56.4785772 L113.431095,56.4785772 C113.300636,57.0549717 112.934695,57.3589329 112.422706,57.3589329 C111.821283,57.3589329 111.333088,56.8706548 111.333088,55.7170574 C111.333088,54.6515764 111.828667,54.1624899 112.455526,54.1624899 C112.983925,54.1624899 113.333456,54.4591754 113.463094,55.1083266 L114.36564,55.1083266 C114.259796,54.170574 113.568938,53.5214228 112.47932,53.5214228 L112.47932,53.5214228 Z M115.911453,52.1519806 C115.611152,52.1519806 115.391259,52.3686338 115.391259,52.6572352 C115.391259,52.9531124 115.611152,53.1689572 115.911453,53.1689572 C116.212575,53.1689572 116.440673,52.9531124 116.440673,52.6572352 C116.440673,52.3686338 116.212575,52.1519806 115.911453,52.1519806 L115.911453,52.1519806 Z M115.464283,57.8884398 L116.358624,57.8884398 L116.358624,53.6345998 L115.464283,53.6345998 L115.464283,57.8884398 Z M120.319156,57.8876314 L121.205291,57.8876314 C121.140472,57.4155214 121.124062,57.12692 121.124062,56.8067906 L121.124062,55.3088116 C121.124062,55.1083266 121.115857,54.8835893 121.099447,54.7081649 C121.026423,53.9870655 120.587458,53.5214228 119.473225,53.5214228 C118.489451,53.5214228 117.782184,54.0509297 117.725569,54.9805982 L118.61991,54.9805982 C118.668319,54.4510914 118.937441,54.1624899 119.456815,54.1624899 C119.969625,54.1624899 120.188697,54.4033953 120.213312,54.7477769 C120.229722,54.9078416 120.229722,55.0517381 120.229722,55.2126112 L120.229722,55.3168957 L119.953215,55.3168957 C118.318788,55.3168957 117.554906,55.829426 117.554906,56.7744543 C117.554906,57.567502 118.180944,58 118.944826,58 C119.351792,58 119.725117,57.9280517 120.018034,57.7275667 L120.237927,57.2716249 L120.319156,57.8876314 Z M119.270563,57.3589329 C118.798778,57.3589329 118.497656,57.1511722 118.497656,56.7016977 C118.497656,56.0533549 119.181129,55.821342 120.229722,55.9013743 L120.229722,56.2942603 C120.229722,56.9830234 119.830961,57.3589329 119.270563,57.3589329 L119.270563,57.3589329 Z M128.840824,55.6531932 C128.840824,54.4510914 128.165556,53.5214228 126.91348,53.5214228 C125.669608,53.5214228 124.799883,54.4276475 124.799883,55.7728375 C124.799883,57.2789006 125.669608,58 126.824046,58 C127.767616,58 128.588932,57.519806 128.775184,56.5101051 L127.873459,56.5101051 C127.783205,57.0468876 127.37706,57.3589329 126.856865,57.3589329 C126.271031,57.3589329 125.800067,57.0226354 125.726222,56.0056589 L128.824414,56.0056589 C128.840824,55.8536783 128.840824,55.7332255 128.840824,55.6531932 L128.840824,55.6531932 Z M126.88148,54.1624899 C127.506698,54.1624899 127.85705,54.6038804 127.921869,55.3880356 L125.734427,55.3880356 C125.832066,54.5715441 126.271031,54.1624899 126.88148,54.1624899 L126.88148,54.1624899 Z M135.077411,52.2481811 C133.499598,52.2481811 132.39357,53.4098626 132.39357,55.148747 C132.39357,56.8310428 133.378165,58 134.979772,58 C136.443537,58 137.264853,57.174616 137.378902,56.0937753 L137.386286,56.0129345 L136.500151,56.0129345 L136.484561,56.0937753 C136.329488,56.8383185 135.865908,57.3265966 135.020797,57.3265966 C134.028818,57.3265966 133.361755,56.4785772 133.361755,55.1083266 C133.361755,53.8027486 134.020613,52.9215845 135.061001,52.9215845 C135.906932,52.9215845 136.369692,53.3936944 136.524766,54.1390461 L136.540355,54.2190784 L137.427311,54.2190784 L137.418285,54.1390461 C137.305057,53.0493129 136.540355,52.2481811 135.077411,52.2481811 L135.077411,52.2481811 Z M140.500887,53.5214228 C139.046149,53.5214228 138.314267,54.5149555 138.314267,55.7574778 C138.314267,56.9991916 139.046149,58 140.500887,58 C141.948242,58 142.688329,56.9991916 142.688329,55.7574778 C142.688329,54.5149555 141.948242,53.5214228 140.500887,53.5214228 L140.500887,53.5214228 Z M140.500887,57.3589329 C139.712391,57.3589329 139.257837,56.7178658 139.257837,55.7574778 C139.257837,54.7962813 139.712391,54.1624899 140.500887,54.1624899 C141.281999,54.1624899 141.737374,54.7962813 141.737374,55.7574778 C141.737374,56.7178658 141.281999,57.3589329 140.500887,57.3589329 L140.500887,57.3589329 Z M147.617046,54.7396928 C147.534997,53.9943411 147.006597,53.5214228 146.080258,53.5214228 C145.649498,53.5214228 145.331966,53.5941795 144.99064,53.8504446 L144.697723,54.3395311 L144.697723,53.6345998 L143.803382,53.6345998 L143.803382,57.8876314 L144.697723,57.8876314 L144.697723,55.9814066 C144.697723,54.6515764 145.202328,54.170574 145.820161,54.170574 C146.429789,54.170574 146.689886,54.5076799 146.73009,54.9878739 C146.747321,55.2037187 146.747321,55.3880356 146.747321,55.589329 L146.747321,57.8876314 L147.640841,57.8876314 L147.640841,55.4923201 C147.640841,55.148747 147.633456,54.956346 147.617046,54.7396928 L147.617046,54.7396928 Z M150.446936,53.5214228 C149.486956,53.5214228 148.853533,54.0024252 148.853533,54.7962813 C148.853533,55.5408246 149.438547,55.869038 150.227863,56.069523 C150.958925,56.261924 151.251842,56.4624091 151.251842,56.8310428 C151.251842,57.1988682 150.918721,57.3751011 150.50437,57.3751011 C150.0572,57.3751011 149.690439,57.1584479 149.585415,56.6143897 L148.68287,56.6143897 C148.804303,57.5755861 149.512391,58 150.471551,58 C151.4143,58 152.154387,57.5917542 152.154387,56.7663703 C152.154387,56.0129345 151.658808,55.6451091 150.715238,55.4050121 C150.07279,55.236055 149.756078,55.0759903 149.756078,54.6919968 C149.756078,54.371059 149.959561,54.1390461 150.382117,54.1390461 C150.821082,54.1390461 151.090204,54.4033953 151.178818,54.8520614 L152.089568,54.8520614 C151.991929,54.0743735 151.438915,53.5214228 150.446936,53.5214228 L150.446936,53.5214228 Z M157.017465,53.6345998 L156.13133,53.6345998 L156.13133,55.6370251 C156.13133,56.8706548 155.659545,57.3427648 155.033506,57.3427648 C154.480492,57.3427648 154.171165,57.0388036 154.106346,56.5739693 C154.082552,56.3581245 154.074347,56.1253032 154.074347,55.9894907 L154.074347,53.6345998 L153.188212,53.6345998 L153.188212,56.1657235 C153.188212,56.5101051 153.196417,56.7016977 153.228416,56.9191593 C153.326055,57.5036378 153.846249,58 154.740589,58 C155.17217,58 155.488881,57.9280517 155.830208,57.6879547 L156.13133,57.1584479 L156.13133,57.8876314 L157.017465,57.8876314 L157.017465,53.6345998 Z M159.351775,52 L158.457435,52 L158.457435,56.6143897 C158.457435,56.8706548 158.457435,57.0630558 158.46564,57.2231205 C158.498459,57.7679871 158.815991,57.9361358 159.286956,57.9361358 C159.490439,57.9361358 159.693101,57.9199677 159.87279,57.8965238 L159.87279,57.2789006 C159.490439,57.3112369 159.37639,57.2312045 159.35998,56.9902991 C159.351775,56.8625707 159.351775,56.7348424 159.351775,56.5901374 L159.351775,52 Z M162.011822,54.2829426 L162.856932,54.2829426 L162.856932,53.6661277 L162.011822,53.6661277 L162.011822,52.6491512 L161.125687,52.6491512 L161.125687,53.6661277 L160.515238,53.6661277 L160.515238,54.2829426 L161.125687,54.2829426 L161.125687,56.5901374 C161.125687,56.8310428 161.125687,57.0145513 161.133071,57.1584479 C161.174096,57.7194826 161.467013,57.9676637 162.14146,57.9676637 C162.361353,57.9676637 162.573041,57.952304 162.800318,57.9199677 L162.800318,57.3112369 C162.214484,57.367017 162.052026,57.2789006 162.020027,56.8625707 C162.011822,56.7510105 162.011822,56.6540016 162.011822,56.5101051 L162.011822,54.2829426 Z M165.760666,53.5214228 C164.305107,53.5214228 163.573225,54.5149555 163.573225,55.7574778 C163.573225,56.9991916 164.305107,58 165.760666,58 C167.208021,58 167.947287,56.9991916 167.947287,55.7574778 C167.947287,54.5149555 167.208021,53.5214228 165.760666,53.5214228 L165.760666,53.5214228 Z M165.760666,57.3589329 C164.97135,57.3589329 164.516795,56.7178658 164.516795,55.7574778 C164.516795,54.7962813 164.97135,54.1624899 165.760666,54.1624899 C166.541778,54.1624899 166.996333,54.7962813 166.996333,55.7574778 C166.996333,56.7178658 166.541778,57.3589329 165.760666,57.3589329 L165.760666,57.3589329 Z M170.989685,53.5303153 C170.770613,53.5303153 170.5179,53.6184317 170.323443,53.7704123 L169.957502,54.3548909 L169.957502,53.6345998 L169.063161,53.6345998 L169.063161,57.8876314 L169.957502,57.8876314 L169.957502,55.676637 C169.957502,54.6273242 170.469491,54.2109943 171.290807,54.2667745 L171.290807,53.5780113 C171.200553,53.5464834 171.111939,53.5303153 170.989685,53.5303153 L170.989685,53.5303153 Z M172.706162,52.1519806 C172.40504,52.1519806 172.185147,52.3686338 172.185147,52.6572352 C172.185147,52.9531124 172.40504,53.1689572 172.706162,53.1689572 C173.006463,53.1689572 173.234561,52.9531124 173.234561,52.6572352 C173.234561,52.3686338 173.006463,52.1519806 172.706162,52.1519806 L172.706162,52.1519806 Z M172.258992,57.8884398 L173.153332,57.8884398 L173.153332,53.6345998 L172.258992,53.6345998 L172.258992,57.8884398 Z M177.113865,57.8876314 L178,57.8876314 C177.93436,57.4155214 177.918771,57.12692 177.918771,56.8067906 L177.918771,55.3088116 C177.918771,55.1083266 177.910566,54.8835893 177.894156,54.7081649 C177.821132,53.9870655 177.381346,53.5214228 176.267934,53.5214228 C175.284159,53.5214228 174.576892,54.0509297 174.520278,54.9805982 L175.414618,54.9805982 C175.463848,54.4510914 175.73133,54.1624899 176.252344,54.1624899 C176.764334,54.1624899 176.983406,54.4033953 177.008021,54.7477769 C177.024431,54.9078416 177.024431,55.0517381 177.024431,55.2126112 L177.024431,55.3168957 L176.747924,55.3168957 C175.113496,55.3168957 174.349615,55.829426 174.349615,56.7744543 C174.349615,57.567502 174.975653,58 175.739534,58 C176.1465,58 176.520646,57.9280517 176.812743,57.7275667 L177.032636,57.2716249 L177.113865,57.8876314 Z M176.065271,57.3589329 C175.593486,57.3589329 175.293185,57.1511722 175.293185,56.7016977 C175.293185,56.0533549 175.975837,55.821342 177.024431,55.9013743 L177.024431,56.2942603 C177.024431,56.9830234 176.62649,57.3589329 176.065271,57.3589329 L176.065271,57.3589329 Z" id="Fill-8" fill="#898A89"></path>
                    </g>
                </g>
            </g>
        </g>
    </g>
</svg>