<?xml version="1.0" encoding="UTF-8"?>
<svg width="105px" height="24px" viewBox="0 0 105 24" version="1.1" xmlns="http://www.w3.org/2000/svg" xmlns:xlink="http://www.w3.org/1999/xlink">
    <!-- Generator: sketchtool 53 (72520) - https://sketchapp.com -->
    <title>C55DD6AB-9C12-4313-9CC4-7B4A74471D6E</title>
    <desc>Created with sketchtool.</desc>
    <g id="NewContent" stroke="none" stroke-width="1" fill="none" fill-rule="evenodd">
        <g id="LandingPage-MA&amp;C-Atuação-Tab1" transform="translate(-1115.000000, -2775.000000)" fill="#4B4C50">
            <g id="Footer" transform="translate(0.000000, 2213.000000)">
                <g id="Concore-footer">
                    <g transform="translate(1033.000000, 562.000000)">
                        <g id="logo" transform="translate(82.000000, 0.000000)">
                            <polygon id="Fill-1" points="6 3.24980716 6 9.74942147 11.5 13 17 9.74942147 17 3.24980716 11.5 0"></polygon>
                            <polygon id="Fill-2" points="0 14.2498072 0 20.7501928 5.49924471 24 11 20.7501928 11 14.2498072 5.49924471 11"></polygon>
                            <polygon id="Fill-3" points="13 14.2498072 13 20.7501928 18.5 24 24 20.7501928 24 14.2498072 18.5 11"></polygon>
                            <g id="Group-18" transform="translate(32.000000, 8.000000)">
                                <path d="M2.37542,7.77354545 C1.84059895,7.43809091 1.41796737,6.98236364 1.10675684,6.40636364 C0.794777895,5.83036364 0.639556842,5.20036364 0.639556842,4.51636364 C0.639556842,3.83890909 0.794777895,3.213 1.10675684,2.637 C1.41796737,2.061 1.84059895,1.60363636 2.37542,1.26490909 C2.90947263,0.926181818 3.49193579,0.756818182 4.12127263,0.756818182 C4.61306211,0.756818182 5.08179895,0.861545455 5.52748316,1.071 C5.97393579,1.27963636 6.36045158,1.58072727 6.68856737,1.971 C6.72775684,2.01354545 6.74696737,2.05936364 6.74696737,2.10763636 C6.74696737,2.14936364 6.72468316,2.19518182 6.67857789,2.24345455 C6.54103053,2.36290909 6.40348316,2.48645455 6.26516737,2.61572727 C6.12762,2.745 6.03233579,2.83418182 5.98008316,2.88245455 C5.94089368,2.92418182 5.89478842,2.94545455 5.84253579,2.94545455 C5.79643053,2.94545455 5.75339895,2.92418182 5.71497789,2.88245455 C5.50443053,2.63863636 5.26237789,2.45127273 4.98651474,2.32281818 C4.71142,2.19354545 4.42249368,2.12890909 4.12127263,2.12890909 C3.72784105,2.12890909 3.36207263,2.23690909 3.02473579,2.45290909 C2.68663053,2.66972727 2.41998842,2.95936364 2.22250421,3.32263636 C2.02578842,3.68590909 1.92743053,4.08354545 1.92743053,4.51636364 C1.92743053,4.94918182 2.02578842,5.34681818 2.22250421,5.71090909 C2.41998842,6.07336364 2.68663053,6.363 3.02473579,6.57981818 C3.36207263,6.79663636 3.72784105,6.90463636 4.12127263,6.90463636 C4.40328316,6.90463636 4.67530421,6.84490909 4.93733579,6.72627273 C5.19936737,6.60763636 5.43604105,6.43663636 5.64582,6.21327273 C5.71113579,6.15681818 5.78336737,6.129 5.86251474,6.129 C5.92783053,6.129 5.98008316,6.15027273 6.01927263,6.192 C6.08535684,6.24845455 6.17679895,6.32945455 6.29513579,6.43827273 C6.41270421,6.54627273 6.51490421,6.642 6.60019895,6.72627273 C6.67166211,6.78927273 6.70777789,6.86618182 6.70777789,6.95618182 C6.70777789,7.01181818 6.68856737,7.06172727 6.64937789,7.10345455 C6.32126211,7.48063636 5.93935684,7.77027273 5.50289368,7.97236364 C5.06719895,8.17445455 4.60614632,8.27590909 4.12127263,8.27590909 C3.49193579,8.27590909 2.90947263,8.10818182 2.37542,7.77354545" id="Fill-4"></path>
                                <path d="M16.8384874,6.10838182 C17.0152242,5.89156364 17.1435505,5.68538182 17.2226979,5.48983636 C17.3533295,5.16992727 17.4186453,4.84101818 17.4186453,4.50556364 C17.4186453,4.04574545 17.3010768,3.61374545 17.0644032,3.21283636 C16.8284979,2.81110909 16.5042242,2.51247273 16.0908137,2.31692727 C15.7895926,2.17701818 15.4776137,2.10747273 15.1571821,2.10747273 C14.8682558,2.10747273 14.5908558,2.16392727 14.3257505,2.2752 C14.0598768,2.38647273 13.8224347,2.55092727 13.6126558,2.76774545 L13.44514,2.95592727 C13.2684032,3.18665455 13.1354663,3.43374545 13.0470979,3.69965455 C12.9587295,3.96474545 12.9141611,4.2372 12.9141611,4.5162 C12.9141611,4.86556364 12.9825505,5.20265455 13.1208663,5.52665455 C13.2584137,5.85229091 13.4582032,6.12556364 13.7202347,6.34892727 C14.1467084,6.72610909 14.6315821,6.91429091 15.1763926,6.91429091 C15.5367821,6.91429091 15.8748874,6.83083636 16.1891716,6.66310909 C16.4450558,6.50929091 16.6617505,6.3252 16.8384874,6.10838182 M12.5553084,7.03538182 C12.2302663,6.64756364 11.9928242,6.21638182 11.8422137,5.74183636 L11.8222347,5.68865455 C11.7046663,5.31229091 11.6454979,4.9212 11.6454979,4.5162 C11.6454979,4.08338182 11.7146558,3.65792727 11.8522032,3.2382 C11.9897505,2.81929091 12.1956874,2.43965455 12.4715505,2.09765455 C12.83194,1.68529091 13.1977084,1.36947273 13.5680874,1.14938182 C13.9384663,0.929290909 14.4056663,0.802472727 14.9696874,0.767290909 L14.9988874,0.767290909 C15.5498453,0.732109091 16.08774,0.837654545 16.6125716,1.08065455 C16.9399189,1.23529091 17.2565084,1.45947273 17.5615716,1.75729091 C17.8666347,2.05347273 18.08794,2.34801818 18.2254874,2.64174545 C18.5336242,3.21447273 18.6880768,3.83629091 18.6880768,4.50556364 C18.6880768,4.89747273 18.6319821,5.27874545 18.5205611,5.65265455 C18.40914,6.02574545 18.2454663,6.37347273 18.0287716,6.69501818 C17.8643295,6.93965455 17.6860558,7.1532 17.4931821,7.33892727 C17.29954,7.52301818 17.0613295,7.69647273 16.7793189,7.85765455 C16.2744663,8.12929091 15.7304242,8.26592727 15.1471926,8.26592727 C14.6484874,8.26592727 14.1728347,8.1612 13.7202347,7.95174545 C13.2684032,7.72756364 12.8795821,7.42238182 12.5553084,7.03538182" id="Fill-6"></path>
                                <path d="M27.9921958,8.16103636 C27.9921958,8.16103636 27.9660695,8.12585455 27.9138168,8.05630909 C27.6579326,7.63085455 27.2399116,6.93949091 26.6597537,5.98221818 C26.0795958,5.02576364 25.6415958,4.29594545 25.3465221,3.79358182 C25.3073326,3.74530909 25.2812063,3.71994545 25.2681432,3.71994545 C25.2543116,3.71994545 25.2466274,3.73467273 25.2427853,3.76249091 C25.2397116,3.79030909 25.2381747,3.81158182 25.2381747,3.82467273 L25.2581537,5.06094545 C25.2581537,5.11003636 25.2412484,5.1534 25.2089747,5.19185455 C25.1759326,5.23030909 25.1329011,5.24912727 25.0806484,5.24912727 L24.1270379,5.24912727 C24.0740168,5.24912727 24.0302168,5.23194545 23.9941011,5.19676364 C23.9579853,5.1624 23.9403116,5.11658182 23.9403116,5.06094545 L23.9403116,1.06003636 C23.9403116,1.0044 23.9579853,0.956945455 23.9941011,0.918490909 C24.0302168,0.880854545 24.0740168,0.861218182 24.1270379,0.861218182 L25.0906379,0.861218182 C25.1367432,0.861218182 25.1759326,0.882490909 25.2089747,0.924218182 L27.5887747,5.1444 C27.6479432,5.26385455 27.6971221,5.32276364 27.7363116,5.32276364 C27.7693537,5.32276364 27.7854905,5.26385455 27.7854905,5.1444 L27.7762695,1.06003636 C27.7762695,1.0044 27.7939432,0.956945455 27.8300589,0.918490909 C27.8661747,0.880854545 27.9069011,0.861218182 27.9530063,0.861218182 L28.9957537,0.861218182 C29.0480063,0.861218182 29.0925747,0.880854545 29.1286905,0.918490909 C29.1640379,0.956945455 29.18248,1.0044 29.18248,1.06003636 L29.18248,7.97285455 C29.18248,8.02849091 29.1640379,8.07430909 29.1286905,8.10867273 C29.0925747,8.14385455 29.0480063,8.16103636 28.9957537,8.16103636 L28.0905537,8.16103636 L28.0805642,8.16103636 L28.0713432,8.16103636 L27.9921958,8.16103636 Z" id="Fill-8"></path>
                                <path d="M36.2790021,7.77354545 C35.7441811,7.43809091 35.3215495,6.98236364 35.0103389,6.40636364 C34.69836,5.83036364 34.5431389,5.20036364 34.5431389,4.51636364 C34.5431389,3.83890909 34.69836,3.213 35.0103389,2.637 C35.3215495,2.061 35.7441811,1.60363636 36.2790021,1.26490909 C36.8130547,0.926181818 37.3955179,0.756818182 38.0248547,0.756818182 C38.5166442,0.756818182 38.9853811,0.861545455 39.4310653,1.071 C39.8775179,1.27963636 40.2640337,1.58072727 40.5921495,1.971 C40.6313389,2.01354545 40.6505495,2.05936364 40.6505495,2.10763636 C40.6505495,2.14936364 40.6282653,2.19518182 40.58216,2.24345455 C40.4446126,2.36290909 40.3070653,2.48645455 40.1687495,2.61572727 C40.0312021,2.745 39.9359179,2.83418182 39.8836653,2.88245455 C39.8444758,2.92418182 39.7983705,2.94545455 39.7461179,2.94545455 C39.7000126,2.94545455 39.6569811,2.92418182 39.61856,2.88245455 C39.4080126,2.63863636 39.16596,2.45127273 38.8900968,2.32281818 C38.6150021,2.19354545 38.3260758,2.12890909 38.0248547,2.12890909 C37.6314232,2.12890909 37.2656547,2.23690909 36.9283179,2.45290909 C36.5902126,2.66972727 36.3235705,2.95936364 36.1260863,3.32263636 C35.9293705,3.68590909 35.8310126,4.08354545 35.8310126,4.51636364 C35.8310126,4.94918182 35.9293705,5.34681818 36.1260863,5.71090909 C36.3235705,6.07336364 36.5902126,6.363 36.9283179,6.57981818 C37.2656547,6.79663636 37.6314232,6.90463636 38.0248547,6.90463636 C38.3068653,6.90463636 38.5788863,6.84490909 38.8409179,6.72627273 C39.1029495,6.60763636 39.3396232,6.43663636 39.5494021,6.21327273 C39.6147179,6.15681818 39.6869495,6.129 39.7660968,6.129 C39.8314126,6.129 39.8836653,6.15027273 39.9228547,6.192 C39.9889389,6.24845455 40.0803811,6.32945455 40.1987179,6.43827273 C40.3162863,6.54627273 40.4184863,6.642 40.5037811,6.72627273 C40.5752442,6.78927273 40.61136,6.86618182 40.61136,6.95618182 C40.61136,7.01181818 40.5921495,7.06172727 40.55296,7.10345455 C40.2248442,7.48063636 39.8429389,7.77027273 39.4064758,7.97236364 C38.9707811,8.17445455 38.5097284,8.27590909 38.0248547,8.27590909 C37.3955179,8.27590909 36.8130547,8.10818182 36.2790021,7.77354545" id="Fill-10"></path>
                                <path d="M50.7420695,6.10838182 C50.9188063,5.89156364 51.0471326,5.68538182 51.12628,5.48983636 C51.2569116,5.16992727 51.3222274,4.84101818 51.3222274,4.50556364 C51.3222274,4.04574545 51.2046589,3.61374545 50.9679853,3.21283636 C50.73208,2.81110909 50.4078063,2.51247273 49.9943958,2.31692727 C49.6931747,2.17701818 49.3811958,2.10747273 49.0607642,2.10747273 C48.7718379,2.10747273 48.4944379,2.16392727 48.2293326,2.2752 C47.9634589,2.38647273 47.7260168,2.55092727 47.5162379,2.76774545 L47.3487221,2.95592727 C47.1719853,3.18665455 47.0390484,3.43374545 46.95068,3.69965455 C46.8623116,3.96474545 46.8177432,4.2372 46.8177432,4.5162 C46.8177432,4.86556364 46.8861326,5.20265455 47.0244484,5.52665455 C47.1619958,5.85229091 47.3617853,6.12556364 47.6238168,6.34892727 C48.0502905,6.72610909 48.5351642,6.91429091 49.0799747,6.91429091 C49.4403642,6.91429091 49.7784695,6.83083636 50.0927537,6.66310909 C50.3486379,6.50929091 50.5653326,6.3252 50.7420695,6.10838182 M46.4588905,7.03538182 C46.1338484,6.64756364 45.8964063,6.21638182 45.7457958,5.74183636 L45.7258168,5.68865455 C45.6082484,5.31229091 45.54908,4.9212 45.54908,4.5162 C45.54908,4.08338182 45.6182379,3.65792727 45.7557853,3.2382 C45.8933326,2.81929091 46.0992695,2.43965455 46.3751326,2.09765455 C46.7355221,1.68529091 47.1012905,1.36947273 47.4716695,1.14938182 C47.8420484,0.929290909 48.3092484,0.802472727 48.8732695,0.767290909 L48.9024695,0.767290909 C49.4534274,0.732109091 49.9913221,0.837654545 50.5161537,1.08065455 C50.8435011,1.23529091 51.1600905,1.45947273 51.4651537,1.75729091 C51.7702168,2.05347273 51.9915221,2.34801818 52.1290695,2.64174545 C52.4372063,3.21447273 52.5916589,3.83629091 52.5916589,4.50556364 C52.5916589,4.89747273 52.5355642,5.27874545 52.4241432,5.65265455 C52.3127221,6.02574545 52.1490484,6.37347273 51.9323537,6.69501818 C51.7679116,6.93965455 51.5896379,7.1532 51.3967642,7.33892727 C51.2031221,7.52301818 50.9649116,7.69647273 50.6829011,7.85765455 C50.1780484,8.12929091 49.6340063,8.26592727 49.0507747,8.26592727 C48.5520695,8.26592727 48.0764168,8.1612 47.6238168,7.95174545 C47.1719853,7.72756364 46.7831642,7.42238182 46.4588905,7.03538182" id="Fill-12"></path>
                                <path d="M58.0056463,8.12904545 C57.9695305,8.09468182 57.9518568,8.04886364 57.9518568,7.99322727 L57.9518568,4.33840909 C57.9518568,4.28277273 57.9695305,4.23531818 58.0056463,4.19686364 C58.0417621,4.15840909 58.0855621,4.13959091 58.1385832,4.13959091 L60.1748989,4.13959091 C60.4369305,4.13959091 60.6582358,4.0455 60.8388147,3.8565 C61.0186253,3.66831818 61.1092989,3.44168182 61.1092989,3.17577273 C61.1092989,2.90331818 61.0186253,2.67340909 60.8388147,2.48522727 C60.6582358,2.29622727 60.4369305,2.20213636 60.1748989,2.20213636 L59.3488463,2.20213636 C59.2758463,2.20213636 59.2159095,2.22831818 59.1667305,2.28068182 C59.1175516,2.33304545 59.0929621,2.39359091 59.0929621,2.46313636 L59.0929621,2.72577273 C59.0929621,2.79531818 59.0699095,2.85668182 59.0238042,2.90904545 C58.9776989,2.96140909 58.9185305,2.98759091 58.8470674,2.98759091 L58.1977516,2.98759091 C58.1324358,2.98759091 58.0748042,2.96140909 58.0256253,2.90904545 C57.9764463,2.85668182 57.9518568,2.79531818 57.9518568,2.72577273 L57.9518568,1.0395 C57.9518568,0.983863636 57.9695305,0.936409091 58.0056463,0.897954545 C58.0417621,0.8595 58.0855621,0.840681818 58.1385832,0.840681818 L60.1748989,0.840681818 C60.5813937,0.840681818 60.9548463,0.945409091 61.2960253,1.15486364 C61.6372042,1.3635 61.9076884,1.64659091 62.1074779,2.00331818 C62.3072674,2.35840909 62.4071621,2.75031818 62.4071621,3.17577273 C62.4071621,3.53904545 62.33032,3.88104545 62.1758674,4.20177273 C62.0221832,4.52331818 61.8108674,4.7925 61.54192,5.00931818 C61.5027305,5.03713636 61.4827516,5.0715 61.4827516,5.11322727 C61.4827516,5.15495455 61.4858253,5.19013636 61.4927411,5.21795455 L62.6330779,7.93022727 C62.6599726,7.97931818 62.6730358,8.02431818 62.6730358,8.06686364 C62.6730358,8.14377273 62.6269305,8.18140909 62.5354884,8.18140909 L61.7286463,8.18140909 C61.6564147,8.18140909 61.6026253,8.17486364 61.5665095,8.16095455 C61.5303937,8.14622727 61.4988884,8.11186364 61.4727621,8.05622727 L60.4499937,5.60577273 C60.4300147,5.56322727 60.4038884,5.53540909 60.3716147,5.5215 C60.3385726,5.50759091 60.2732568,5.50104545 60.1748989,5.50104545 L59.3388568,5.50104545 C59.2597095,5.50104545 59.1990042,5.51331818 59.1567411,5.53704545 C59.1137095,5.56159091 59.0929621,5.61231818 59.0929621,5.68922727 L59.0929621,7.99322727 C59.0929621,8.04886364 59.07452,8.09468182 59.0384042,8.12904545 C59.0022884,8.16422727 58.9584884,8.18140909 58.9054674,8.18140909 L58.1385832,8.18140909 C58.0855621,8.18140909 58.0417621,8.16422727 58.0056463,8.12904545" id="Fill-14"></path>
                                <path d="M68.1373547,8.09312727 C68.1012389,8.05467273 68.0835653,8.01049091 68.0835653,7.96221818 L68.0835653,1.06003636 C68.0835653,1.0044 68.1012389,0.9594 68.1373547,0.924218182 C68.1734705,0.889036364 68.2149653,0.871854545 68.2603021,0.871854545 L72.6671968,0.871854545 C72.7194495,0.871854545 72.7617126,0.889036364 72.7947547,0.924218182 C72.8277968,0.9594 72.8439337,1.0044 72.8439337,1.06003636 L72.8439337,1.93958182 C72.8439337,1.98867273 72.8277968,2.03285455 72.7947547,2.07130909 C72.7617126,2.10976364 72.7194495,2.12858182 72.6671968,2.12858182 L69.4897758,2.12858182 C69.4436705,2.12858182 69.4029442,2.14576364 69.3668284,2.18094545 C69.3307126,2.21530909 69.3130389,2.26112727 69.3130389,2.31676364 L69.3130389,3.85658182 L69.3130389,3.88767273 C69.3130389,3.95149091 69.3261021,3.99403636 69.3522284,4.0194 C69.3783547,4.04394545 69.4405968,4.0554 69.5389547,4.0554 L71.9979021,4.0554 C72.0440074,4.0554 72.0831968,4.07094545 72.1162389,4.10285455 C72.1485126,4.13394545 72.1654179,4.17403636 72.1654179,4.22312727 L72.1654179,5.11330909 C72.1654179,5.1624 72.1485126,5.20249091 72.1162389,5.23358182 C72.0831968,5.26549091 72.0440074,5.28021818 71.9979021,5.28021818 L69.5297337,5.28021818 C69.4436705,5.28021818 69.3868074,5.30721818 69.3568389,5.35958182 C69.3276389,5.41194545 69.3130389,5.46594545 69.3130389,5.52158182 L69.3130389,6.63185455 C69.3130389,6.70221818 69.3307126,6.76112727 69.3668284,6.81021818 C69.4029442,6.85849091 69.4767126,6.88303636 69.5881337,6.88303636 L72.7355863,6.88303636 C72.7816916,6.88303636 72.8224179,6.90267273 72.8585337,6.94112727 C72.8946495,6.97958182 72.9123232,7.02621818 72.9123232,7.08267273 L72.9123232,7.96221818 C72.9123232,8.01049091 72.8961863,8.05467273 72.8631442,8.09312727 C72.8308705,8.13158182 72.7878389,8.1504 72.7355863,8.1504 L68.2603021,8.1504 C68.2149653,8.1504 68.1734705,8.13158182 68.1373547,8.09312727" id="Fill-16"></path>
                            </g>
                        </g>
                    </g>
                </g>
            </g>
        </g>
    </g>
</svg>