<?xml version="1.0" encoding="UTF-8"?>
<svg width="169px" height="66px" viewBox="0 0 169 66" version="1.1" xmlns="http://www.w3.org/2000/svg" xmlns:xlink="http://www.w3.org/1999/xlink">
    <!-- Generator: Sketch 53 (72520) - https://sketchapp.com -->
    <title>Group 12</title>
    <desc>Created with Sketch.</desc>
    <g id="Page-1" stroke="none" stroke-width="1" fill="none" fill-rule="evenodd">
        <g id="Mobile" transform="translate(-96.000000, -345.000000)">
            <g id="Group-12" transform="translate(96.000000, 345.000000)">
                <g id="Group-5" fill="#852E3B">
                    <path d="M0.000147221662,0.261033708 L0.000147222222,19.977236 C0.000147222222,23.973573 -0.000588888889,33.9996404 1.68510556,37.757191 C6.20041111,47.8270112 14.9461472,57.156 26.4603972,66 C37.9753833,57.156 46.7211194,47.8270112 51.2371611,37.757191 C52.9221194,33.9996404 52.9221194,23.973573 52.9221194,19.977236 L52.9221194,0.261033708 L48.5555083,4.39752809 L48.5606611,4.39752809 L48.5606611,19.977236 C48.5606611,23.2364494 48.6239667,32.9147191 47.2628972,35.9484944 C42.9706333,45.5184944 34.68055,53.8011236 26.4603972,60.4270787 C25.4600222,59.6202472 24.4589111,58.7889438 23.4629528,57.9339101 C30.6451889,51.3568989 39.2164667,43.2203596 43.2886333,34.1397978 C44.3250778,31.8290562 44.1999389,22.4689213 44.1999389,19.977236 L44.1999389,8.79060674 L43.9194806,8.79060674 L39.2819806,13.184427 L39.8392167,13.184427 L39.8392167,19.977236 C39.8392167,21.6086966 39.9967444,30.8093933 39.3151056,32.3303596 C36.5326056,38.5343596 31.5771056,44.1680899 26.4603972,48.8837528 C21.344425,44.1680899 16.3896611,38.5343596 13.606425,32.3303596 C12.9255222,30.8093933 13.0823139,21.6086966 13.0823139,19.977236 L13.0823139,13.184427 L13.63955,13.184427 L9.00278611,8.79060674 L8.72159167,8.79060674 L8.72159167,19.977236 C8.72159167,22.4689213 8.59645278,31.8290562 9.63289722,34.1397978 C12.6222444,40.8043146 17.8059389,46.8340449 23.3679944,51.9857528 C21.6646333,53.6557753 19.9524389,55.2486742 18.1938694,56.8526966 L19.6462167,54.4959775 C13.9222167,49.0743371 8.75250833,42.8458652 5.65863333,35.9484944 C4.2983,32.9147191 4.36086944,23.2364494 4.36086944,19.977236 L4.36086944,4.39752809 L4.36602222,4.39752809 L0.000147221662,0.261033708 Z" id="Fill-1"></path>
                    <polygon id="Fill-3" points="26.4606181 20.1937011 6.34122917 2.11118427 26.4606181 5.92138652 46.5800069 2.11118427"></polygon>
                </g>
                <g id="Group-11" transform="translate(61.000000, 13.000000)">
                    <path d="M66.4006932,16.5137774 C65.7563918,15.4254566 65.4568027,14.3165321 65.4568027,13.0332113 C65.4568027,12.2200981 65.6543096,11.4297962 66.0700356,10.7270604 C67.0878986,9.00223019 69.0548301,8.30464528 70.9832959,8.31421132 C72.6225288,8.32304151 74.5613507,8.97426792 75.6235973,10.265683 C75.653926,10.3017396 75.6650219,10.343683 75.6583644,10.3900415 L75.1960356,13.3937774 C75.1834603,13.4710415 75.1168849,13.526966 75.038474,13.526966 L74.7714329,13.526966 C74.6834055,13.526966 74.6123918,13.4570604 74.6123918,13.3694943 C74.6123918,11.1133811 73.3378438,9.42681509 70.9781178,9.42681509 C68.9231589,9.42681509 67.616063,11.0707019 67.616063,13.0332113 C67.616063,13.370966 67.6515699,13.7072491 67.7262822,14.0369094 C68.1878712,16.076683 70.2931315,17.9420604 71.7962548,19.2805698 C72.4627479,19.8744 73.1233233,20.4763245 73.7920356,21.0679472 C74.6723096,21.8464755 75.5636795,22.6110226 76.4683644,23.360117 C77.0483096,21.9156453 77.098611,20.1827208 76.4025288,18.7735698 C76.0763096,18.1127774 75.6014055,17.6550792 74.8246932,17.6550792 L74.4067479,17.6550792 C74.3187205,17.6550792 74.2477068,17.5837019 74.2477068,17.4961358 L74.2477068,17.2312302 C74.2477068,17.1436642 74.3187205,17.0730226 74.4067479,17.0730226 L79.7379534,17.0730226 C79.8259808,17.0730226 79.8977342,17.1436642 79.8977342,17.2312302 L79.8977342,17.4961358 C79.8977342,17.5837019 79.8259808,17.6550792 79.7379534,17.6550792 L79.3333233,17.6550792 C78.6749671,17.6550792 78.3790767,18.0274189 78.502611,18.6654 C78.8798712,20.6080415 78.7289671,22.6941736 77.7614055,24.4499094 C79.0011863,25.5154189 80.5915973,26.8870415 82.2545014,27.0128717 C82.336611,27.0187585 82.4009671,27.0871925 82.4009671,27.1703434 L82.4009671,27.4359849 C82.4009671,27.5235509 82.3292137,27.5941925 82.241926,27.5941925 C81.3905014,27.5941925 80.654474,27.6155321 79.8000904,27.4735132 C78.5869397,27.2711547 77.4825288,26.8119849 76.5075699,26.0695132 C72.6691315,29.6420604 63.2376247,28.0798528 63.2376247,21.4822302 C63.2376247,19.1930038 64.4448575,17.5483811 66.4006932,16.5137774 L66.4006932,16.5137774 Z M75.3513781,25.1305698 C73.6529671,23.7317208 71.9745288,22.3130038 70.3508301,20.8287962 C69.2190493,19.7941925 67.9822274,18.6757019 67.0412959,17.4549283 C61.4186384,22.9914566 70.7073781,30.0982868 75.3513781,25.1305698 L75.3513781,25.1305698 Z M44.3531589,16.8412302 L52.928063,16.8412302 L48.7330767,5.72623019 L44.3531589,16.8412302 Z M53.5198438,18.4027019 L43.7347479,18.4027019 L41.2899534,24.6257774 C41.1109397,25.1232113 41.0732137,25.6876075 41.4120082,26.1276453 C41.6694329,26.4624566 42.090337,26.6449472 42.5090219,26.6449472 L42.8396795,26.6449472 C42.962474,26.6449472 43.0630767,26.7442868 43.0630767,26.8664377 L43.0630767,27.2328906 C43.0630767,27.3550415 42.962474,27.455117 42.8396795,27.455117 L35.3003918,27.455117 C35.1775973,27.455117 35.0769945,27.3550415 35.0769945,27.2328906 L35.0769945,26.8612868 C35.0769945,26.7384 35.1775973,26.6383245 35.3003918,26.6383245 L35.6369671,26.6383245 C37.0350493,26.6383245 38.1601726,25.6397774 38.7142274,24.4337208 L47.2048027,4.38036226 C47.5325014,3.66438113 48.570337,1.32364528 48.570337,0.635626415 C48.570337,0.513475472 48.6709397,0.4134 48.7937342,0.4134 L49.1310493,0.4134 C49.2227753,0.4134 49.301926,0.464909434 49.3374329,0.550267925 L59.3451863,24.427834 C59.9044192,25.6441925 61.0295425,26.6383245 62.4313233,26.6383245 L62.7494055,26.6383245 C62.8722,26.6383245 62.9728027,26.7384 62.9728027,26.8612868 L62.9728027,27.2328906 C62.9728027,27.3550415 62.8722,27.455117 62.7494055,27.455117 L54.3172685,27.455117 C54.194474,27.455117 54.0938712,27.3550415 54.0938712,27.2328906 L54.0938712,26.8664377 C54.0938712,26.7442868 54.194474,26.6449472 54.3172685,26.6449472 L54.6420082,26.6449472 C55.0643918,26.6449472 55.490474,26.4573057 55.7486384,26.1195509 C56.0896521,25.6721547 56.0445288,25.1040792 55.8558986,24.6044377 L53.5198438,18.4027019 Z M106.737214,16.1392302 L107.049378,16.1392302 C107.114474,16.1392302 107.169214,16.1635132 107.213597,16.2113434 C107.257241,16.2577019 107.277214,16.3150981 107.272036,16.379117 L106.817104,22.2276453 C106.814145,22.2637019 106.803789,22.2946075 106.784556,22.3262491 C104.393022,26.2107962 100.59231,27.9900792 96.0703644,27.976834 C87.8675425,27.9532868 82.4734603,22.2622302 82.4734603,14.1583245 C82.4734603,5.89841887 87.9814603,0.4134 96.2893233,0.4134 C99.4583096,0.4134 102.609542,1.22356981 105.268858,2.96458868 C105.324337,3.00064528 105.357625,3.05362642 105.367241,3.11838113 L106.121762,8.38338113 C106.132118,8.44960755 106.114364,8.50994717 106.069981,8.56072075 C106.025597,8.61149434 105.967899,8.63724906 105.901323,8.63724906 L105.589899,8.63724906 C105.486337,8.63724906 105.399049,8.57028679 105.373159,8.47094717 C104.249515,4.16623019 100.619679,1.97560755 96.2834055,1.97560755 C94.0131863,1.97560755 91.8332137,2.57900377 90.0164466,3.9624 C86.8763096,6.35464528 85.7282548,10.3311736 85.7282548,14.1207962 C85.7282548,18.1017396 86.9991041,22.2526642 90.4070219,24.6360792 C92.0825014,25.8082868 94.0390767,26.3667962 96.0703644,26.4146264 C102.496364,26.3999094 105.819953,22.5926264 106.515296,16.3379094 C106.527871,16.2238528 106.623296,16.1392302 106.737214,16.1392302 L106.737214,16.1392302 Z M26.114474,7.41058868 L18.5936795,24.0400415 C18.0973233,25.1371925 17.5122,26.6022679 17.3250493,27.7891925 C17.3072959,27.8980981 17.2148301,27.976834 17.1038712,27.976834 L16.7547205,27.976834 C16.6652137,27.976834 16.5890219,27.9282679 16.5520356,27.8473245 L7.32173425,7.93598491 L5.75499452,25.3093811 C5.69507671,25.9790038 6.31792603,26.6567208 6.99329589,26.6567208 L7.57398082,26.6567208 C7.69677534,26.6567208 7.79663836,26.7567962 7.79663836,26.879683 L7.79663836,27.2328906 C7.79663836,27.3550415 7.69677534,27.455117 7.57398082,27.455117 L0.320967123,27.455117 C0.198172603,27.455117 0.098309589,27.3550415 0.098309589,27.2328906 L0.098309589,26.8612868 C0.098309589,26.7384 0.198172603,26.6383245 0.320967123,26.6383245 L0.920145205,26.6383245 C2.20874795,26.6383245 3.27247397,25.8009283 3.42633699,24.500683 L6.24691233,0.609871698 C6.2602274,0.497286792 6.35491233,0.4134 6.46883014,0.4134 L6.81206301,0.4134 C6.90156986,0.4134 6.97702192,0.461966038 7.01474795,0.542173585 L17.2643918,22.5764377 L27.2795425,0.556154717 C27.3172685,0.475211321 27.3934603,0.425909434 27.4837068,0.425909434 L27.8202822,0.425909434 C27.9342,0.425909434 28.0281452,0.509060377 28.0422,0.620909434 L30.9508027,24.4999472 C31.1098438,25.8024 32.170611,26.6383245 33.4629123,26.6383245 L34.0554329,26.6383245 C34.1782274,26.6383245 34.2788301,26.7384 34.2788301,26.8612868 L34.2788301,27.2328906 C34.2788301,27.3550415 34.1782274,27.455117 34.0554329,27.455117 L25.9162274,27.455117 C25.7934329,27.455117 25.6935699,27.3550415 25.6935699,27.2328906 L25.6935699,26.879683 C25.6935699,26.7567962 25.7934329,26.6567208 25.9162274,26.6567208 L26.4969123,26.6567208 C27.1722822,26.6567208 27.7958712,25.9790038 27.7352137,25.3093811 L26.114474,7.41058868 Z" id="Fill-7" fill="#000000"></path>
                    <path d="M12.7127096,37.0809057 L13.262326,38.7439245 L14.134463,38.7439245 L12.3679973,33.7121887 L11.326463,33.7121887 L9.50895616,38.7439245 L10.3662986,38.7439245 L10.9166548,37.0809057 L12.7127096,37.0809057 Z M11.1289562,36.4466038 L11.8331753,34.3751887 L12.4996685,36.4466038 L11.1289562,36.4466038 Z M18.5040247,33.384 L17.6977233,33.384 L17.6977233,35.3965472 L17.4417781,35.0102264 C17.2435315,34.8571698 16.8403808,34.7688679 16.5178603,34.7688679 C15.5133123,34.7688679 14.6337781,35.4546792 14.6337781,36.869717 C14.6337781,38.0073396 15.2714219,38.8454717 16.3854493,38.8454717 C16.7812027,38.8454717 17.1843534,38.7292075 17.4047918,38.5540755 L17.6977233,38.1309623 L17.6977233,38.7439245 L18.5040247,38.7439245 L18.5040247,33.384 Z M16.5689014,38.2619434 C15.8720795,38.2619434 15.484463,37.6423585 15.484463,36.8034906 C15.484463,35.841 15.9675041,35.3523962 16.6058877,35.3523962 C17.1259151,35.3523962 17.6977233,35.7026604 17.6977233,36.6430755 L17.6977233,36.8476415 C17.6977233,37.8829811 17.1776959,38.2619434 16.5689014,38.2619434 L16.5689014,38.2619434 Z M23.2478877,34.8711509 L22.3898055,34.8711509 L21.3120247,38.1530377 L20.220189,34.8711509 L19.3332575,34.8711509 L20.8208466,38.7439245 L21.7595589,38.7439245 L23.2478877,34.8711509 Z M25.652737,34.7688679 C24.340463,34.7688679 23.6806274,35.6739623 23.6806274,36.8034906 C23.6806274,37.9337547 24.340463,38.8454717 25.652737,38.8454717 C26.9576137,38.8454717 27.6248466,37.9337547 27.6248466,36.8034906 C27.6248466,35.6739623 26.9576137,34.7688679 25.652737,34.7688679 L25.652737,34.7688679 Z M25.652737,38.2619434 C24.9418603,38.2619434 24.5313123,37.6784151 24.5313123,36.8034906 C24.5313123,35.9293019 24.9418603,35.3523962 25.652737,35.3523962 C26.3562164,35.3523962 26.7675041,35.9293019 26.7675041,36.8034906 C26.7675041,37.6784151 26.3562164,38.2619434 25.652737,38.2619434 L25.652737,38.2619434 Z M30.2205452,34.7688679 C29.2019425,34.7688679 28.336463,35.5054528 28.336463,36.825566 C28.336463,38.2038113 29.1065178,38.8454717 30.1251205,38.8454717 C31.0416411,38.8454717 31.7155315,38.3863019 31.8989836,37.4606038 L31.0778877,37.4606038 C30.9602712,37.9852642 30.6310932,38.2619434 30.1695041,38.2619434 C29.6265452,38.2619434 29.1871479,37.8174906 29.1871479,36.767434 C29.1871479,35.7975849 29.6339425,35.3523962 30.1983534,35.3523962 C30.674737,35.3523962 30.9898603,35.6231887 31.1074767,36.2126038 L31.9211753,36.2126038 C31.8257507,35.3597547 31.2029014,34.7688679 30.2205452,34.7688679 L30.2205452,34.7688679 Z M35.1545178,38.7439245 L35.9534219,38.7439245 C35.8949836,38.3134528 35.880189,38.0507547 35.880189,37.7593585 L35.880189,36.3950943 C35.880189,36.2126038 35.8727918,36.0087736 35.8579973,35.8483585 C35.7921616,35.192717 35.3964082,34.7688679 34.3926,34.7688679 C33.5049288,34.7688679 32.8672849,35.2508491 32.8162438,36.0963396 L33.6225452,36.0963396 C33.666189,35.6150943 33.9080795,35.3523962 34.3778055,35.3523962 C34.8393945,35.3523962 35.0369014,35.5709434 35.0590932,35.8851509 C35.0738877,36.0308491 35.0738877,36.162566 35.0738877,36.3075283 L35.0738877,36.4024528 L34.8246,36.4024528 C33.3510658,36.4024528 32.6623808,36.869717 32.6623808,37.7299245 C32.6623808,38.4517925 33.2260521,38.8454717 33.9154767,38.8454717 C34.2823808,38.8454717 34.6196959,38.7799811 34.8830384,38.5982264 L35.0812849,38.1817358 L35.1545178,38.7439245 Z M34.2091479,38.2619434 C33.7838055,38.2619434 33.512326,38.0728302 33.512326,37.664434 C33.512326,37.0735472 34.1285178,36.8623585 35.0738877,36.9352075 L35.0738877,37.2920943 C35.0738877,37.9197736 34.7143808,38.2619434 34.2091479,38.2619434 L34.2091479,38.2619434 Z M38.791011,34.7688679 C37.7724082,34.7688679 36.9069288,35.5054528 36.9069288,36.825566 C36.9069288,38.2038113 37.6769836,38.8454717 38.6955863,38.8454717 C39.6121068,38.8454717 40.286737,38.3863019 40.4694493,37.4606038 L39.6490932,37.4606038 C39.5314767,37.9852642 39.2015589,38.2619434 38.7399699,38.2619434 C38.1977507,38.2619434 37.7576137,37.8174906 37.7576137,36.767434 C37.7576137,35.7975849 38.2044082,35.3523962 38.7695589,35.3523962 C39.2459425,35.3523962 39.5610658,35.6231887 39.6779425,36.2126038 L40.4916411,36.2126038 C40.3962164,35.3597547 39.7733671,34.7688679 38.791011,34.7688679 L38.791011,34.7688679 Z M41.8852849,33.5223396 C41.6145452,33.5223396 41.4162986,33.7195472 41.4162986,33.9815094 C41.4162986,34.251566 41.6145452,34.4487736 41.8852849,34.4487736 C42.1567644,34.4487736 42.3624082,34.251566 42.3624082,33.9815094 C42.3624082,33.7195472 42.1567644,33.5223396 41.8852849,33.5223396 L41.8852849,33.5223396 Z M41.4821342,38.7439245 L42.2884356,38.7439245 L42.2884356,34.8711509 L41.4821342,34.8711509 L41.4821342,38.7439245 Z M45.8590932,38.7439245 L46.6579973,38.7439245 C46.5995589,38.3134528 46.5847644,38.0507547 46.5847644,37.7593585 L46.5847644,36.3950943 C46.5847644,36.2126038 46.5773671,36.0087736 46.5625726,35.8483585 C46.496737,35.192717 46.1009836,34.7688679 45.0964356,34.7688679 C44.2095041,34.7688679 43.5718603,35.2508491 43.5208192,36.0963396 L44.3271205,36.0963396 C44.3707644,35.6150943 44.6133945,35.3523962 45.0816411,35.3523962 C45.5439699,35.3523962 45.7414767,35.5709434 45.7636685,35.8851509 C45.778463,36.0308491 45.778463,36.162566 45.778463,36.3075283 L45.778463,36.4024528 L45.5291753,36.4024528 C44.0556411,36.4024528 43.3669562,36.869717 43.3669562,37.7299245 C43.3669562,38.4517925 43.9313671,38.8454717 44.6200521,38.8454717 C44.9869562,38.8454717 45.3235315,38.7799811 45.5876137,38.5982264 L45.7858603,38.1817358 L45.8590932,38.7439245 Z M44.9137233,38.2619434 C44.4883808,38.2619434 44.2169014,38.0728302 44.2169014,37.664434 C44.2169014,37.0735472 44.8330932,36.8623585 45.778463,36.9352075 L45.778463,37.2920943 C45.778463,37.9197736 45.4189562,38.2619434 44.9137233,38.2619434 L44.9137233,38.2619434 Z M53.5418877,36.7093019 C53.5418877,35.6150943 52.9330932,34.7688679 51.8042712,34.7688679 C50.6828466,34.7688679 49.898737,35.5937547 49.898737,36.8189434 C49.898737,38.1898302 50.6828466,38.8454717 51.7236411,38.8454717 C52.574326,38.8454717 53.3147918,38.4083774 53.4827096,37.4893019 L52.6697507,37.4893019 C52.5883808,37.9779057 52.2222164,38.2619434 51.7532301,38.2619434 C51.2250658,38.2619434 50.800463,37.9558302 50.7338877,37.0301321 L53.5270932,37.0301321 C53.5418877,36.8910566 53.5418877,36.7821509 53.5418877,36.7093019 L53.5418877,36.7093019 Z M51.7754219,35.3523962 C52.3390932,35.3523962 52.6549562,35.7541698 52.7133945,36.4686792 L50.7412849,36.4686792 C50.8293123,35.7247358 51.2250658,35.3523962 51.7754219,35.3523962 L51.7754219,35.3523962 Z M59.1645452,33.6099057 C57.7420521,33.6099057 56.7449014,34.6673208 56.7449014,36.2493962 C56.7449014,37.7806981 57.6325726,38.8454717 59.0765178,38.8454717 C60.396189,38.8454717 61.1366548,38.0949057 61.2394767,37.1103396 L61.2461342,37.0367547 L60.4472301,37.0367547 L60.4331753,37.1103396 C60.2933671,37.7880566 59.8754219,38.2325094 59.1135041,38.2325094 C58.2191753,38.2325094 57.6177781,37.4606038 57.6177781,36.2126038 C57.6177781,35.0242075 58.2117781,34.2221321 59.1497507,34.2221321 C59.9124082,34.2221321 60.3296137,34.6526038 60.4694219,35.3310566 L60.4834767,35.4039057 L61.2831205,35.4039057 L61.2749836,35.3310566 C61.1729014,34.3391321 60.4834767,33.6099057 59.1645452,33.6099057 L59.1645452,33.6099057 Z M64.0541342,34.7688679 C62.7426,34.7688679 62.0827644,35.6739623 62.0827644,36.8034906 C62.0827644,37.9337547 62.7426,38.8454717 64.0541342,38.8454717 C65.359011,38.8454717 66.0262438,37.9337547 66.0262438,36.8034906 C66.0262438,35.6739623 65.359011,34.7688679 64.0541342,34.7688679 L64.0541342,34.7688679 Z M64.0541342,38.2619434 C63.3432575,38.2619434 62.9334493,37.6784151 62.9334493,36.8034906 C62.9334493,35.9293019 63.3432575,35.3523962 64.0541342,35.3523962 C64.7583534,35.3523962 65.1689014,35.9293019 65.1689014,36.8034906 C65.1689014,37.6784151 64.7583534,38.2619434 64.0541342,38.2619434 L64.0541342,38.2619434 Z M70.4697781,35.8777925 C70.3958055,35.1993396 69.9194219,34.7688679 69.0842712,34.7688679 C68.6959151,34.7688679 68.4096411,34.8350943 68.1019151,35.0683585 L67.8378329,35.5128113 L67.8378329,34.8711509 L67.0315315,34.8711509 L67.0315315,38.7439245 L67.8378329,38.7439245 L67.8378329,37.0080566 C67.8378329,35.7975849 68.2927644,35.3597547 68.8497781,35.3597547 C69.3993945,35.3597547 69.6338877,35.6666038 69.6701342,36.1036981 C69.6856685,36.3001698 69.6856685,36.4686792 69.6856685,36.650434 L69.6856685,38.7439245 L70.4912301,38.7439245 L70.4912301,36.5636038 C70.4912301,36.2493962 70.4845726,36.075 70.4697781,35.8777925 L70.4697781,35.8777925 Z M73.0210932,34.7688679 C72.1556137,34.7688679 71.5845452,35.2066981 71.5845452,35.9293019 C71.5845452,36.6070189 72.1119699,36.9065094 72.8235863,37.0882642 C73.4826822,37.2633962 73.7467644,37.4458868 73.7467644,37.7806981 C73.7467644,38.1162453 73.4464356,38.2766604 73.072874,38.2766604 C72.6697233,38.2766604 72.3390658,38.0794528 72.2443808,37.5842264 L71.4306822,37.5842264 C71.5401616,38.4591509 72.1785452,38.8454717 73.0432849,38.8454717 C73.8932301,38.8454717 74.560463,38.4738679 74.560463,37.722566 C74.560463,37.0367547 74.1136685,36.7012075 73.2629836,36.4833962 C72.6837781,36.3296038 72.3982438,36.1839057 72.3982438,35.8343774 C72.3982438,35.5422453 72.5816959,35.3310566 72.9626548,35.3310566 C73.3584082,35.3310566 73.6010384,35.5709434 73.6809288,35.9800755 L74.5020247,35.9800755 C74.4139973,35.2721887 73.9154219,34.7688679 73.0210932,34.7688679 L73.0210932,34.7688679 Z M78.9448192,34.8711509 L78.1459151,34.8711509 L78.1459151,36.6945849 C78.1459151,37.8174906 77.7205726,38.2479623 77.1561616,38.2479623 C76.6575863,38.2479623 76.3787096,37.9705472 76.3202712,37.5481698 C76.2988192,37.3502264 76.2914219,37.1390377 76.2914219,37.0154151 L76.2914219,34.8711509 L75.4925178,34.8711509 L75.4925178,37.1758302 C75.4925178,37.4893019 75.4999151,37.664434 75.5287644,37.8616415 C75.6167918,38.3929245 76.0857781,38.8454717 76.8920795,38.8454717 C77.2811753,38.8454717 77.5667096,38.7799811 77.8744356,38.561434 L78.1459151,38.0794528 L78.1459151,38.7439245 L78.9448192,38.7439245 L78.9448192,34.8711509 Z M81.0493397,33.384 L80.2430384,33.384 L80.2430384,37.5842264 C80.2430384,37.8174906 80.2430384,37.9918868 80.2504356,38.1383208 C80.2800247,38.6335472 80.5662986,38.7873396 80.9909014,38.7873396 C81.1743534,38.7873396 81.3570658,38.7726226 81.5190658,38.751283 L81.5190658,38.1898302 C81.1743534,38.2185283 81.0715315,38.1456792 81.056737,37.9263962 C81.0493397,37.8101321 81.0493397,37.6938679 81.0493397,37.5621509 L81.0493397,33.384 Z M83.4475315,35.4620377 L84.2094493,35.4620377 L84.2094493,34.9005849 L83.4475315,34.9005849 L83.4475315,33.9741509 L82.6486274,33.9741509 L82.6486274,34.9005849 L82.0982712,34.9005849 L82.0982712,35.4620377 L82.6486274,35.4620377 L82.6486274,37.5621509 C82.6486274,37.7806981 82.6486274,37.9492075 82.6552849,38.0794528 C82.6922712,38.5908679 82.9563534,38.8160377 83.5644082,38.8160377 C83.7626548,38.8160377 83.9535041,38.8020566 84.1584082,38.7726226 L84.1584082,38.2185283 C83.6302438,38.2693019 83.4837781,38.1898302 83.4549288,37.8101321 C83.4475315,37.7085849 83.4475315,37.620283 83.4475315,37.4893019 L83.4475315,35.4620377 Z M86.8273397,34.7688679 C85.5150658,34.7688679 84.8552301,35.6739623 84.8552301,36.8034906 C84.8552301,37.9337547 85.5150658,38.8454717 86.8273397,38.8454717 C88.1322164,38.8454717 88.7987096,37.9337547 88.7987096,36.8034906 C88.7987096,35.6739623 88.1322164,34.7688679 86.8273397,34.7688679 L86.8273397,34.7688679 Z M86.8273397,38.2619434 C86.1157233,38.2619434 85.7059151,37.6784151 85.7059151,36.8034906 C85.7059151,35.9293019 86.1157233,35.3523962 86.8273397,35.3523962 C87.5315589,35.3523962 87.9413671,35.9293019 87.9413671,36.8034906 C87.9413671,37.6784151 87.5315589,38.2619434 86.8273397,38.2619434 L86.8273397,38.2619434 Z M91.5416137,34.7769623 C91.3441068,34.7769623 91.1162712,34.8571698 90.9409562,34.9955094 L90.6110384,35.5282642 L90.6110384,34.8711509 L89.804737,34.8711509 L89.804737,38.7439245 L90.6110384,38.7439245 L90.6110384,36.7306415 C90.6110384,35.7762453 91.0726274,35.3965472 91.8130932,35.4473208 L91.8130932,34.8211132 C91.7317233,34.7916792 91.6518329,34.7769623 91.5416137,34.7769623 L91.5416137,34.7769623 Z M93.0891205,33.5223396 C92.8176411,33.5223396 92.6193945,33.7195472 92.6193945,33.9815094 C92.6193945,34.251566 92.8176411,34.4487736 93.0891205,34.4487736 C93.3598603,34.4487736 93.5655041,34.251566 93.5655041,33.9815094 C93.5655041,33.7195472 93.3598603,33.5223396 93.0891205,33.5223396 L93.0891205,33.5223396 Z M92.6859699,38.7439245 L93.4922712,38.7439245 L93.4922712,34.8711509 L92.6859699,34.8711509 L92.6859699,38.7439245 Z M97.0629288,38.7439245 L97.8618329,38.7439245 C97.8026548,38.3134528 97.7886,38.0507547 97.7886,37.7593585 L97.7886,36.3950943 C97.7886,36.2126038 97.7812027,36.0087736 97.7664082,35.8483585 C97.7005726,35.192717 97.3040795,34.7688679 96.3002712,34.7688679 C95.4133397,34.7688679 94.7756959,35.2508491 94.7246548,36.0963396 L95.5309562,36.0963396 C95.5753397,35.6150943 95.8164904,35.3523962 96.2862164,35.3523962 C96.7478055,35.3523962 96.9453123,35.5709434 96.9675041,35.8851509 C96.9822986,36.0308491 96.9822986,36.162566 96.9822986,36.3075283 L96.9822986,36.4024528 L96.733011,36.4024528 C95.2594767,36.4024528 94.5707918,36.869717 94.5707918,37.7299245 C94.5707918,38.4517925 95.1352027,38.8454717 95.8238877,38.8454717 C96.1907918,38.8454717 96.5281068,38.7799811 96.7914493,38.5982264 L96.9896959,38.1817358 L97.0629288,38.7439245 Z M96.1175589,38.2619434 C95.6922164,38.2619434 95.4214767,38.0728302 95.4214767,37.664434 C95.4214767,37.0735472 96.0369288,36.8623585 96.9822986,36.9352075 L96.9822986,37.2920943 C96.9822986,37.9197736 96.6235315,38.2619434 96.1175589,38.2619434 L96.1175589,38.2619434 Z" id="Fill-9" fill="#898A89"></path>
                </g>
            </g>
        </g>
    </g>
</svg>