<?xml version="1.0" encoding="UTF-8"?>
<svg width="53px" height="47px" viewBox="0 0 53 47" version="1.1" xmlns="http://www.w3.org/2000/svg" xmlns:xlink="http://www.w3.org/1999/xlink">
    <!-- Generator: sketchtool 53 (72520) - https://sketchapp.com -->
    <title>25ACE947-E924-459F-9B58-5C1CAA31A682</title>
    <desc>Created with sketchtool.</desc>
    <g id="NewContent" stroke="none" stroke-width="1" fill="none" fill-rule="evenodd">
        <g id="LandingPage-MA&amp;C-Atuação-Tab3" transform="translate(-438.000000, -1869.000000)" fill="#9A3F4B" fill-rule="nonzero">
            <g id="Group-6-Copy-5" transform="translate(423.000000, 1852.000000)">
                <g id="lotment" transform="translate(15.000000, 17.000000)">
                    <g id="Group">
                        <path d="M51.6408911,22.2048889 L49.4631683,20.9515556 C48.1584204,9.30789544 38.2598561,0.505671025 26.4872643,0.520404544 C14.7146726,0.535138063 4.83838569,9.3621109 3.56306931,21.009 L1.46405941,22.2048889 C0.881798123,22.4603332 0.506040815,23.033851 0.506040815,23.6671111 C0.506040815,24.3003713 0.881798123,24.873889 1.46405941,25.1293333 L3.56306931,26.3513333 C4.99318794,37.8515216 14.8042287,46.4923754 26.448285,46.5069731 C38.0923413,46.5215707 47.9252266,37.9053438 49.3844554,26.4087778 L49.3844554,26.4087778 L51.6041584,25.1345556 C52.1864197,24.8791113 52.562177,24.3055935 52.562177,23.6723333 C52.562177,23.0390732 52.1864197,22.4655554 51.6041584,22.2101111 L51.6408911,22.2048889 Z M3.44762376,24.4504444 L2.26693069,23.7715556 C2.21485974,23.7437683 2.16713144,23.7085845 2.12524752,23.6671111 C2.16853269,23.6272898 2.21603947,23.5922693 2.26693069,23.5626667 L3.43188119,22.8942222 L5.05861386,21.9333333 L11.4238614,18.2777778 C12.0358173,17.9851497 12.7482421,17.9851497 13.360198,18.2777778 L22.5171287,23.5626667 C22.5680429,23.5922346 22.6155534,23.6272578 22.6588119,23.6671111 C22.616928,23.7085845 22.5691997,23.7437683 22.5171287,23.7715556 L13.360198,29.0407778 C12.7482421,29.3334058 12.0358173,29.3334058 11.4238614,29.0407778 L5.08485149,25.3852222 L5.08485149,25.3852222 L3.44762376,24.4504444 Z M26.5157426,44.9111111 C16.1326367,44.901004 7.23433007,37.5211374 5.35247525,27.3592222 L10.6367327,30.3985556 C11.1749246,30.686579 11.7784241,30.832231 12.3894059,30.8215556 C13.0091571,30.8360325 13.622085,30.6902868 14.1683168,30.3985556 L23.3042574,25.1293333 C23.8865187,24.873889 24.262276,24.3003713 24.262276,23.6671111 C24.262276,23.033851 23.8865187,22.4603332 23.3042574,22.2048889 L14.1683168,16.9408889 C13.0680609,16.3714728 11.7579787,16.3714728 10.6577228,16.9408889 L5.28425743,20.0167778 C6.96803761,9.65704499 15.9486198,2.03871246 26.4938319,2.02444852 C37.039044,2.01018459 46.040403,9.60419393 47.7524752,19.9593333 L42.5049505,16.9408889 C41.4046945,16.3714728 40.0946124,16.3714728 38.9943564,16.9408889 L29.8164356,22.2048889 C29.2341744,22.4603332 28.8584171,23.033851 28.8584171,23.6671111 C28.8584171,24.3003713 29.2341744,24.873889 29.8164356,25.1293333 L38.9733663,30.3985556 C40.0749084,30.9627122 41.3824184,30.9627122 42.4839604,30.3985556 L47.6685149,27.4166667 C45.7609718,37.5507611 36.8760539,44.899051 26.5157426,44.9111111 Z M50.8537624,23.7715556 L49.5786139,24.5026667 L49.5786139,24.5026667 L47.9413861,25.4426667 L41.6968317,29.0355556 C41.0848758,29.3281836 40.3724509,29.3281836 39.760495,29.0355556 L30.6035644,23.7715556 C30.5514934,23.7437683 30.5037651,23.7085845 30.4618812,23.6671111 C30.5051664,23.6272898 30.5526731,23.5922693 30.6035644,23.5626667 L39.760495,18.2777778 C40.3724509,17.9851497 41.0848758,17.9851497 41.6968317,18.2777778 L47.9938614,21.8863333 L49.6153465,22.8158889 L49.6153465,22.8158889 L50.8747525,23.5365556 C50.9256667,23.5661235 50.9731772,23.6011467 51.0164356,23.641 C50.9701793,23.6935256 50.915144,23.7376949 50.8537624,23.7715556 L50.8537624,23.7715556 Z" id="Shape"></path>
                        <path d="M37.4725743,31.0826667 L28.3366337,25.8186667 C27.2363777,25.2492506 25.9262956,25.2492506 24.8260396,25.8186667 L15.6481188,31.0826667 C15.0658575,31.338111 14.6901002,31.9116287 14.6901002,32.5448889 C14.6901002,33.178149 15.0658575,33.7516668 15.6481188,34.0071111 L24.8050495,39.2763333 C25.9065915,39.84049 27.2141015,39.84049 28.3156436,39.2763333 L37.4725743,34.0071111 C38.0548355,33.7516668 38.4305928,33.178149 38.4305928,32.5448889 C38.4305928,31.9116287 38.0548355,31.338111 37.4725743,31.0826667 Z M36.6854455,32.6493333 L27.5285149,37.9185556 C26.916559,38.2111836 26.2041341,38.2111836 25.5921782,37.9185556 L16.4352475,32.6493333 C16.3831766,32.6215461 16.3354483,32.5863623 16.2935644,32.5448889 C16.3368495,32.5050676 16.3843563,32.4700471 16.4352475,32.4404444 L25.5921782,27.1555556 C26.2041341,26.8629275 26.916559,26.8629275 27.5285149,27.1555556 L36.6854455,32.4404444 C36.7363598,32.4700123 36.7838702,32.5050356 36.8271287,32.5448889 C36.7852448,32.5863623 36.7375165,32.6215461 36.6854455,32.6493333 Z" id="Shape"></path>
                        <path d="M26.5577228,21.9333333 C27.1765687,21.951257 27.7895026,21.8091086 28.3366337,21.5207778 L37.4725743,16.2515556 C38.0343083,15.9731164 38.39998,15.4132572 38.4276238,14.7893333 C38.39998,14.1654094 38.0343083,13.6055503 37.4725743,13.3271111 L28.3366337,8.06311111 C27.2338894,7.49628857 25.9235363,7.49628857 24.8207921,8.06311111 L15.6481188,13.3271111 C15.0863848,13.6055503 14.7207131,14.1654094 14.6930693,14.7893333 C14.7207131,15.4132572 15.0863848,15.9731164 15.6481188,16.2515556 L24.8050495,21.5207778 C25.3442168,21.8051743 25.9476623,21.9472172 26.5577228,21.9333333 Z M16.2673267,14.7893333 C16.3113568,14.748096 16.3607801,14.7129639 16.4142574,14.6848889 L25.5921782,9.4 C26.2044802,9.10888784 26.9162129,9.10888784 27.5285149,9.4 L36.6854455,14.6848889 C36.7388239,14.7131231 36.7882269,14.7482408 36.8323762,14.7893333 C36.7882269,14.8304258 36.7388239,14.8655435 36.6854455,14.8937778 L27.5285149,20.163 C26.9162129,20.4541122 26.2044802,20.4541122 25.5921782,20.163 L16.4352475,14.8937778 C16.3744674,14.867276 16.3178979,14.8320906 16.2673267,14.7893333 Z" id="Shape"></path>
                    </g>
                </g>
            </g>
        </g>
    </g>
</svg>