<?xml version="1.0" encoding="UTF-8"?>
<svg width="48px" height="49px" viewBox="0 0 48 49" version="1.1" xmlns="http://www.w3.org/2000/svg" xmlns:xlink="http://www.w3.org/1999/xlink">
    <!-- Generator: sketchtool 53 (72520) - https://sketchapp.com -->
    <title>6D1A657C-B273-472A-A83A-847D3D742EE3</title>
    <desc>Created with sketchtool.</desc>
    <g id="NewContent" stroke="none" stroke-width="1" fill="none" fill-rule="evenodd">
        <g id="LandingPage-MA&amp;C-Atuação-Tab1" transform="translate(-183.000000, -1646.000000)" fill="#8B2938" fill-rule="nonzero">
            <g id="Group-6" transform="translate(168.000000, 1630.000000)">
                <g id="office-building-2" transform="translate(15.000000, 16.000000)">
                    <g id="office-building" transform="translate(0.500000, 0.000000)">
                        <path d="M18.7615988,7.33512682 L15.6347796,7.33512682 C15.2030832,7.33512682 14.8530748,7.70002911 14.8530748,8.15009563 L14.8530748,11.4099709 C14.8530748,11.8600374 15.2030832,12.2249397 15.6347796,12.2249397 L18.7615988,12.2249397 C19.1932952,12.2249397 19.5433035,11.8600374 19.5433035,11.4099709 L19.5433035,8.15009563 C19.5433035,7.69992723 19.1932952,7.33512682 18.7615988,7.33512682 Z M17.979894,10.5950021 L16.4164844,10.5950021 L16.4164844,8.96506445 L17.979894,8.96506445 L17.979894,10.5950021 Z" id="Shape"></path>
                        <path d="M25.015237,7.33512682 L21.8884179,7.33512682 C21.4567214,7.33512682 21.1067131,7.70002911 21.1067131,8.15009563 L21.1067131,11.4099709 C21.1067131,11.8600374 21.4567214,12.2249397 21.8884179,12.2249397 L25.015237,12.2249397 C25.4469335,12.2249397 25.7969418,11.8600374 25.7969418,11.4099709 L25.7969418,8.15009563 C25.7969418,7.69992723 25.4469335,7.33512682 25.015237,7.33512682 Z M24.2335322,10.5950021 L22.6701227,10.5950021 L22.6701227,8.96506445 L24.2335322,8.96506445 L24.2335322,10.5950021 Z" id="Shape"></path>
                        <path d="M31.2688753,7.33512682 L28.1420561,7.33512682 C27.7103597,7.33512682 27.3603514,7.70002911 27.3603514,8.15009563 L27.3603514,11.4099709 C27.3603514,11.8600374 27.7103597,12.2249397 28.1420561,12.2249397 L31.2688753,12.2249397 C31.7005717,12.2249397 32.05058,11.8600374 32.05058,11.4099709 L32.05058,8.15009563 C32.05058,7.69992723 31.7005717,7.33512682 31.2688753,7.33512682 Z M30.4871705,10.5950021 L28.9237609,10.5950021 L28.9237609,8.96506445 L30.4871705,8.96506445 L30.4871705,10.5950021 Z" id="Shape"></path>
                        <path d="M18.7615988,13.8548773 L15.6347796,13.8548773 C15.2030832,13.8548773 14.8530748,14.2197796 14.8530748,14.6698462 L14.8530748,17.9297214 C14.8530748,18.3797879 15.2030832,18.7446902 15.6347796,18.7446902 L18.7615988,18.7446902 C19.1932952,18.7446902 19.5433035,18.3797879 19.5433035,17.9297214 L19.5433035,14.6698462 C19.5433035,14.2196778 19.1932952,13.8548773 18.7615988,13.8548773 Z M17.979894,17.1147526 L16.4164844,17.1147526 L16.4164844,15.484815 L17.979894,15.484815 L17.979894,17.1147526 Z" id="Shape"></path>
                        <path d="M25.015237,13.8548773 L21.8884179,13.8548773 C21.4567214,13.8548773 21.1067131,14.2197796 21.1067131,14.6698462 L21.1067131,17.9297214 C21.1067131,18.3797879 21.4567214,18.7446902 21.8884179,18.7446902 L25.015237,18.7446902 C25.4469335,18.7446902 25.7969418,18.3797879 25.7969418,17.9297214 L25.7969418,14.6698462 C25.7969418,14.2196778 25.4469335,13.8548773 25.015237,13.8548773 Z M24.2335322,17.1147526 L22.6701227,17.1147526 L22.6701227,15.484815 L24.2335322,15.484815 L24.2335322,17.1147526 Z" id="Shape"></path>
                        <path d="M31.2688753,13.8548773 L28.1420561,13.8548773 C27.7103597,13.8548773 27.3603514,14.2197796 27.3603514,14.6698462 L27.3603514,17.9297214 C27.3603514,18.3797879 27.7103597,18.7446902 28.1420561,18.7446902 L31.2688753,18.7446902 C31.7005717,18.7446902 32.05058,18.3797879 32.05058,17.9297214 L32.05058,14.6698462 C32.05058,14.2196778 31.7005717,13.8548773 31.2688753,13.8548773 Z M30.4871705,17.1147526 L28.9237609,17.1147526 L28.9237609,15.484815 L30.4871705,15.484815 L30.4871705,17.1147526 Z" id="Shape"></path>
                        <path d="M18.7615988,20.3746279 L15.6347796,20.3746279 C15.2030832,20.3746279 14.8530748,20.7395301 14.8530748,21.1895967 L14.8530748,24.4494719 C14.8530748,24.8995385 15.2030832,25.2644407 15.6347796,25.2644407 L18.7615988,25.2644407 C19.1932952,25.2644407 19.5433035,24.8995385 19.5433035,24.4494719 L19.5433035,21.1895967 C19.5433035,20.7394283 19.1932952,20.3746279 18.7615988,20.3746279 Z M17.979894,23.6345031 L16.4164844,23.6345031 L16.4164844,22.0045655 L17.979894,22.0045655 L17.979894,23.6345031 Z" id="Shape"></path>
                        <path d="M25.015237,20.3746279 L21.8884179,20.3746279 C21.4567214,20.3746279 21.1067131,20.7395301 21.1067131,21.1895967 L21.1067131,24.4494719 C21.1067131,24.8995385 21.4567214,25.2644407 21.8884179,25.2644407 L25.015237,25.2644407 C25.4469335,25.2644407 25.7969418,24.8995385 25.7969418,24.4494719 L25.7969418,21.1895967 C25.7969418,20.7394283 25.4469335,20.3746279 25.015237,20.3746279 Z M24.2335322,23.6345031 L22.6701227,23.6345031 L22.6701227,22.0045655 L24.2335322,22.0045655 L24.2335322,23.6345031 Z" id="Shape"></path>
                        <path d="M31.2688753,20.3746279 L28.1420561,20.3746279 C27.7103597,20.3746279 27.3603514,20.7395301 27.3603514,21.1895967 L27.3603514,24.4494719 C27.3603514,24.8995385 27.7103597,25.2644407 28.1420561,25.2644407 L31.2688753,25.2644407 C31.7005717,25.2644407 32.05058,24.8995385 32.05058,24.4494719 L32.05058,21.1895967 C32.05058,20.7394283 31.7005717,20.3746279 31.2688753,20.3746279 Z M30.4871705,23.6345031 L28.9237609,23.6345031 L28.9237609,22.0045655 L30.4871705,22.0045655 L30.4871705,23.6345031 Z" id="Shape"></path>
                        <path d="M18.7615988,26.8943784 L15.6347796,26.8943784 C15.2030832,26.8943784 14.8530748,27.2592807 14.8530748,27.7093472 L14.8530748,30.9692225 C14.8530748,31.419289 15.2030832,31.7841913 15.6347796,31.7841913 L18.7615988,31.7841913 C19.1932952,31.7841913 19.5433035,31.419289 19.5433035,30.9692225 L19.5433035,27.7093472 C19.5433035,27.2591788 19.1932952,26.8943784 18.7615988,26.8943784 Z M17.979894,30.1542536 L16.4164844,30.1542536 L16.4164844,28.524316 L17.979894,28.524316 L17.979894,30.1542536 Z" id="Shape"></path>
                        <path d="M25.015237,26.8943784 L21.8884179,26.8943784 C21.4567214,26.8943784 21.1067131,27.2592807 21.1067131,27.7093472 L21.1067131,30.9692225 C21.1067131,31.419289 21.4567214,31.7841913 21.8884179,31.7841913 L25.015237,31.7841913 C25.4469335,31.7841913 25.7969418,31.419289 25.7969418,30.9692225 L25.7969418,27.7093472 C25.7969418,27.2591788 25.4469335,26.8943784 25.015237,26.8943784 Z M24.2335322,30.1542536 L22.6701227,30.1542536 L22.6701227,28.524316 L24.2335322,28.524316 L24.2335322,30.1542536 Z" id="Shape"></path>
                        <path d="M31.2688753,26.8943784 L28.1420561,26.8943784 C27.7103597,26.8943784 27.3603514,27.2592807 27.3603514,27.7093472 L27.3603514,30.9692225 C27.3603514,31.419289 27.7103597,31.7841913 28.1420561,31.7841913 L31.2688753,31.7841913 C31.7005717,31.7841913 32.05058,31.419289 32.05058,30.9692225 L32.05058,27.7093472 C32.05058,27.2591788 31.7005717,26.8943784 31.2688753,26.8943784 Z M30.4871705,30.1542536 L28.9237609,30.1542536 L28.9237609,28.524316 L30.4871705,28.524316 L30.4871705,30.1542536 Z" id="Shape"></path>
                        <path d="M18.7615988,33.4141289 L15.6347796,33.4141289 C15.2030832,33.4141289 14.8530748,33.7790312 14.8530748,34.2290977 L14.8530748,37.488973 C14.8530748,37.9390395 15.2030832,38.3039418 15.6347796,38.3039418 L18.7615988,38.3039418 C19.1932952,38.3039418 19.5433035,37.9390395 19.5433035,37.488973 L19.5433035,34.2290977 C19.5433035,33.7789293 19.1932952,33.4141289 18.7615988,33.4141289 Z M17.979894,36.6740042 L16.4164844,36.6740042 L16.4164844,35.0440665 L17.979894,35.0440665 L17.979894,36.6740042 Z" id="Shape"></path>
                        <path d="M25.015237,33.4141289 L21.8884179,33.4141289 C21.4567214,33.4141289 21.1067131,33.7790312 21.1067131,34.2290977 L21.1067131,37.488973 C21.1067131,37.9390395 21.4567214,38.3039418 21.8884179,38.3039418 L25.015237,38.3039418 C25.4469335,38.3039418 25.7969418,37.9390395 25.7969418,37.488973 L25.7969418,34.2290977 C25.7969418,33.7789293 25.4469335,33.4141289 25.015237,33.4141289 Z M24.2335322,36.6740042 L22.6701227,36.6740042 L22.6701227,35.0440665 L24.2335322,35.0440665 L24.2335322,36.6740042 Z" id="Shape"></path>
                        <path d="M31.2688753,33.4141289 L28.1420561,33.4141289 C27.7103597,33.4141289 27.3603514,33.7790312 27.3603514,34.2290977 L27.3603514,37.488973 C27.3603514,37.9390395 27.7103597,38.3039418 28.1420561,38.3039418 L31.2688753,38.3039418 C31.7005717,38.3039418 32.05058,37.9390395 32.05058,37.488973 L32.05058,34.2290977 C32.05058,33.7789293 31.7005717,33.4141289 31.2688753,33.4141289 Z M30.4871705,36.6740042 L28.9237609,36.6740042 L28.9237609,35.0440665 L30.4871705,35.0440665 L30.4871705,36.6740042 Z" id="Shape"></path>
                        <path d="M42.994447,47.2685988 L42.994447,45.5677588 C43.792079,45.4289085 44.5414407,45.0764345 45.1691497,44.544973 C46.9112765,43.0693701 47.4063888,40.5139335 46.3503056,38.4490062 C45.8332079,37.5676175 45.6790166,36.5060187 45.9227131,35.5045239 C46.15742,34.7628004 46.1845842,33.9667796 46.0008836,33.2095717 C45.6477484,31.7498607 44.5453493,30.6160353 43.1406258,30.2675343 C41.0437027,29.7331185 38.9284096,31.0721123 38.4158067,33.2581642 C38.2583909,33.9294948 38.2673805,34.6315904 38.4417983,35.2982349 C38.7365988,36.3000353 38.6321435,37.3833326 38.1517859,38.3038399 C36.855817,40.6420873 37.6234511,43.6330229 39.8663576,44.9840374 C40.2846674,45.2360665 40.7378607,45.4191289 41.2099127,45.5269085 C41.2833929,45.5432079 41.3576549,45.5505426 41.4311351,45.5627672 L41.4311351,47.2684969 L35.1774969,47.2684969 L35.1774969,4.07514969 C35.1774969,3.62508316 34.8274886,3.26018087 34.3957921,3.26018087 L32.0506778,3.26018087 L32.0506778,0.815274428 C32.0506778,0.3652079 31.7006694,0.000305613306 31.268973,0.000305613306 L15.6348773,0.000305613306 C15.2031809,0.000305613306 14.8531726,0.3652079 14.8531726,0.815274428 L14.8531726,3.26018087 L12.5080582,3.26018087 C12.0763617,3.26018087 11.7263534,3.62508316 11.7263534,4.07514969 L11.7263534,47.2684969 L5.47271518,47.2684969 L5.47271518,45.567657 C8.02459044,45.1202391 9.74551351,42.600763 9.31625988,39.9402973 C9.2321289,39.418921 9.06748233,38.9152703 8.8285738,38.4489044 C8.31147609,37.5675156 8.15728482,36.5059168 8.40098129,35.504422 C8.63568815,34.7626985 8.66285239,33.9666778 8.47915177,33.2094699 C8.12601663,31.7497588 7.02361746,30.6159335 5.61889397,30.2674324 C3.52197089,29.7330166 1.40658004,31.0720104 0.894074844,33.2580624 C0.736659044,33.9293929 0.745648649,34.6314886 0.920066528,35.2981331 C1.21486694,36.2999335 1.11041164,37.3832308 0.630054054,38.303738 C-0.665914761,40.6419854 0.101719335,43.632921 2.34452807,44.9839356 C2.76283784,45.2359647 3.21603119,45.419027 3.68808316,45.5268067 C3.76156341,45.543106 3.83582536,45.5504407 3.90930561,45.5626653 L3.90930561,47.268395 L0.000781704782,47.268395 L0.000781704782,48.8983326 L46.9030686,48.8983326 L46.9030686,47.268395 L42.994447,47.268395 L42.994447,47.2685988 Z M3.9092079,43.9035925 C2.24056133,43.4596383 1.23304158,41.6894241 1.65897297,39.9497713 C1.72981497,39.6602536 1.83866736,39.3823493 1.98230561,39.1238004 C2.67421206,37.8245364 2.83348441,36.2890333 2.42396881,34.8655884 C2.37081289,34.6579751 2.34452807,34.4439439 2.34579834,34.2290977 C2.34413721,33.4820769 2.67186694,32.7756008 3.23459667,32.313106 C3.64606653,31.9691892 4.15808316,31.7825613 4.68544075,31.7841913 C4.88047609,31.784395 5.07482744,31.8079272 5.26468399,31.8542786 C6.51834304,32.1805717 7.28099376,33.5045904 6.96801871,34.8115967 C6.9537526,34.8712931 6.9373368,34.9302765 6.91877131,34.9886486 C6.53172973,36.4145385 6.72393139,37.9437256 7.45033056,39.2175218 C7.69334304,39.6880644 7.81958836,40.2144324 7.81773181,40.7488482 C7.82046778,42.235657 6.85447609,43.5345135 5.47261746,43.9019626 L5.47261746,34.2290977 L3.9092079,34.2290977 L3.9092079,43.9035925 Z M16.4164844,1.63034511 L30.4871705,1.63034511 L30.4871705,3.26028274 L16.4164844,3.26028274 L16.4164844,1.63034511 Z M22.6701227,47.2685988 L19.5433035,47.2685988 L19.5433035,42.3787859 L22.6701227,42.3787859 L22.6701227,47.2685988 Z M27.3603514,47.2685988 L24.2335322,47.2685988 L24.2335322,42.3787859 L27.3603514,42.3787859 L27.3603514,47.2685988 Z M33.6139896,47.2685988 L28.9237609,47.2685988 L28.9237609,41.563817 C28.9237609,41.1137505 28.5737526,40.7488482 28.1420561,40.7488482 L18.7615988,40.7488482 C18.3299023,40.7488482 17.979894,41.1137505 17.979894,41.563817 L17.979894,47.2685988 L13.2896653,47.2685988 L13.2896653,4.89022037 L33.6139896,4.89022037 L33.6139896,47.2685988 Z M41.4310374,43.9035925 C39.7623909,43.4596383 38.7548711,41.6894241 39.1808025,39.9497713 C39.2516445,39.6602536 39.3604969,39.3823493 39.5041351,39.1238004 C40.1971164,37.8249439 40.3574636,36.2894407 39.9489252,34.8655884 C39.8946944,34.6581788 39.8673347,34.4440457 39.8676279,34.2290977 C39.8659667,33.4820769 40.1936965,32.7756008 40.7564262,32.313106 C41.167896,31.9691892 41.6799127,31.7825613 42.2072703,31.7841913 C42.4023056,31.784395 42.596657,31.8079272 42.7865135,31.8542786 C44.0401726,32.1805717 44.8028233,33.5045904 44.4898482,34.8115967 C44.4755821,34.8712931 44.4591663,34.9302765 44.4406008,34.9886486 C44.0535593,36.4145385 44.2457609,37.9437256 44.9721601,39.2175218 C45.2151726,39.6880644 45.3414179,40.2144324 45.3395613,40.7488482 C45.3422973,42.235657 44.3763056,43.5345135 42.994447,43.9019626 L42.994447,34.2290977 L41.4310374,34.2290977 L41.4310374,43.9035925 L41.4310374,43.9035925 Z" id="Shape"></path>
                    </g>
                </g>
            </g>
        </g>
    </g>
</svg>