<?xml version="1.0" encoding="UTF-8"?>
<svg width="25px" height="25px" viewBox="0 0 25 25" version="1.1" xmlns="http://www.w3.org/2000/svg" xmlns:xlink="http://www.w3.org/1999/xlink">
    <!-- Generator: Sketch 53 (72520) - https://sketchapp.com -->
    <title>phone_icon</title>
    <desc>Created with Sketch.</desc>
    <g id="Page-1" stroke="none" stroke-width="1" fill="none" fill-rule="evenodd">
        <g id="phone_icon" fill="#CEB983" fill-rule="nonzero">
            <path d="M12.5,1.5625 C18.5302734,1.5625 23.4375,6.46972656 23.4375,12.5 C23.4375,18.5302734 18.5302734,23.4375 12.5,23.4375 C6.46972656,23.4375 1.5625,18.5302734 1.5625,12.5 C1.5625,6.46972656 6.46972656,1.5625 12.5,1.5625 L12.5,1.5625 Z M12.5,0 C5.59692383,0 0,5.59692383 0,12.5 C0,19.4030762 5.59692383,25 12.5,25 C19.4030762,25 25,19.4030762 25,12.5 C25,5.59692383 19.4030762,0 12.5,0 L12.5,0 Z M19.4687012,16.6793945 L19.3984863,16.4657715 C19.2336914,15.9744629 18.6904785,15.4617676 18.1899902,15.3244141 L16.3421875,14.8193359 C15.8416992,14.6835449 15.1275879,14.8666504 14.7599121,15.234375 L14.0915527,15.9027344 C11.6623535,15.2450684 9.75654297,13.3392578 9.10039062,10.9100586 L9.76875,10.2416992 C10.1349609,9.87548828 10.3180664,9.16137695 10.1822754,8.659375 L9.67866211,6.81152344 C9.54287109,6.31103516 9.02709961,5.76782227 8.53579102,5.60302734 L8.32519531,5.5328125 C7.83232422,5.36801758 7.12890625,5.53432617 6.76269531,5.90209961 L5.76171875,6.90307617 C5.58320312,7.08007812 5.46875,7.58818359 5.46875,7.58974609 C5.43515625,10.7666504 6.68032227,13.8260254 8.92641602,16.0736328 C11.1664062,18.313623 14.2151367,19.5572754 17.3812988,19.5297363 C17.3980957,19.5297363 17.9214844,19.4183594 18.1,19.2397949 L19.1009766,18.2388184 C19.4671875,17.8741211 19.6319336,17.1707031 19.4687012,16.6793945 Z" id="Shape"></path>
        </g>
    </g>
</svg>