<?xml version="1.0" encoding="UTF-8"?>
<svg width="35px" height="34px" viewBox="0 0 35 34" version="1.1" xmlns="http://www.w3.org/2000/svg" xmlns:xlink="http://www.w3.org/1999/xlink">
    <!-- Generator: sketchtool 53 (72520) - https://sketchapp.com -->
    <title>850EBCED-E179-4F70-AE67-BABA727EE5F6</title>
    <desc>Created with sketchtool.</desc>
    <g id="NewContent" stroke="none" stroke-width="1" fill="none" fill-rule="evenodd">
        <g id="LandingPage-MA&amp;C-Atuação-Tab1" transform="translate(-728.000000, -2592.000000)" fill="#CEB983" fill-rule="nonzero">
            <g id="Footer" transform="translate(0.000000, 2213.000000)">
                <g id="Address">
                    <g transform="translate(728.000000, 363.000000)">
                        <g id="icon-place" transform="translate(0.000000, 16.000000)">
                            <g id="placeholder">
                                <path d="M17.465,14.7327667 C19.6434677,14.7327667 21.4166129,12.9528667 21.4166129,10.7661 C21.4166129,8.57933333 19.6434677,6.79943333 17.465,6.79943333 C15.2865323,6.79943333 13.5133871,8.57933333 13.5133871,10.7661 C13.5133871,12.9528667 15.2859677,14.7327667 17.465,14.7327667 Z M17.465,7.93276667 C19.021371,7.93276667 20.2875806,9.2038 20.2875806,10.7661 C20.2875806,12.3284 19.021371,13.5994333 17.465,13.5994333 C15.908629,13.5994333 14.6424194,12.3284 14.6424194,10.7661 C14.6424194,9.2038 15.908629,7.93276667 17.465,7.93276667 Z" id="Shape"></path>
                                <path d="M28.3477419,20.9661 L24.3052419,20.9661 L26.0253226,18.4727667 C29.2741129,14.1258667 28.803871,6.98076667 25.0199194,3.18296667 C22.9758065,1.1305 20.2570968,-9.9475983e-14 17.3650806,-9.9475983e-14 C14.473629,-9.9475983e-14 11.7549194,1.1305 9.71024194,3.18296667 C5.92629032,6.98076667 5.45604839,14.1264333 8.69185484,18.4557667 L10.4237903,20.9666667 L6.18258065,20.9666667 L-5.32907052e-14,33.9994333 L34.5303226,33.9994333 L28.3477419,20.9661 Z M9.60806452,17.7927667 C6.67314516,13.8640667 7.09370968,7.41143333 10.5090323,3.98366667 C12.3403226,2.1454 14.7756452,1.13276667 17.3656452,1.13276667 C19.9556452,1.13276667 22.3904032,2.1454 24.2222581,3.98366667 C27.6375806,7.41143333 28.0581452,13.8646333 25.1102419,17.8097667 L17.3650806,29.0371333 L11.7972581,20.9661 L11.7972581,20.9661 L9.60806452,17.7927667 Z M6.89612903,22.0994333 L11.2056452,22.0994333 L17.3650806,31.0284 L23.5239516,22.0994333 L27.6341935,22.0994333 L32.7419355,32.8661 L1.7883871,32.8661 L6.89612903,22.0994333 Z" id="Shape"></path>
                            </g>
                        </g>
                    </g>
                </g>
            </g>
        </g>
    </g>
</svg>