<?xml version="1.0" encoding="UTF-8"?>
<svg width="50px" height="50px" viewBox="0 0 50 50" version="1.1" xmlns="http://www.w3.org/2000/svg" xmlns:xlink="http://www.w3.org/1999/xlink">
    <!-- Generator: sketchtool 53 (72520) - https://sketchapp.com -->
    <title>A64F8E00-4CD4-4EB0-A886-739B5283856C</title>
    <desc>Created with sketchtool.</desc>
    <g id="NewContent" stroke="none" stroke-width="1" fill="none" fill-rule="evenodd">
        <g id="LandingPage-MA&amp;C-Atuação-Tab3" transform="translate(-182.000000, -1645.000000)" fill="#8B2938" fill-rule="nonzero">
            <g id="Group-6" transform="translate(168.000000, 1630.000000)">
                <g id="icon-rent" transform="translate(14.000000, 15.000000)">
                    <g id="002-foreclosure">
                        <path d="M50,17.7419355 L48.3870968,17.7419355 L48.3870968,14.516129 L45.1612903,14.516129 L45.1612903,9.67741935 L38.7096774,9.67741935 L38.7096774,0 L0,0 L0,39.8079164 L8.4925498,50 L38.7096774,50 L38.7096774,43.5483871 L50,43.5483871 L50,17.7419355 Z M46.7741935,17.7419355 L30.6451613,17.7419355 L30.6451613,16.1290323 L46.7741935,16.1290323 L46.7741935,17.7419355 Z M43.5483871,14.516129 L33.8709677,14.516129 L33.8709677,11.2903226 L43.5483871,11.2903226 L43.5483871,14.516129 Z M8.06451613,46.9659621 L2.52803679,40.3225806 L8.06451613,40.3225806 L8.06451613,46.9659621 Z M37.0967742,48.3870968 L9.67741935,48.3870968 L9.67741935,38.7096774 L1.61290323,38.7096774 L1.61290323,1.61290323 L37.0967742,1.61290323 L37.0967742,9.67741935 L32.2580645,9.67741935 L32.2580645,14.516129 L29.0322581,14.516129 L29.0322581,17.7419355 L27.4193548,17.7419355 L27.4193548,43.5483871 L37.0967742,43.5483871 L37.0967742,48.3870968 Z M41.1290323,41.9354839 L36.2903226,41.9354839 L36.2903226,37.9032258 C36.2903226,36.5695092 37.3759608,35.483871 38.7096774,35.483871 C40.0433941,35.483871 41.1290323,36.5695092 41.1290323,37.9032258 L41.1290323,41.9354839 Z M48.3870968,41.9354839 L42.7419355,41.9354839 L42.7419355,37.9032258 C42.7419355,35.679971 40.9329323,33.8709677 38.7096774,33.8709677 C36.4864226,33.8709677 34.6774194,35.679971 34.6774194,37.9032258 L34.6774194,41.9354839 L29.0322581,41.9354839 L29.0322581,19.3548387 L48.3870968,19.3548387 L48.3870968,41.9354839 Z" id="Shape"></path>
                        <path d="M46.7741935,20.9677419 L30.6451613,20.9677419 L30.6451613,25.8064516 L46.7741935,25.8064516 L46.7741935,20.9677419 Z M40.3225806,22.5806452 L40.3225806,24.1935484 L37.0967742,24.1935484 L37.0967742,22.5806452 L40.3225806,22.5806452 Z M32.2580645,22.5806452 L35.483871,22.5806452 L35.483871,24.1935484 L32.2580645,24.1935484 L32.2580645,22.5806452 Z M45.1612903,24.1935484 L41.9354839,24.1935484 L41.9354839,22.5806452 L45.1612903,22.5806452 L45.1612903,24.1935484 Z" id="Shape"></path>
                        <path d="M46.7741935,27.4193548 L30.6451613,27.4193548 L30.6451613,32.2580645 L46.7741935,32.2580645 L46.7741935,27.4193548 Z M40.3225806,29.0322581 L40.3225806,30.6451613 L37.0967742,30.6451613 L37.0967742,29.0322581 L40.3225806,29.0322581 Z M32.2580645,29.0322581 L35.483871,29.0322581 L35.483871,30.6451613 L32.2580645,30.6451613 L32.2580645,29.0322581 Z M45.1612903,30.6451613 L41.9354839,30.6451613 L41.9354839,29.0322581 L45.1612903,29.0322581 L45.1612903,30.6451613 Z" id="Shape"></path>
                        <path d="M19.3548387,6.4516129 L16.7468655,6.4516129 L18.433011,3.64123931 L17.0500725,2.81116119 L14.8661952,6.4516129 L3.22580645,6.4516129 L3.22580645,19.3548387 L19.3548387,19.3548387 L19.3548387,6.4516129 Z M17.7419355,17.7419355 L4.83870968,17.7419355 L4.83870968,8.06451613 L13.8982958,8.06451613 L10.1767263,14.2668694 L7.61836885,12.9878875 L6.89657883,14.4306798 L10.790228,16.3775044 L15.7789661,8.06451613 L17.7419355,8.06451613 L17.7419355,17.7419355 Z" id="Shape"></path>
                        <polygon id="Path" points="33.8709677 45.1612903 35.483871 45.1612903 35.483871 46.7741935 33.8709677 46.7741935"></polygon>
                        <polygon id="Path" points="11.2903226 45.1612903 32.2580645 45.1612903 32.2580645 46.7741935 11.2903226 46.7741935"></polygon>
                        <polygon id="Path" points="11.2903226 41.9354839 25.8064516 41.9354839 25.8064516 43.5483871 11.2903226 43.5483871"></polygon>
                        <polygon id="Path" points="11.2903226 38.7096774 25.8064516 38.7096774 25.8064516 40.3225806 11.2903226 40.3225806"></polygon>
                        <polygon id="Path" points="3.22580645 20.9677419 19.3548387 20.9677419 19.3548387 22.5806452 3.22580645 22.5806452"></polygon>
                        <polygon id="Path" points="3.22580645 24.1935484 4.83870968 24.1935484 4.83870968 25.8064516 3.22580645 25.8064516"></polygon>
                        <polygon id="Path" points="6.4516129 24.1935484 19.3548387 24.1935484 19.3548387 25.8064516 6.4516129 25.8064516"></polygon>
                        <polygon id="Path" points="3.22580645 27.4193548 19.3548387 27.4193548 19.3548387 29.0322581 3.22580645 29.0322581"></polygon>
                        <polygon id="Path" points="3.22580645 30.6451613 16.1290323 30.6451613 16.1290323 32.2580645 3.22580645 32.2580645"></polygon>
                        <polygon id="Path" points="17.7419355 30.6451613 19.3548387 30.6451613 19.3548387 32.2580645 17.7419355 32.2580645"></polygon>
                    </g>
                </g>
            </g>
        </g>
    </g>
</svg>