<?xml version="1.0" encoding="UTF-8"?>
<svg width="36px" height="50px" viewBox="0 0 36 50" version="1.1" xmlns="http://www.w3.org/2000/svg" xmlns:xlink="http://www.w3.org/1999/xlink">
    <!-- Generator: sketchtool 53 (72520) - https://sketchapp.com -->
    <title>6665E830-2D2B-48E3-8614-2427BC3B5CB8</title>
    <desc>Created with sketchtool.</desc>
    <g id="NewContent" stroke="none" stroke-width="1" fill="none" fill-rule="evenodd">
        <g id="LandingPage-MA&amp;C-Atuação-Tab2" transform="translate(-183.000000, -1757.000000)" fill="#9A3F4B" fill-rule="nonzero">
            <g id="Group-6-Copy-3" transform="translate(168.000000, 1741.000000)">
                <g id="007-testament" transform="translate(15.000000, 16.000000)">
                    <path d="M12,7.23718713 L12,5.76281287 C12,5.3416766 11.5521999,5 11.0002603,5 C10.4478001,5 10,5.3416766 10,5.76281287 L10,7.23718713 C10,7.6583234 10.4478001,8 11.0002603,8 C11.5521999,8 12,7.6583234 12,7.23718713 Z" id="Path"></path>
                    <path d="M26,7.23718713 L26,5.76281287 C26,5.3416766 25.5520833,5 25,5 C24.4473959,5 24,5.3416766 24,5.76281287 L24,7.23718713 C24,7.6583234 24.4473959,8 25,8 C25.5520833,8 26,7.6583234 26,7.23718713 Z" id="Path"></path>
                    <path d="M18.5001183,9 C19.4047124,9 20.254157,8.4794152 20.8300031,7.57098249 C21.0799661,7.17721322 21.050959,6.57866401 20.7648265,6.23423927 C20.4790521,5.8898144 20.0446608,5.92978357 19.7943396,6.32404624 C19.479558,6.81995871 19.0079229,7.10467673 18.5001183,7.10467673 C17.9923137,7.10467673 17.5203204,6.81995871 17.205539,6.32404624 C16.9555759,5.92978357 16.5211845,5.8898144 16.235052,6.23423927 C15.9492776,6.57866401 15.9199124,7.17721322 16.1698754,7.57098249 C16.7460796,8.4794152 17.5951662,9 18.5001183,9 Z" id="Path"></path>
                    <path d="M7,13 C7,13.5526041 7.33796935,14 7.75453645,14 L29.2450706,14 C29.6620305,14 30,13.5526041 30,13 C30,12.4479167 29.6620305,12 29.2450706,12 L7.75453645,12 C7.33796935,12 7,12.4479167 7,13 Z" id="Path"></path>
                    <path d="M7.75453645,19 L29.2450706,19 C29.6620305,19 30,18.5521998 30,18.0002604 C30,17.4478 29.6620305,17 29.2450706,17 L7.75453645,17 C7.33796935,17 7,17.4478 7,18.0002604 C7,18.5521998 7.33796935,19 7.75453645,19 Z" id="Path"></path>
                    <path d="M7.75453645,23 L29.2450706,23 C29.6620305,23 30,22.5521999 30,22.0002603 C30,21.4478001 29.6620305,21 29.2450706,21 L7.75453645,21 C7.33796935,21 7,21.4478001 7,22.0002603 C7,22.5521999 7.33796935,23 7.75453645,23 Z" id="Path"></path>
                    <path d="M6.73911131,38 L12.2608887,38 C12.6689396,38 13,37.5520833 13,37 C13,36.4473957 12.6689396,36 12.2608887,36 L6.73911131,36 C6.33106017,36 6,36.4473957 6,37 C6,37.5520833 6.33106017,38 6.73911131,38 Z" id="Path"></path>
                    <path d="M36,3.03310671 C36,1.36077446 34.6615467,0 33.0158087,0 L2.98419125,0 C1.33882901,0 0,1.36077446 0,3.03310671 L0,30.2669228 C0,30.6716425 0.323061993,31 0.721254683,31 C1.119823,31 1.44250937,30.6716425 1.44250937,30.2669228 L1.44250937,3.03310671 C1.44250937,2.16906836 2.13446303,1.46653609 2.98419125,1.46653609 L33.0158087,1.46653609 C33.8659126,1.46653609 34.5574906,2.16906836 34.5574906,3.03310671 L34.5574906,8.76027195 C34.5574906,9.16537341 34.8805526,9.4933491 35.2787453,9.4933491 C35.6773137,9.4933491 36,9.16537341 36,8.76027195 L36,3.03310671 Z" id="Path"></path>
                    <path d="M20.0403619,49.9976987 C20.3063246,50.0026515 20.5775463,49.9279791 20.8202185,49.7561561 L24.7690879,46.9586053 C24.7690879,46.9586053 28.7164547,49.7553942 28.7179573,49.7561561 C29.6075047,50.3863004 30.865944,49.7195819 30.865944,48.6204488 L30.865944,44.0239009 L33.0158087,44.0239009 C34.6615467,44.0239009 36,42.6660811 36,40.9969989 L36,11.7314854 C36,11.3276445 35.6773137,11 35.2787453,11 C34.8805526,11 34.5574906,11.3276445 34.5574906,11.7314854 L34.5574906,40.9973799 C34.5574906,41.8595422 33.8659126,42.560549 33.0158087,42.560549 L30.865944,42.560549 L30.865944,34.8094702 C31.4677408,34.3766747 31.8948588,33.735482 32.0616489,32.993329 C32.2637505,32.0961165 32.0612733,31.1642344 31.5064331,30.4365588 C31.2216877,30.0631965 31.1142509,29.5846831 31.2107938,29.1233139 C31.6007221,27.2618358 30.1728632,25.4498854 28.299855,25.4213118 C27.8347959,25.4144541 27.3990379,25.2014851 27.1033987,24.8372663 C25.9122015,23.3678188 23.6248474,23.3693427 22.4347771,24.8372663 C22.1391379,25.2014851 21.7033799,25.4144541 21.2383208,25.4213118 C19.3634343,25.4498854 17.9374538,27.2622168 18.327382,29.1233139 C18.4239249,29.5846831 18.3161125,30.0631965 18.0317427,30.4365588 C16.9975687,31.7932358 17.2939593,33.8185361 18.6722319,34.8094702 L18.6722319,42.56093 L2.98419125,42.56093 C2.13446303,42.56093 1.442885,41.8595422 1.442885,40.9973799 L1.442885,33.1914397 C1.442885,32.7875987 1.119823,32.4599542 0.721254683,32.4599542 C0.323061993,32.4599542 0,32.7875987 0,33.1914397 L0,40.9973799 C0,42.6660811 1.33882901,44.0239009 2.98419125,44.0239009 L18.6722319,44.0239009 L18.6722319,48.6204488 C18.6722319,49.4155582 19.3375142,49.9843644 20.0403619,49.9976987 L20.0403619,49.9976987 Z M29.4234346,48.4711039 C29.4234346,48.4711039 25.5530767,45.7295574 25.5511984,45.7280335 C25.0853881,45.398103 24.452412,45.398484 23.9866017,45.7280335 L20.1147412,48.4711039 C20.1147412,48.4711039 20.1147412,36.7170471 20.115117,36.7178091 C20.3299908,37.1685108 20.656058,37.5624461 21.053875,37.8580882 C21.8750535,38.4684214 22.9806017,38.6109086 23.9276241,38.2360223 C24.4343806,38.0356258 24.9148415,37.9167594 25.4328676,38.1598259 C26.4783113,38.6509118 27.7637975,38.4798508 28.6462075,37.7293163 C28.9662642,37.4569141 29.2382373,37.1045058 29.4230589,36.7170471 L29.4230589,48.4711039 L29.4234346,48.4711039 Z M19.172978,31.3314856 C19.7172999,30.6175252 19.9235336,29.7020255 19.7383365,28.8192902 C19.535108,27.8481671 20.2837853,26.8991409 21.259733,26.8842827 C22.1492805,26.8709483 22.9836069,26.4632975 23.5489654,25.7664814 C24.1717988,24.9984217 25.3667526,24.9988027 25.9892104,25.7664814 C26.5541932,26.4632975 27.3885196,26.8709483 28.278067,26.8842827 C29.2581471,26.899522 30.0030678,27.8470241 29.7994637,28.8192902 C29.6146422,29.7020255 29.8208759,30.6175252 30.3648222,31.3314856 C30.9647407,32.1182134 30.6961485,33.3007815 29.8220029,33.7442446 C29.1755032,34.07227 28.6728789,34.6185983 28.394144,35.2818879 C28.1435832,35.8781247 28.0184905,36.5147457 27.3885196,36.8221982 C26.9662851,37.0286904 26.4651634,37.0325002 26.0391723,36.8324847 C25.2397817,36.4568364 24.2980184,36.4572174 23.4986278,36.8324847 C22.9129841,37.1075537 22.1894754,36.9803056 21.7289243,36.5227463 C21.7240408,36.5181745 21.7195329,36.5132218 21.7150252,36.50865 C21.1939938,35.977561 21.1812215,35.151592 20.7274321,34.5740234 C20.7266808,34.5728804 20.7255538,34.5717375 20.7244269,34.5702135 C20.4547077,34.2284727 20.1124874,33.9450221 19.7157973,33.7438636 C18.7992028,33.3720252 18.6094978,32.0705907 19.172978,31.3314856 L19.172978,31.3314856 Z" id="Shape"></path>
                </g>
            </g>
        </g>
    </g>
</svg>