<?xml version="1.0" encoding="UTF-8"?>
<svg width="54px" height="50px" viewBox="0 0 54 50" version="1.1" xmlns="http://www.w3.org/2000/svg" xmlns:xlink="http://www.w3.org/1999/xlink">
    <!-- Generator: sketchtool 53 (72520) - https://sketchapp.com -->
    <title>C798A954-2AA8-40A8-B59F-C25C8A1DC943</title>
    <desc>Created with sketchtool.</desc>
    <g id="NewContent" stroke="none" stroke-width="1" fill="none" fill-rule="evenodd">
        <g id="LandingPage-MA&amp;C-Atuação-Tab2" transform="translate(-453.000000, -1978.000000)" fill="#9A3F4B" fill-rule="nonzero">
            <g id="Group-6-Copy-7" transform="translate(438.000000, 1963.000000)">
                <g id="009-wedding-ring" transform="translate(15.000000, 16.000000)">
                    <path d="M37.9090547,16 C33.8187656,16 29.973375,17.5479497 26.9934609,20.3765026 C24.1243945,17.6615072 20.2935586,16 16.0909453,16 C7.21838672,16 0,23.4018884 0,32.5 C0,41.5981116 7.21838672,49 16.0909453,49 C20.1810234,49 24.0264141,47.4520503 27.0065391,44.6234974 C29.8756055,47.3384928 33.7064414,49 37.9091602,49 C46.7817188,49 54,41.5982198 54,32.5 C54,23.4017802 46.7817188,16 37.9090547,16 Z M16.0908398,47.3216215 C8.12067188,47.3220541 1.63634766,40.6728891 1.63634766,32.5 C1.63634766,24.3271109 8.12067187,17.6779459 16.0909453,17.6779459 C24.0612188,17.6779459 30.5454375,24.3271109 30.5454375,32.5 C30.5454375,35.105007 29.8892109,37.6282527 28.6389844,39.8626299 C28.388918,39.5324483 28.1557266,39.1906945 27.9413086,38.8365035 C28.3913438,37.9535676 28.746668,37.0216398 28.9984219,36.0597545 C29.30175,34.9041726 29.4544688,33.7060879 29.4544688,32.5002163 C29.4544688,30.6499875 29.1009375,28.8556723 28.4038945,27.1665869 C27.78975,25.6774707 26.9333438,24.3275435 25.855875,23.1465464 C25.8513398,23.1415715 25.8470156,23.1364885 25.8422695,23.1316217 C25.7432344,23.0233637 25.6430391,22.9159708 25.540207,22.8105246 C24.3129727,21.5520922 22.8838711,20.5642509 21.2922422,19.8740381 C19.6449258,19.1592753 17.8951992,18.7967568 16.0908398,18.7967568 C14.9857383,18.7967568 13.8883359,18.9355132 12.826793,19.2083754 C11.7959414,19.4734508 10.796625,19.8673328 9.85521094,20.3773678 C8.93014453,20.8773449 8.06171484,21.4915283 7.27407422,22.2019651 C6.48970313,22.9088329 5.78612109,23.7087097 5.18283984,24.5812632 C5.05627734,24.7646854 5.00723438,24.9861765 5.04425391,25.2076675 C5.08021875,25.428077 5.1991875,25.6215572 5.37700781,25.7513371 C5.51664844,25.8520247 5.67917578,25.9056671 5.84929688,25.9056671 C6.11444531,25.9056671 6.36419531,25.7737242 6.51807422,25.552125 C7.58172656,24.0152065 8.99985938,22.7377397 10.6188047,21.8606439 C11.444625,21.4132277 12.3217031,21.0686621 13.2260977,20.8360316 C14.1577031,20.5955062 15.1210547,20.4747028 16.0908398,20.4747028 C17.674875,20.4747028 19.2108164,20.7923391 20.6552109,21.4188515 C21.979582,21.9931276 23.1750703,22.8060905 24.2159414,23.8321087 C22.6458281,26.4340875 21.8181094,29.4155644 21.8181094,32.4998919 C21.8181094,35.6758223 22.6985625,38.6444293 24.2210039,41.1643223 C23.8059844,41.5737779 23.3621719,41.9527352 22.8948398,42.2948134 C22.2523242,42.7659144 21.5618203,43.1696381 20.8428398,43.4973323 C19.3449727,44.1786768 17.74575,44.5254054 16.0908398,44.5254054 C14.6617383,44.5254054 13.265332,44.2647641 11.9410664,43.7501868 C10.8447188,43.3251576 9.81703125,42.7333613 8.88869531,41.9904795 C7.96900781,41.2556009 7.16175,40.3874815 6.49086328,39.4098062 C5.09878125,37.3793997 4.36355859,34.9899355 4.36355859,32.4998919 C4.36355859,31.0602002 4.60898438,29.651872 5.09340234,28.3150309 C5.25044531,27.8810253 5.03339063,27.3977033 4.61014453,27.2366681 C4.51849219,27.2019519 4.42251562,27.1841072 4.32537891,27.1841072 C3.98608594,27.1841072 3.67737891,27.4033271 3.55841016,27.7311295 C3.00649219,29.2547455 2.72721094,30.8599065 2.72721094,32.4998919 C2.72826562,35.3378538 3.56610938,38.0606361 5.15225391,40.3728812 C5.91584766,41.4881232 6.83553516,42.4771541 7.88389453,43.3148834 C8.9420625,44.1606157 10.1115,44.8352549 11.3617266,45.3194421 C12.8715117,45.9056146 14.4620859,46.2032432 16.0908398,46.2032432 L16.0930547,46.1976194 L16.0930547,46.2032432 C17.9759883,46.2032432 19.79775,45.8082797 21.5071875,45.0310063 C22.3275234,44.6572401 23.1141094,44.1964134 23.8460625,43.6606387 C24.3070664,43.3235354 24.7480313,42.9551768 25.1644219,42.5601051 C25.3871719,42.8560033 25.6194141,43.1440065 25.8607266,43.4235741 C23.1886758,45.9430345 19.7488125,47.3216215 16.0908398,47.3216215 Z M27.8182266,32.5002163 C27.8182266,33.5607344 27.6839648,34.6121678 27.4189219,35.6245592 C27.3036445,36.0644049 27.1625273,36.4967883 26.9989453,36.9204115 C26.4567305,35.5155441 26.1818789,34.0298887 26.1818789,32.5002163 C26.1817734,31.4398064 26.3159297,30.3882648 26.5810781,29.3746837 C26.69625,28.9352706 26.8372617,28.5033199 27.0005273,28.0801293 C27.543375,29.4856456 27.8182266,30.9710846 27.8182266,32.5002163 Z M37.9090547,47.3220541 C29.9387813,47.3220541 23.454457,40.6728891 23.454457,32.5 C23.454457,29.8951011 24.1106836,27.3717473 25.3608047,25.1373701 C25.6105547,25.4674436 25.8435352,25.808981 26.0577422,26.1627394 C25.6081289,27.0461079 25.2530156,27.978252 25.0013672,28.9395966 C24.6981445,30.09626 24.5454258,31.2932632 24.5454258,32.5002163 C24.5454258,34.3504451 24.8988516,36.1447603 25.596,37.8338457 C26.2110938,39.3253412 27.0691875,40.6769988 28.1488711,41.8591855 C28.1510859,41.8615648 28.1530898,41.8641604 28.1554102,41.8664316 C28.2552891,41.9755548 28.3561172,42.0837048 28.4596875,42.189908 C29.6869219,43.4483404 31.1160234,44.4361817 32.7076523,45.1263945 C34.3549688,45.8411573 36.1048008,46.2036758 37.9102148,46.2036758 C39.0142617,46.2036758 40.1128242,46.0649194 41.1741563,45.7908676 C42.2040586,45.5259003 43.2032695,45.1330998 44.1447891,44.6230648 C45.0698555,44.1218981 45.9381797,43.5078228 46.7258203,42.7984675 C47.5101914,42.0915997 48.2138789,41.2917229 48.8171602,40.4191694 C49.0778789,40.0410773 48.9906563,39.5164421 48.6229922,39.2490955 C48.4833516,39.1484079 48.3196641,39.0947655 48.149543,39.0947655 C47.8843945,39.0947655 47.6345391,39.2267084 47.4819258,39.4483076 C46.4182734,40.9852261 45.0001406,42.2616114 43.3800352,43.1397887 C42.555375,43.5872049 41.6782969,43.9317705 40.7739023,44.1645091 C39.8422969,44.4038449 38.8789453,44.5257298 37.9091602,44.5257298 C36.325125,44.5257298 34.7890781,44.207012 33.3436289,43.5804996 C32.0205234,43.0061154 30.8250352,42.1932606 29.7841641,41.1674587 C31.3541719,38.565588 32.1817852,35.5843274 32.1817852,32.5001081 C32.1817852,29.3239614 31.3011211,26.3551381 29.7784688,23.8351369 C30.1935938,23.4256813 30.6378281,23.0465077 31.1050547,22.7043214 C31.7475703,22.2345182 32.4380742,21.8296049 33.1570547,21.5018025 C34.6559766,20.8205662 36.25425,20.4749191 37.9091602,20.4749191 C39.3381563,20.4749191 40.7345625,20.7355603 42.0589336,21.2490561 C42.0643125,21.2513273 42.0697969,21.2534903 42.0741211,21.2545718 L42.0763359,21.2557614 C43.1704688,21.6830618 44.1959414,22.2758314 45.122168,23.0176317 C46.0396406,23.7525104 46.8446836,24.6217113 47.5134609,25.598305 C48.9033281,27.6264404 49.6373906,30.0136334 49.6363359,32.5003244 C49.6363359,33.9400161 49.3909102,35.3483443 48.9064922,36.6851854 C48.831293,36.8954289 48.8388867,37.1225437 48.9305391,37.3260818 C49.0210313,37.5308096 49.1835586,37.6851395 49.3885898,37.7634401 C49.4814023,37.7981562 49.5763242,37.8161091 49.6733555,37.8161091 C50.0137031,37.8161091 50.3225156,37.5967811 50.4413789,37.2689787 C50.9932969,35.7431997 51.2726836,34.1391201 51.2726836,32.5002163 C51.2716289,29.6621462 50.4336797,26.9394721 48.8475352,24.6261454 C48.0839414,23.511985 47.1654141,22.5218725 46.1170547,21.6852248 C45.0588867,20.8394924 43.8882891,20.1649614 42.6380625,19.6793683 C41.1282773,19.0933039 39.5366484,18.7967568 37.9090547,18.7967568 L37.908,18.7967568 C36.0249609,18.7967568 34.2033047,19.1905307 32.4937617,19.9691019 C31.6734258,20.3414621 30.8857852,20.802397 30.153832,21.3394695 C29.6928281,21.6765728 29.2518633,22.0449314 28.8355781,22.4395704 C28.6128281,22.1436722 28.3805859,21.855669 28.139168,21.5761015 C30.8110078,19.0565329 34.2509766,17.6778378 37.9090547,17.6778378 C45.8793281,17.6778378 52.3636523,24.3270027 52.3636523,32.4998919 C52.3636523,40.6728891 45.8793281,47.3220541 37.9090547,47.3220541 Z" id="Shape"></path>
                    <g id="008-love-and-romance" transform="translate(19.000000, 0.000000)" stroke="#9A3F4B">
                        <path d="M8.5068,15 C8.24925,15 8.00728333,14.8995245 7.82595,14.7169705 L1.4144,8.26899128 C0.50235,7.35423978 0,6.1369297 0,4.84206951 C0,2.17196875 2.1607,0 4.81666667,0 C6.09733333,0 7.3032,0.501811389 8.21241667,1.41344956 C8.36853333,1.57053096 8.63146667,1.57024793 8.78758333,1.41373259 C9.69651667,0.501811389 10.9026667,0 12.1833333,0 C14.8393,0 17,2.17225178 17,4.84206951 C17,6.11428733 16.51465,7.31263444 15.6320667,8.22200838 C15.6218667,8.23729197 15.61025,8.25144345 15.5969333,8.26474584 L9.18793333,14.7164044 C9.0066,14.8992415 8.76463333,15 8.50736667,15 C8.50708333,15 8.50708333,15 8.5068,15 Z M4.81666667,0.565776067 C2.47321667,0.565776067 0.566666667,2.48386732 0.566666667,4.84178648 C0.566666667,5.98607495 1.01036667,7.0613042 1.81616667,7.86935356 L8.228,14.3176158 C8.30251667,14.3926186 8.4014,14.4336579 8.5068,14.4336579 L8.50708333,14.4336579 C8.61248333,14.4336579 8.71165,14.3923356 8.78588333,14.3176158 L15.1577667,7.90303408 C15.1674,7.88859957 15.17845,7.87501415 15.1912,7.86227782 C15.9921833,7.05479452 16.4333333,5.9818295 16.4333333,4.84150345 C16.43305,2.48358429 14.5265,0.565493037 12.18305,0.565493037 C11.05425,0.565493037 9.9909,1.00815125 9.18878333,1.81252123 C8.81846667,2.18385599 8.18096667,2.18413902 7.81065,1.8122382 C7.0091,1.00843428 5.94546667,0.565776067 4.81666667,0.565776067 Z" id="Shape"></path>
                        <path d="M8.52628746,15 C8.52261221,15 8.51893696,15 8.51526171,15 C8.441474,14.9991509 8.37079612,14.9694317 8.31849449,14.9170692 L7.75363686,14.3518379 C7.7004871,14.2986263 7.67080239,14.2270171 7.67080239,14.1517284 C7.67080239,14.0764397 7.7004871,14.0045475 7.75363686,13.951619 L9.25002896,12.4534871 L7.75363686,10.9553551 C7.64309666,10.8446864 7.64309666,10.665805 7.75363686,10.5551362 L9.25002896,9.0570043 L7.75363686,7.55887237 C7.64309666,7.44820364 7.64309666,7.26932221 7.75363686,7.15865348 L9.25002896,5.66052155 L7.75363686,4.16238961 C7.64309666,4.05172088 7.64309666,3.87283946 7.75363686,3.76217073 L9.25002896,2.2640388 L8.80277933,1.81626915 C8.74482347,1.75824591 8.71485605,1.67814552 8.72051028,1.59606385 C8.7258818,1.52219035 8.75980718,1.45369462 8.81465322,1.40472866 C9.72046094,0.498999925 10.9200059,0 12.1939041,0 C14.8440419,0 17,2.17233376 17,4.84225225 C17,6.11508416 16.5154324,7.31347649 15.6342206,8.22316779 C15.6243257,8.23816892 15.6130173,8.25232093 15.6000125,8.26505774 L9.20536054,14.7169598 C9.02499059,14.9000868 8.78383766,15 8.52628746,15 L8.52628746,15 Z M8.35355072,14.1517284 L8.62354022,14.4220319 C8.6916737,14.4047664 8.75387024,14.3693864 8.8044756,14.3187222 L15.1620924,7.90389841 C15.1717046,7.88946336 15.1827303,7.87587742 15.1954523,7.86314061 C15.9946778,7.05562684 16.4348597,5.98262133 16.4348597,4.84225225 C16.4348597,2.48424409 14.5324938,0.566080459 12.1941868,0.566080459 C11.1603107,0.566080459 10.1812807,0.939127481 9.40863013,1.6223866 L9.84966011,2.06392935 C9.9599176,2.17459808 9.9599176,2.35347951 9.84966011,2.46414824 L8.35355072,3.96228017 L9.84966011,5.46041211 C9.96020031,5.57108084 9.96020031,5.74996226 9.84966011,5.86063099 L8.35355072,7.35876293 L9.84966011,8.85689486 C9.96020031,8.96756359 9.96020031,9.14644501 9.84966011,9.25711374 L8.35355072,10.7552457 L9.84966011,12.2533776 C9.96020031,12.3640463 9.96020031,12.5429278 9.84966011,12.6535965 L8.35355072,14.1517284 Z" id="Shape"></path>
                    </g>
                </g>
            </g>
        </g>
    </g>
</svg>