<?xml version="1.0" encoding="UTF-8"?>
<svg width="45px" height="49px" viewBox="0 0 45 49" version="1.1" xmlns="http://www.w3.org/2000/svg" xmlns:xlink="http://www.w3.org/1999/xlink">
    <!-- Generator: sketchtool 53 (72520) - https://sketchapp.com -->
    <title>55E00346-73D9-44E4-BED1-5DEFE2EAEBC8</title>
    <desc>Created with sketchtool.</desc>
    <g id="NewContent" stroke="none" stroke-width="1" fill="none" fill-rule="evenodd">
        <g id="LandingPage-MA&amp;C-Atuação-Tab2" transform="translate(-183.000000, -1646.000000)" fill="#9A3F4B" fill-rule="nonzero">
            <g id="Group-6" transform="translate(168.000000, 1630.000000)">
                <g id="005-wedding-contract" transform="translate(15.000000, 16.000000)">
                    <path d="M44.2753723,0 L11.2281191,0 C10.8278659,0 10.5033957,0.324529931 10.5033957,0.724856884 L10.5033957,10.8727576 C10.5033957,11.2730845 10.8278659,11.5976144 11.2281191,11.5976144 C11.6283724,11.5976144 11.9528425,11.2730845 11.9528425,10.8727576 L11.9528425,1.44971377 L43.5506489,1.44971377 L43.5506489,41.606632 C43.5506489,44.8840877 40.8847499,47.5504776 37.6078978,47.5504776 C34.3310458,47.5504776 31.6651468,44.8840877 31.6651468,41.606632 C31.6651468,41.2063051 31.3406766,40.8817752 30.9404234,40.8817752 L25.4325638,40.8817752 C25.0323106,40.8817752 24.7078404,41.2063051 24.7078404,41.606632 C24.7078404,42.006959 25.0323106,42.3314889 25.4325638,42.3314889 L30.251008,42.3314889 C30.4533833,44.3958094 31.5509938,46.3165748 33.2161161,47.5504776 L9.39219783,47.5504776 C6.36058818,47.5504776 3.85190081,45.2684322 3.49346222,42.3314889 L11.2281191,42.3314889 L22.0506489,42.3314889 C22.4509021,42.3314889 22.7753723,42.006959 22.7753723,41.606632 C22.7753723,41.2063051 22.4509021,40.8817752 22.0506489,40.8817752 L11.9528425,40.8817752 L11.9528425,15.1252385 C11.9528425,14.7249116 11.6283724,14.4003816 11.2281191,14.4003816 C10.8278659,14.4003816 10.5033957,14.7249116 10.5033957,15.1252385 L10.5033957,40.8816795 L2.7247234,40.8816795 C2.32447017,40.8816795 2,41.2062094 2,41.6065363 C2,45.683306 5.3160832,49 9.39210214,49 L37.6078978,49 C41.6839168,49 45,45.683306 45,41.6065363 L45,0.724856884 C45.0000957,0.324529931 44.6756255,0 44.2753723,0 Z" id="Path"></path>
                    <path d="M28.495504,17 L28.504496,17 C28.5051801,17 28.5057666,17 28.5064507,17 C28.7230392,17 28.917832,16.9092326 29.0531998,16.7644439 C29.318462,16.5473085 30.1248045,15.8730911 31.0626053,14.9529142 C33.6752526,12.3894757 35,10.2310066 35,8.53735047 C35,8.4002927 34.9918877,8.26218503 34.9758586,8.12713159 C34.7646457,6.34433062 33.2177388,5 31.3776164,5 C30.2090551,5 29.1638398,5.54212268 28.5,6.38813948 C27.8361602,5.54212268 26.7908472,5 25.6223836,5 C23.625,5 22,6.58685416 22,8.53735047 C22,11.7863642 27.0738978,16.0547213 27.9566718,16.7727475 C28.0937011,16.9147684 28.2870278,17 28.495504,17 Z M23.4804448,8.53735047 C23.4804448,7.38409901 24.4412141,6.44578773 25.6222859,6.44578773 C26.7466694,6.44578773 27.6782148,7.29447697 27.7585559,8.38425808 C27.7563079,8.43503436 27.7552328,8.48609697 27.7552328,8.53735047 C27.7552328,8.93659328 28.0956559,9.26024434 28.504496,9.26024434 C28.913336,9.26024434 29.2447672,8.93659328 29.2447672,8.53735047 C29.2447672,8.48609697 29.2436921,8.43503436 29.2414441,8.38425808 C29.3217852,7.29438152 30.2532329,6.44578773 31.3777141,6.44578773 C32.4657389,6.44578773 33.3803756,7.24007381 33.5051877,8.29339527 C33.5146683,8.37347289 33.5194575,8.45555485 33.5194575,8.53735047 C33.5194575,9.79845381 32.2742692,11.7145902 30.0132849,13.9329982 C29.4143435,14.5206477 28.8662261,15.0074128 28.4984362,15.3230466 C26.7557591,13.8320183 23.4804448,10.6029524 23.4804448,8.53735047 Z" id="Shape"></path>
                    <path d="M16.7442778,32 L28.2557222,32 C28.666775,32 29,31.5522841 29,31 C29,30.4477159 28.666775,30 28.2557222,30 L16.7442778,30 C16.333225,30 16,30.4477159 16,31 C16,31.5522841 16.333225,32 16.7442778,32 Z" id="Path"></path>
                    <path d="M16.6983836,27 L38.3016164,27 C38.6873226,27 39,26.5522841 39,26 C39,25.4477159 38.6873226,25 38.3016164,25 L16.6983836,25 C16.3126774,25 16,25.4477159 16,26 C16,26.5522841 16.3126774,27 16.6983836,27 Z" id="Path"></path>
                    <path d="M39.2405019,38 L32.7594981,38 C32.3400394,38 32,38.4477159 32,39 C32,39.5522841 32.3400394,40 32.7594981,40 L39.2405019,40 C39.6599606,40 40,39.5522841 40,39 C40,38.4477159 39.6599606,38 39.2405019,38 Z" id="Path"></path>
                    <path d="M16.7594981,40 L23.2405019,40 C23.6599606,40 24,39.5522841 24,39 C24,38.4477159 23.6599606,38 23.2405019,38 L16.7594981,38 C16.3400394,38 16,38.4477159 16,39 C16,39.5522841 16.3400394,40 16.7594981,40 Z" id="Path"></path>
                    <path d="M16,21 C16,21.5522841 16.3126774,22 16.6983836,22 L38.3016164,22 C38.6873226,22 39,21.5522841 39,21 C39,20.4477159 38.6873226,20 38.3016164,20 L16.6983836,20 C16.3126774,20 16,20.4477159 16,21 Z" id="Path"></path>
                    <path d="M3.06919041,37.9999035 C3.07292366,37.9999035 3.07674797,38 3.08048123,38 C3.3184079,38 3.53994468,37.8697665 3.66596478,37.6551562 L6.24072662,33.2678594 C6.30874469,33.1519139 6.34480247,33.0181083 6.34480247,32.8815996 L6.34480247,20.518391 C7.28203144,20.3546578 8,19.4919692 8,18.4526109 L8,9.97072883 C8,9.02993868 7.27811607,8.26456318 6.39078524,8.26456318 L6.34480247,8.26456318 L6.34480247,6.07105955 C6.34480247,4.37773383 5.04544782,3 3.44825231,3 L2.89655015,3 C1.2994457,3 0,4.37763729 0,6.07105955 L0,32.8815996 C0,33.0099989 0.0319603,33.1361777 0.0925118656,33.2473927 L2.48334263,37.6345931 C2.60453681,37.8570231 2.82698415,37.9956557 3.06919041,37.9999035 Z M1.37930093,13.0417884 L4.04593724,13.0417884 L4.04593724,18.4526109 C4.04593724,19.1958785 4.41379938,19.8483013 4.96550154,20.2206592 L4.96550154,21.328658 L1.37930093,21.328658 L1.37930093,13.0417884 Z M1.37930093,22.7910581 L4.96550154,22.7910581 L4.96550154,24.2534582 L1.37930093,24.2534582 L1.37930093,22.7910581 Z M6.62060802,9.97072883 L6.62060802,18.4526109 C6.62060802,18.8019921 6.35245109,19.0863047 6.02292309,19.0863047 C5.6933951,19.0863047 5.42523817,18.8019921 5.42523817,18.4526109 L5.42523817,12.3105883 C5.42523817,11.9067581 5.11647071,11.5793883 4.7355877,11.5793883 L1.37930093,11.5793883 L1.37930093,9.72705984 L5.655152,9.72705984 L6.39078524,9.72705984 C6.51753378,9.72705984 6.62060802,9.83634403 6.62060802,9.97072883 Z M1.37930093,6.07105955 C1.37930093,5.18404263 2.05993694,4.46240011 2.89655015,4.46240011 L3.44825231,4.46240011 C4.28486552,4.46240011 4.96550154,5.18404263 4.96550154,6.07105955 L4.96550154,8.26465972 L1.37930093,8.26465972 L1.37930093,6.07105955 Z M1.37930093,25.7158583 L4.96550154,25.7158583 L4.96550154,32.6726853 L3.10242548,35.8474297 L1.37930093,32.6856218 L1.37930093,25.7158583 Z" id="Shape"></path>
                </g>
            </g>
        </g>
    </g>
</svg>