<?xml version="1.0" encoding="UTF-8"?>
<svg width="40px" height="49px" viewBox="0 0 40 49" version="1.1" xmlns="http://www.w3.org/2000/svg" xmlns:xlink="http://www.w3.org/1999/xlink">
    <!-- Generator: sketchtool 53 (72520) - https://sketchapp.com -->
    <title>37E6DA86-8547-434A-BD47-423D131D0282</title>
    <desc>Created with sketchtool.</desc>
    <g id="NewContent" stroke="none" stroke-width="1" fill="none" fill-rule="evenodd">
        <g id="LandingPage-MA&amp;C-Atuação-Tab2" transform="translate(-693.000000, -1646.000000)" fill="#9A3F4B" fill-rule="nonzero">
            <g id="Group-6-Copy" transform="translate(678.000000, 1630.000000)">
                <g id="004-wedding" transform="translate(15.000000, 16.000000)">
                    <path d="M33.2653924,19 L6.73470558,19 C6.32896242,19 6,19.447614 6,20 C6,20.552386 6.32896242,21 6.73470558,21 L33.2652944,21 C33.6711355,21 34,20.552386 34,20 C34,19.4477473 33.6711355,19 33.2653924,19 Z" id="Path"></path>
                    <path d="M15.2398872,38 L5.76021409,38 C5.34038378,38 5,38.447614 5,39 C5,39.552386 5.34038378,40 5.76021409,40 L15.2397859,40 C15.6596162,40 16,39.552386 16,39 C16,38.447614 15.6597176,38 15.2398872,38 Z" id="Path"></path>
                    <path d="M15.2398872,32 L5.76021409,32 C5.34038378,32 5,32.447614 5,33 C5,33.552386 5.34038378,34 5.76021409,34 L15.2397859,34 C15.6596162,34 16,33.552386 16,33 C16.0001013,32.447614 15.6597175,32 15.2398872,32 Z" id="Path"></path>
                    <path d="M19.2182441,6 L5.78186012,6 C5.35007573,6 5,6.44761397 5,7 C5,7.55238603 5.35007573,8 5.78186012,8 L19.2181399,8 C19.6499242,8 20,7.55238603 20,7 C20.0001042,6.44761397 19.6500285,6 19.2182441,6 Z" id="Path"></path>
                    <path d="M9.13459318,13 L5.86552217,13 C5.38753519,13 5,13.447614 5,14 C5,14.552386 5.38753519,15 5.86552217,15 L9.1344778,15 C9.61246479,15 9.99999997,14.552386 9.99999997,14 C10.0001153,13.447614 9.61258016,13 9.13459318,13 Z" id="Path"></path>
                    <path d="M33.2587789,13 L12.7412211,13 C12.3318797,13 12,13.4477473 12,14 C12,14.552386 12.3318797,15 12.7412211,15 L33.2587789,15 C33.6682191,15 34,14.552386 34,14 C34,13.447614 33.6682191,13 33.2587789,13 Z" id="Path"></path>
                    <path d="M25.2484972,25 L5.75160299,25 C5.33652819,25 5,25.447614 5,26 C5,26.552386 5.33652819,27 5.75160299,27 L25.248397,27 C25.663572,27 26,26.552386 26,26 C26.0001002,25.447614 25.6636722,25 25.2484972,25 Z" id="Path"></path>
                    <path d="M32.3348701,25 L28.6651299,25 C28.2977214,25 28,25.447614 28,26 C28,26.552386 28.2977214,27 28.6651299,27 L32.3348701,27 C32.7022786,27 33,26.552386 33,26 C33,25.447614 32.7022786,25 32.3348701,25 Z" id="Path"></path>
                    <path d="M39.998818,10.6464941 C39.9985225,10.6384551 39.9981286,10.630416 39.9976361,10.622377 C39.9954692,10.591752 39.9920218,10.5613184 39.9860135,10.531459 C39.985915,10.5311719 39.985915,10.5307891 39.9858165,10.530502 C39.9796112,10.5001641 39.970648,10.4704961 39.9605028,10.4413066 C39.9578434,10.4337461 39.9550855,10.426377 39.9522291,10.4189121 C39.9415915,10.3913496 39.9297719,10.3643613 39.9156868,10.3382344 C39.9148004,10.3366074 39.9142094,10.3349805 39.9133229,10.3333535 C39.8983514,10.3059824 39.8809175,10.2799512 39.8624001,10.2545898 C39.8575738,10.248082 39.8527474,10.2416699 39.8477241,10.2353535 C39.8279263,10.2101836 39.807045,10.1856836 39.7837013,10.163002 L29.540439,0.210259766 C29.5170953,0.187578125 29.4917817,0.167193359 29.4657786,0.147861328 C29.4592778,0.143076172 29.4528755,0.138386719 29.4462762,0.133792969 C29.4201746,0.115705078 29.393285,0.098765625 29.3651149,0.0841230469 C29.3634405,0.0832617187 29.3616675,0.0825917969 29.3599931,0.0817304687 C29.3333005,0.068140625 29.3056229,0.05665625 29.2773544,0.0464160156 C29.2694746,0.0435449219 29.2616934,0.0407695312 29.2537152,0.0381855469 C29.2238707,0.0284238281 29.1936322,0.0198105469 29.1627042,0.01378125 C29.1614238,0.0134941406 29.1600448,0.0134941406 29.1587644,0.0132070312 C29.1292154,0.00765625 29.0990754,0.00440234375 29.0687384,0.002296875 C29.0597752,0.00172265625 29.050812,0.00124414062 29.0417503,0.00095703125 C29.0336736,0.000861328125 29.0258923,0 29.0179141,0 L2.74529986,0 C1.23150417,0 0,1.19657617 0,2.6674375 L0,46.3325625 C0,47.8034238 1.23150417,49 2.74529986,49 L37.2547986,49 C38.7684958,49 40,47.8034238 40,46.3325625 L40,10.670707 C40,10.6625723 39.9991135,10.6545332 39.998818,10.6464941 Z M29.7566393,2.45124414 L29.7567378,2.45124414 L37.4772042,9.95274219 L31.2472883,9.95274219 C30.4253333,9.95274219 29.7566393,9.30301367 29.7566393,8.5044668 L29.7566393,2.45124414 L29.7566393,2.45124414 Z M38.5222541,46.3325625 C38.5222541,47.0115762 37.9537312,47.5640703 37.2548971,47.5640703 L2.74529986,47.5640703 C2.04646582,47.5640703 1.4778444,47.0115762 1.4778444,46.3325625 L1.4778444,2.6674375 C1.4778444,1.98842383 2.04636732,1.43592969 2.74529986,1.43592969 L28.2789919,1.43592969 L28.2789919,8.5045625 C28.2789919,10.0948613 29.6106672,11.3886719 31.2473868,11.3886719 L38.5222541,11.3886719 L38.5222541,46.3325625 Z" id="Shape"></path>
                    <path d="M31.7419226,30 C30.7222996,30.0000964 29.7600486,30.3313276 28.9998963,30.9283152 C28.2398476,30.3314241 27.2774929,30.0000964 26.2580774,30.0000964 C23.9100812,30.0000964 22,31.7755342 22,33.957803 C22,36.284907 23.718461,38.0487734 25.4181438,39.2243308 L25.4181438,44.2766914 C25.4181438,44.5273085 25.5577869,44.7601828 25.787171,44.8920003 C26.016555,45.0238178 26.3032073,45.035582 26.5443147,44.9237252 L29,43.7829785 L31.4557891,44.9237252 C31.5655531,44.9746394 31.6847581,45 31.8036519,45 C31.9458887,45 32.087918,44.963743 32.212829,44.8920003 C32.4422131,44.7600864 32.5818562,44.5273085 32.5818562,44.2766914 L32.5818562,39.2242344 C34.2814353,38.048677 36,36.2848106 36,33.9577065 C36,31.7753414 34.089815,30 31.7419226,30 Z M31.0253438,43.106534 L29.3478628,42.3272969 C29.23841,42.2764792 29.1191013,42.2510221 29,42.2510221 C28.8808987,42.2510221 28.76159,42.2764792 28.6521372,42.3272969 L26.9747599,43.106534 L26.9747599,40.1646995 C27.8668781,40.6362339 28.5608401,40.9005439 28.6997569,40.9518437 C28.7079529,40.954833 28.7135553,40.9569544 28.7162527,40.9579187 C28.7814056,40.9816401 28.8491522,40.99649 28.9176251,41.00324 C28.9450142,41.00594 28.9724034,41.0076757 29,41.0076757 C29.096277,41.0076757 29.1925539,40.99109 29.2836436,40.9579187 C29.3713096,40.9260009 30.0893408,40.6592803 31.0253438,40.1646031 L31.0253438,43.106534 L31.0253438,43.106534 Z M28.9994813,39.4974157 C28.6046212,39.332909 27.8452988,38.9922279 27.0171923,38.4922472 C27.0109675,38.4884865 27.0047427,38.4848222 26.9985179,38.4809651 C26.9523506,38.4530008 26.9058721,38.4241688 26.8592898,38.3952403 C26.8412378,38.3839582 26.8231859,38.3728689 26.8050302,38.361394 C26.7644653,38.3358405 26.7236928,38.3097084 26.6829203,38.2834799 C26.5733638,38.212798 26.4632885,38.1401875 26.3531094,38.0641055 C24.4974953,36.783152 23.5565123,35.4016239 23.5565123,33.9577065 C23.5565123,32.5731891 24.7684817,31.4467137 26.2580774,31.4467137 C27.0945874,31.4467137 27.870613,31.7984841 28.3870643,32.4118645 C28.5344884,32.5870748 28.7605525,32.6894816 29,32.6894816 C29.2394475,32.6894816 29.4653041,32.5870748 29.6129357,32.4118645 C30.1294908,31.7984841 30.9054126,31.4467137 31.7420263,31.4467137 C33.2315183,31.4468102 34.4433839,32.5732855 34.4433839,33.957803 C34.4433839,37.01728 30.15439,39.0150814 28.9994813,39.4974157 Z" id="Shape"></path>
                </g>
            </g>
        </g>
    </g>
</svg>